<?xml version="1.0" standalone="no"?><!DOCTYPE svg PUBLIC "-//W3C//DTD SVG 1.1//EN" "http://www.w3.org/Graphics/SVG/1.1/DTD/svg11.dtd"><svg height="96" node-id="1" sillyvg="true" template-height="96" template-width="96" version="1.1" viewBox="0 0 96 96" width="96" xmlns="http://www.w3.org/2000/svg" xmlns:xlink="http://www.w3.org/1999/xlink"><defs node-id="102"></defs><g node-id="119"><g node-id="120"><g node-id="121"><g node-id="123"><path d="M 0.00 0.00 L 96.00 0.00 L 96.00 96.00 L 0.00 96.00 Z" fill="#ffffff" fill-opacity="0" fill-rule="evenodd" group-id="1,2,3,5" node-id="110" stroke="none" target-height="96" target-width="96" target-x="0" target-y="0"></path></g><path d="M 3.00 3.00 L 93.00 3.00 L 93.00 93.00 L 3.00 93.00 Z" fill="none" group-id="1,2,3" node-id="113" stroke="#dddddd" stroke-linecap="butt" stroke-opacity="0" stroke-width="6" target-height="90" target-width="90" target-x="3" target-y="3"></path><path d="M 6.00 6.00 L 90.00 6.00 L 90.00 90.00 L 6.00 90.00 Z" fill="none" group-id="1,2,3" node-id="115" stroke="#dddddd" stroke-linecap="butt" stroke-opacity="0" stroke-width="12" target-height="84" target-width="84" target-x="6" target-y="6"></path><path d="M 5.00 5.00 L 91.00 5.00 L 91.00 91.00 L 5.00 91.00 Z" fill="none" group-id="1,2,3" node-id="117" stroke="#979797" stroke-linecap="butt" stroke-opacity="0" stroke-width="10" target-height="86" target-width="86" target-x="5" target-y="5"></path></g><path d="M 60.92 31.54 C 61.47 32.16 62.89 34.31 63.21 36.34 C 63.43 37.69 63.43 39.11 63.21 40.58 C 64.82 42.05 66.21 43.18 67.38 43.96 C 69.13 45.14 71.03 46.11 71.55 46.11 C 71.63 45.92 71.58 43.91 72.27 42.59 C 72.96 41.26 74.23 39.62 74.56 39.62 C 74.90 39.62 75.45 40.17 75.45 40.38 C 75.45 40.58 75.74 40.78 75.79 40.58 C 75.83 40.38 74.97 37.88 74.97 36.59 C 74.97 35.31 75.55 34.13 76.34 34.13 C 77.13 34.13 77.80 34.52 77.80 35.81 C 77.80 37.09 77.54 39.58 77.43 40.21 C 77.36 40.63 77.36 41.11 77.43 41.66 L 78.27 42.45 C 79.01 43.17 79.45 43.63 79.59 43.85 C 79.87 44.28 79.81 44.55 79.91 44.75 L 80.53 45.74 C 80.88 46.31 81.28 47.00 81.43 47.45 C 81.67 48.23 82.16 51.80 82.22 52.74 L 82.22 52.88 C 82.22 53.48 82.33 53.95 82.47 54.23 C 82.59 54.49 82.79 56.49 82.82 57.54 L 82.82 61.08 L 80.28 63.96 C 76.42 61.03 73.58 60.36 71.75 61.95 L 71.55 62.14 C 68.82 64.90 58.74 66.24 56.53 65.10 C 54.55 64.08 53.27 64.36 50.69 65.14 L 49.71 65.43 C 46.59 66.36 43.81 66.86 39.94 65.33 L 39.39 65.10 C 35.22 63.30 34.57 67.25 28.61 67.25 L 27.19 67.24 C 22.19 67.19 19.59 66.79 15.73 64.57 C 12.92 62.95 11.29 61.50 10.85 60.22 C 10.95 57.96 12.07 56.51 14.19 55.86 C 17.39 54.89 22.65 54.09 24.05 53.76 C 25.35 53.45 28.26 52.25 29.38 51.67 L 29.59 51.55 C 30.48 51.04 32.24 50.57 32.24 50.57 L 32.43 50.20 C 32.66 49.77 33.06 49.09 33.38 48.94 L 33.79 48.76 C 34.34 48.54 35.07 48.28 35.22 48.28 C 35.52 48.01 35.76 47.23 36.59 47.23 C 37.42 47.23 37.84 48.27 38.26 47.75 C 38.67 47.23 40.52 46.11 41.40 46.11 C 41.78 46.08 42.18 44.55 43.13 44.55 C 43.77 44.55 44.45 44.66 45.16 44.87 C 45.23 43.46 45.42 42.76 45.75 42.76 C 46.07 42.76 46.57 42.88 47.25 43.13 C 48.65 42.98 49.48 42.59 49.71 41.97 L 49.93 41.39 C 50.14 40.77 50.24 40.35 50.17 40.21 L 50.10 40.05 C 49.93 39.63 49.61 38.63 50.17 38.37 C 50.83 38.06 51.18 37.26 51.58 37.26 C 51.84 37.26 52.07 37.34 52.26 37.50 L 55.25 34.80 C 57.35 32.94 58.64 31.85 59.13 31.54 L 59.56 31.28 C 60.24 30.91 60.46 31.01 60.92 31.54 Z M 76.45 34.66 C 75.80 34.57 75.53 35.52 75.53 36.15 C 75.53 36.72 75.75 38.08 75.94 38.69 L 76.00 38.88 C 76.20 39.34 76.51 40.97 76.70 40.97 C 76.87 40.97 76.88 40.25 76.94 39.77 L 77.06 39.01 C 77.15 38.31 77.28 37.25 77.36 36.51 C 77.48 35.49 77.10 34.75 76.45 34.66 Z" fill="#f0f0f2" fill-rule="evenodd" group-id="1,2" id="形状" node-id="14" stroke="none" target-height="36.34263" target-width="71.973206" target-x="10.846191" target-y="30.906153"></path><path d="M 74.56 39.62 C 74.90 39.62 75.45 40.17 75.45 40.38 C 75.45 40.57 75.73 40.77 75.78 40.59 C 76.03 41.26 76.25 41.67 76.46 41.83 C 76.89 42.15 75.04 47.35 73.61 47.35 C 72.46 47.35 71.49 47.26 71.01 45.97 C 71.25 46.06 71.43 46.11 71.55 46.11 C 71.63 45.92 71.58 43.91 72.27 42.59 C 72.96 41.26 74.23 39.62 74.56 39.62 Z" fill="#e8e2e2" fill-rule="evenodd" group-id="1,2" id="路径" node-id="15" stroke="none" target-height="7.72908" target-width="5.876915" target-x="71.00919" target-y="39.616577"></path><path d="M 74.56 39.62 C 74.86 39.62 75.32 40.04 75.43 40.29 L 75.45 40.38 C 75.45 40.44 75.48 40.50 75.51 40.55 L 75.66 40.41 C 75.01 40.97 74.41 41.64 73.88 42.42 C 73.07 43.59 72.99 45.63 73.03 46.24 C 73.07 46.85 72.28 48.03 71.60 46.82 C 71.45 46.56 71.31 46.30 71.20 46.04 C 71.35 46.09 71.46 46.11 71.55 46.11 C 71.63 45.92 71.58 43.91 72.27 42.59 C 72.96 41.26 74.23 39.62 74.56 39.62 Z" fill="#d14343" fill-rule="evenodd" group-id="1,2" id="路径" node-id="16" stroke="none" target-height="8.418335" target-width="4.467819" target-x="71.196304" target-y="39.616577"></path><path d="M 74.56 39.62 C 74.86 39.62 75.32 40.04 75.43 40.29 L 75.45 40.38 C 75.45 40.44 75.48 40.50 75.51 40.55 L 75.21 40.83 L 75.21 40.83 C 74.78 40.64 74.37 40.70 73.98 41.00 C 73.28 41.54 72.45 43.36 72.23 44.06 L 72.12 44.47 C 72.02 44.94 71.91 45.59 71.82 46.41 L 71.47 46.58 L 71.39 46.43 C 71.32 46.30 71.25 46.17 71.20 46.04 C 71.35 46.09 71.46 46.11 71.55 46.11 C 71.63 45.92 71.58 43.91 72.27 42.59 C 72.96 41.26 74.23 39.62 74.56 39.62 Z" fill="#eb5b5b" fill-rule="evenodd" group-id="1,2" id="路径" node-id="17" stroke="none" target-height="6.9660034" target-width="4.3178406" target-x="71.196304" target-y="39.616577"></path><path d="M 76.34 34.13 C 77.13 34.13 77.80 34.52 77.80 35.81 C 77.80 37.09 77.54 39.58 77.43 40.21 C 77.36 40.63 77.36 41.11 77.43 41.66 L 77.80 42.01 L 77.79 42.04 L 76.31 41.69 L 75.79 40.58 L 75.79 40.58 C 75.83 40.38 74.97 37.88 74.97 36.59 C 74.97 35.31 75.55 34.13 76.34 34.13 Z M 76.45 34.66 C 75.80 34.57 75.53 35.52 75.53 36.15 C 75.53 36.72 75.75 38.08 75.94 38.69 L 76.00 38.88 C 76.20 39.34 76.51 40.97 76.70 40.97 C 76.87 40.97 76.88 40.25 76.94 39.77 L 77.06 39.01 L 77.24 37.51 C 77.29 37.15 77.33 36.80 77.36 36.51 C 77.48 35.49 77.10 34.75 76.45 34.66 Z" fill="#464646" fill-rule="evenodd" group-id="1,2" id="形状" node-id="18" stroke="none" target-height="7.908428" target-width="2.8339996" target-x="74.96704" target-y="34.12683"></path><path d="M 79.69 53.16 C 83.52 56.08 82.11 55.18 82.67 59.60 C 83.24 64.02 79.89 63.52 78.10 62.11 C 76.32 60.70 73.12 59.08 71.53 60.60 C 70.75 61.35 69.59 62.77 68.13 64.01 C 64.05 65.44 58.16 65.94 56.53 65.10 C 54.67 64.14 53.44 64.33 51.16 65.00 L 49.71 65.43 C 46.59 66.36 43.81 66.86 39.94 65.33 L 39.39 65.10 C 35.22 63.30 34.57 67.25 28.61 67.25 L 27.19 67.24 L 26.22 67.23 C 26.07 67.22 25.91 67.22 25.76 67.22 L 25.73 67.18 L 25.26 66.61 C 23.47 64.34 21.01 60.50 21.69 58.60 C 22.18 57.22 23.74 55.65 28.24 56.26 C 32.24 56.81 37.13 59.88 38.96 59.34 L 40.92 58.80 C 44.54 57.82 51.49 56.03 53.05 55.88 C 53.12 53.25 53.78 51.83 55.04 51.62 C 55.95 51.46 58.52 51.79 61.57 53.06 C 62.92 53.62 65.65 53.41 65.67 51.37 C 65.68 50.95 67.15 48.92 68.56 48.83 C 70.96 48.69 75.86 50.23 79.69 53.16 Z" fill="#d1d1d2" fill-rule="evenodd" group-id="1,2" id="路径" node-id="19" stroke="none" target-height="18.560959" target-width="62.512405" target-x="21.008219" target-y="48.68782"></path><path d="M 28.24 56.26 C 32.24 56.81 37.13 59.88 38.96 59.34 L 41.31 58.69 C 42.56 60.57 43.90 62.93 45.34 65.78 L 45.58 66.28 C 43.87 66.40 42.07 66.17 39.94 65.33 L 39.39 65.10 C 35.22 63.30 34.57 67.25 28.61 67.25 L 27.19 67.24 L 25.76 67.22 L 25.76 67.22 L 25.73 67.18 L 25.26 66.61 L 24.78 65.98 C 23.07 63.69 21.07 60.34 21.69 58.60 C 22.18 57.22 23.74 55.65 28.24 56.26 Z" fill="#eceaea" fill-rule="evenodd" group-id="1,2" id="路径" node-id="20" stroke="none" target-height="11.601318" target-width="24.514338" target-x="21.067457" target-y="55.64746"></path><path d="M 36.16 59.87 L 37.31 60.69 C 36.91 60.96 34.33 63.08 32.17 63.89 C 30.00 64.70 28.02 64.78 27.12 64.12 C 26.23 63.47 24.86 60.65 24.39 59.47 C 25.34 59.90 28.03 60.96 30.37 60.81 C 31.41 60.75 33.34 60.43 36.16 59.87 Z" fill="#e1e1e2" fill-rule="evenodd" group-id="1,2" id="路径" node-id="21" stroke="none" target-height="5.309326" target-width="12.921022" target-x="24.385008" target-y="59.47119"></path><path d="M 24.32 59.86 C 24.25 60.00 26.19 61.93 27.77 62.50 C 29.36 63.07 32.54 62.93 34.70 62.25 C 35.06 63.87 32.23 65.52 28.89 65.55 C 25.54 65.59 24.38 59.73 24.32 59.86 Z" fill="#d6d7dc" fill-rule="evenodd" group-id="1,2" id="路径-628" node-id="22" stroke="none" target-height="5.8550262" target-width="10.810303" target-x="24.253662" target-y="59.732178"></path><g node-id="122"><path d="M 24.74 60.61 C 24.32 58.50 24.49 57.30 25.24 57.02 C 26.37 56.59 30.88 57.89 34.53 59.14 C 38.19 60.39 55.10 59.85 55.28 58.79 C 55.45 57.73 54.94 54.64 55.29 53.94 C 55.64 53.24 56.57 52.92 57.55 53.24 C 58.21 53.45 61.66 55.56 67.90 59.56 C 70.03 58.13 71.04 57.34 70.94 57.17 C 70.78 56.93 67.77 52.17 67.92 51.34 C 68.07 50.51 69.36 50.02 72.49 51.12 C 75.61 52.23 79.82 55.48 80.36 56.31 C 80.90 57.13 81.57 58.73 81.51 59.05 C 81.02 59.55 80.47 60.23 79.91 60.98 C 79.34 61.73 77.56 59.19 76.20 58.46 C 74.83 57.73 73.28 56.96 72.65 57.04 C 72.22 57.09 70.72 57.98 68.12 59.70 L 68.37 60.25 C 67.38 61.52 66.52 62.30 65.79 62.58 C 64.70 63.01 62.16 62.37 60.92 61.82 C 60.10 61.45 59.11 61.02 57.95 60.53 C 56.21 60.10 55.18 59.99 54.85 60.20 C 49.98 63.32 47.83 63.20 47.30 63.15 C 46.36 63.06 45.93 63.07 44.69 62.53 C 43.45 61.99 40.74 60.26 38.82 60.25 C 36.91 60.24 32.06 63.07 31.34 63.31 C 30.63 63.54 28.26 63.84 27.31 63.59 C 26.84 63.22 26.11 62.35 25.12 60.96 L 24.57 61.47 L 26.74 64.70 C 27.36 65.62 30.58 64.79 36.39 62.23 C 40.23 60.54 42.32 64.44 46.62 64.63 C 50.32 64.81 52.97 62.00 56.73 62.46 C 62.83 63.21 64.89 65.62 67.10 63.82 C 68.48 62.70 71.37 59.42 72.63 59.17 C 73.90 58.93 77.92 61.93 79.61 62.74 C 80.31 63.08 80.38 61.81 82.40 59.66 C 82.40 58.24 81.95 54.64 78.77 52.67 C 69.85 47.15 66.11 47.26 64.95 51.70 C 64.86 51.74 63.22 52.68 61.25 52.74 C 60.19 52.21 53.17 48.41 53.28 53.86 C 42.77 58.20 25.63 53.59 23.81 55.60 C 22.56 56.98 22.59 58.68 23.89 60.72 L 24.74 60.61 Z" fill="#8c8c95" fill-opacity="0.5" fill-rule="evenodd" group-id="1,2,4" id="路径-633" node-id="23" stroke="none" target-height="18.472324" target-width="59.838196" target-x="22.56256" target-y="47.149822"></path></g><path d="M 67.68 60.41 C 67.13 61.69 66.41 62.37 65.52 62.44 C 64.19 62.55 61.80 61.61 60.73 61.39 C 59.67 61.18 59.26 61.00 58.78 60.26 C 58.30 59.52 55.57 55.13 56.90 54.45 C 57.78 54.00 61.37 55.98 67.68 60.41 Z" fill="#e2e2e8" fill-rule="evenodd" group-id="1,2" id="路径-627" node-id="24" stroke="none" target-height="8.550274" target-width="12.108158" target-x="55.572018" target-y="53.99805"></path><path d="M 67.68 60.41 C 67.13 61.69 66.41 62.37 65.52 62.44 C 64.30 62.54 62.19 61.76 61.03 61.46 L 60.73 61.39 C 59.78 61.20 59.35 61.03 58.92 60.46 L 58.78 60.26 C 58.65 60.05 58.34 59.57 58.00 58.97 C 58.25 59.01 58.46 59.06 58.62 59.12 L 60.24 59.76 C 61.92 60.39 63.39 60.74 64.84 59.93 C 65.01 59.84 65.19 59.73 65.40 59.60 L 65.98 59.23 L 67.10 60.00 C 67.29 60.13 67.48 60.27 67.68 60.41 Z" fill="#d8d8db" fill-rule="evenodd" group-id="1,2" id="路径" node-id="25" stroke="none" target-height="3.574234" target-width="9.680294" target-x="57.99988" target-y="58.96514"></path><path d="M 72.07 57.13 C 70.00 53.99 69.37 52.19 70.17 51.75 C 71.38 51.08 75.61 53.90 77.46 55.03 C 78.69 55.79 79.68 57.09 80.43 58.92 C 80.47 60.25 80.29 60.70 79.86 60.26 C 79.22 59.60 75.79 57.27 74.45 57.00 C 73.56 56.82 72.76 56.87 72.07 57.13 Z" fill="#e2e2e8" fill-rule="evenodd" group-id="1,2" id="路径-623" node-id="26" stroke="none" target-height="9.621529" target-width="11.103355" target-x="69.37142" target-y="51.076378"></path><path d="M 77.46 55.03 C 78.69 55.79 79.68 57.09 80.43 58.92 C 80.47 60.16 80.31 60.63 79.95 60.34 L 79.86 60.26 C 79.22 59.60 75.79 57.27 74.45 57.00 C 73.56 56.82 72.76 56.87 72.07 57.13 C 71.79 56.71 71.54 56.32 71.32 55.95 C 72.13 55.57 72.87 55.35 73.45 55.40 C 75.64 55.58 76.21 56.69 76.58 55.79 C 76.72 55.47 76.60 54.96 76.24 54.28 L 77.46 55.03 L 77.46 55.03 Z" fill="#d8d8db" fill-rule="evenodd" group-id="1,2" id="路径" node-id="27" stroke="none" target-height="6.3528748" target-width="9.153221" target-x="71.318" target-y="54.276737"></path><path d="M 22.09 55.33 C 22.09 56.06 23.05 60.01 24.97 67.18 C 21.33 67.02 18.97 66.44 15.73 64.57 C 12.92 62.95 11.29 61.50 10.85 60.22 C 10.95 57.96 12.07 56.51 14.19 55.86 C 16.72 55.10 20.54 54.43 22.72 54.03 C 22.30 54.46 22.09 54.90 22.09 55.33 Z" fill="#f6f6f6" fill-rule="evenodd" group-id="1,2" id="路径" node-id="28" stroke="none" target-height="13.158646" target-width="14.124748" target-x="10.846191" target-y="54.02526"></path><path d="M 13.93 58.92 C 15.44 59.59 18.52 60.05 23.17 60.29 L 24.15 64.07 C 24.40 65.03 24.67 66.07 24.97 67.18 C 21.33 67.02 18.97 66.44 15.73 64.57 C 12.92 62.95 11.29 61.50 10.85 60.22 C 10.91 58.85 11.34 57.78 12.15 57.00 C 12.35 57.84 12.95 58.48 13.93 58.92 Z" fill="#e6e7ec" fill-rule="evenodd" group-id="1,2" id="路径" node-id="29" stroke="none" target-height="10.183281" target-width="14.124748" target-x="10.846191" target-y="57.000626"></path><path d="M 11.05 58.90 C 11.17 59.22 11.35 59.47 11.58 59.64 C 12.17 60.08 14.55 61.22 16.52 61.77 C 18.49 62.32 20.95 62.79 21.71 62.79 C 22.24 63.48 22.48 64.75 22.69 65.55 L 22.74 65.76 C 22.94 66.74 22.22 66.65 17.60 65.06 C 16.55 64.70 15.58 64.33 14.69 63.94 C 12.52 62.58 11.24 61.34 10.85 60.22 C 10.87 59.76 10.93 59.34 11.03 58.95 L 11.05 58.90 Z" fill="#d7d8df" fill-rule="evenodd" group-id="1,2" id="路径" node-id="30" stroke="none" target-height="7.843998" target-width="12.090977" target-x="10.846191" target-y="58.898808"></path><path d="M 60.92 31.54 C 61.47 32.16 62.89 34.31 63.21 36.34 C 63.39 37.47 63.42 38.64 63.30 39.85 L 63.21 40.58 C 62.86 42.40 62.42 43.58 61.90 44.10 L 61.76 44.21 C 60.10 45.43 46.77 52.48 36.49 54.63 C 25.82 56.87 22.09 55.51 22.09 54.97 L 22.10 54.60 C 22.11 54.46 22.12 54.30 22.14 54.13 L 23.87 53.80 C 23.93 53.79 23.99 53.77 24.05 53.76 C 25.35 53.45 28.26 52.25 29.38 51.67 L 29.59 51.55 C 30.48 51.04 32.24 50.57 32.24 50.57 L 32.43 50.20 C 32.66 49.77 33.06 49.09 33.38 48.94 L 33.79 48.76 C 34.34 48.54 35.07 48.28 35.22 48.28 C 35.52 48.01 35.76 47.23 36.59 47.23 C 37.42 47.23 37.84 48.27 38.26 47.75 C 38.67 47.23 40.52 46.11 41.40 46.11 C 41.78 46.08 42.18 44.55 43.13 44.55 C 43.77 44.55 44.45 44.66 45.16 44.87 C 45.23 43.46 45.42 42.76 45.75 42.76 C 46.07 42.76 46.57 42.88 47.25 43.13 C 48.19 43.03 48.92 42.52 49.46 41.59 C 49.89 40.86 50.24 40.35 50.17 40.21 L 50.10 40.05 C 49.93 39.63 49.61 38.63 50.17 38.37 C 50.83 38.06 51.18 37.26 51.58 37.26 C 51.84 37.26 52.07 37.34 52.26 37.50 L 55.25 34.80 C 57.35 32.94 58.64 31.85 59.13 31.54 L 59.56 31.28 C 60.24 30.91 60.46 31.01 60.92 31.54 Z" fill="#f8f8f8" fill-rule="evenodd" group-id="1,2" id="路径" node-id="31" stroke="none" target-height="25.964937" target-width="41.32795" target-x="22.094238" target-y="30.906153"></path><path d="M 60.92 31.54 C 61.47 32.16 62.89 34.31 63.21 36.34 C 63.26 36.64 63.30 36.94 63.32 37.25 C 62.99 38.28 62.58 39.26 62.11 40.04 C 60.40 42.90 51.80 45.96 50.30 45.71 C 49.31 45.54 46.17 45.15 46.22 44.42 C 46.22 44.35 46.55 43.25 47.00 43.05 C 47.06 43.03 47.17 43.10 47.24 43.11 C 47.01 43.48 46.88 44.07 47.08 44.01 C 47.68 43.84 48.37 43.69 48.91 43.18 C 49.40 42.73 50.03 41.81 50.24 41.15 C 50.35 40.78 50.46 40.37 50.57 39.89 C 51.89 39.60 54.64 38.93 56.90 37.23 C 58.71 35.86 59.95 33.99 60.59 31.62 L 60.68 31.28 C 60.75 31.35 60.83 31.44 60.92 31.54 Z" fill="#e5e5e8" fill-rule="evenodd" group-id="1,2" id="路径" node-id="32" stroke="none" target-height="14.681807" target-width="17.157639" target-x="46.165733" target-y="31.281569"></path><path d="M 25.44 53.33 L 26.02 53.11 L 25.54 53.63 C 25.45 53.73 25.39 53.80 25.39 53.83 C 25.39 53.94 26.76 53.75 26.30 54.03 C 25.84 54.30 24.65 54.54 24.50 54.35 C 24.42 54.25 24.74 53.91 25.44 53.33 Z" fill="#f68382" fill-rule="evenodd" group-id="1,2" id="路径" node-id="33" stroke="none" target-height="1.4287796" target-width="2.3374233" target-x="24.424479" target-y="53.113335"></path><path d="M 63.21 36.34 C 63.39 37.47 63.42 38.64 63.30 39.85 L 63.21 40.58 C 63.09 41.18 62.97 41.72 62.83 42.18 C 59.18 44.88 48.55 51.03 42.73 51.97 C 36.19 53.03 35.99 51.32 35.27 50.98 L 34.96 50.85 C 34.46 50.66 33.65 50.39 32.52 50.04 L 32.63 49.85 C 32.66 49.78 32.70 49.72 32.74 49.66 L 35.73 48.88 C 39.34 47.92 41.49 47.26 42.17 46.90 L 43.71 46.05 C 45.06 45.31 46.85 44.46 48.55 44.33 L 49.02 44.31 C 51.63 44.31 59.48 39.27 60.45 37.80 C 61.04 36.90 61.31 34.97 61.28 31.99 C 61.93 32.90 62.94 34.66 63.21 36.34 Z" fill="#cdd0d9" fill-rule="evenodd" group-id="1,2" id="路径" node-id="34" stroke="none" target-height="21.033407" target-width="30.903427" target-x="32.51876" target-y="31.994547"></path><path d="M 48.83 44.32 C 48.88 44.74 48.91 45.09 48.90 45.37 C 48.88 46.42 47.90 47.76 47.28 48.01 C 46.70 48.24 44.95 47.46 44.29 47.03 L 44.15 46.93 C 43.71 46.60 43.38 46.50 42.81 46.54 L 43.71 46.05 C 45.06 45.31 46.85 44.46 48.55 44.33 L 48.83 44.32 Z" fill="#dcdee5" fill-rule="evenodd" group-id="1,2" id="路径" node-id="35" stroke="none" target-height="3.9206276" target-width="6.0926437" target-x="42.814514" target-y="44.31978"></path><path d="M 42.61 46.94 C 43.26 46.04 44.26 45.88 44.26 46.08 C 44.25 46.27 44.54 47.67 44.53 48.19 C 44.53 48.72 45.85 49.92 46.08 49.77 C 46.30 49.62 46.35 47.18 46.69 47.24 C 47.02 47.30 48.55 48.56 49.20 48.48 C 49.63 48.42 49.52 48.08 48.85 47.44 C 47.52 46.06 46.95 45.36 47.14 45.34 C 47.42 45.30 49.35 45.40 49.65 45.63 C 49.95 45.86 50.40 45.40 49.73 45.01 C 49.07 44.62 48.39 43.99 47.14 44.32 C 46.62 44.46 46.07 44.80 45.43 45.05 C 44.53 45.40 43.55 45.66 43.13 45.82 C 42.42 46.09 41.95 47.84 42.61 46.94 Z" fill="#a0a0b5" fill-rule="evenodd" group-id="1,2" id="路径-631" node-id="36" stroke="none" target-height="5.928543" target-width="8.450649" target-x="41.95276" target-y="43.992104"></path><path d="M 47.05 43.05 C 46.97 43.22 46.86 43.37 46.74 43.48 C 46.34 43.87 46.67 45.08 46.95 45.16 C 47.18 45.23 47.76 45.83 48.23 46.26 L 48.55 46.57 C 48.77 46.82 49.17 47.14 49.75 47.53 C 49.76 48.25 49.48 48.49 48.89 48.26 C 48.02 47.91 47.28 47.29 46.95 46.84 C 46.62 46.38 46.20 46.19 46.09 46.54 C 45.99 46.88 46.16 47.80 46.19 48.19 C 46.23 48.58 46.18 49.58 45.77 50.08 C 45.48 50.43 39.60 52.15 38.84 52.07 C 38.44 52.03 36.43 51.43 36.04 51.27 C 35.84 51.18 35.28 50.92 35.09 50.48 C 34.94 50.60 34.69 50.78 34.13 50.63 C 33.77 50.54 32.86 49.62 33.22 49.17 L 33.41 48.93 L 33.79 48.76 L 34.44 48.51 C 34.80 48.38 35.13 48.28 35.22 48.28 C 35.52 48.01 35.76 47.23 36.59 47.23 C 36.78 47.23 36.95 47.29 37.10 47.36 C 36.95 47.73 36.24 48.33 36.54 48.52 C 35.75 49.75 36.92 50.37 37.97 50.43 L 39.66 50.45 C 40.39 50.44 41.17 50.40 41.76 50.23 L 42.42 50.04 C 44.01 49.57 45.13 49.08 44.96 48.42 L 44.83 47.90 C 44.65 47.12 44.56 46.39 44.65 46.09 C 44.72 45.85 44.82 45.24 45.14 44.86 L 45.16 44.87 C 45.22 43.58 45.39 42.88 45.67 42.77 L 45.75 42.76 L 45.87 42.76 L 46.09 42.79 L 46.39 42.86 L 46.56 42.90 C 46.71 42.94 46.87 42.99 47.05 43.05 Z" fill="#f5f5f5" fill-rule="evenodd" group-id="1,2" id="路径" node-id="37" stroke="none" target-height="9.394299" target-width="16.905144" target-x="32.855328" target-y="42.76001"></path><path d="M 44.76 45.72 L 45.11 45.18 L 44.80 46.09 C 44.79 46.13 44.77 46.16 44.76 46.18 C 44.67 46.41 45.04 47.42 45.15 47.77 C 45.21 47.96 45.26 48.23 45.30 48.56 L 45.33 48.82 L 45.54 49.15 C 45.64 49.14 45.74 49.03 45.86 48.82 C 46.03 48.51 45.78 46.85 45.77 46.38 C 45.76 45.90 46.04 46.05 46.51 46.08 C 46.97 46.10 47.43 46.87 47.95 47.24 C 48.22 47.44 48.61 47.64 49.10 47.85 L 49.50 48.00 L 49.54 48.25 C 49.40 48.37 49.18 48.37 48.89 48.26 C 48.12 47.95 47.47 47.44 47.09 47.01 L 46.95 46.84 C 46.62 46.38 46.20 46.19 46.09 46.54 C 45.99 46.88 46.16 47.80 46.19 48.19 C 46.23 48.58 46.18 49.58 45.77 50.08 C 45.48 50.43 39.60 52.15 38.84 52.07 C 38.44 52.03 36.43 51.43 36.04 51.27 C 35.84 51.18 35.28 50.92 35.09 50.48 L 35.05 50.51 C 34.91 50.12 34.90 49.76 35.01 49.44 C 35.09 49.99 35.21 50.34 35.38 50.50 C 35.83 50.92 36.38 51.15 36.67 51.25 L 36.98 51.36 C 37.20 51.43 37.50 51.49 37.31 51.11 C 37.07 50.64 36.30 49.96 36.16 49.48 C 36.03 49.01 36.25 48.63 36.46 48.47 L 36.48 48.46 C 36.49 48.48 36.51 48.50 36.54 48.52 C 35.75 49.75 36.92 50.37 37.97 50.43 L 39.66 50.45 C 40.39 50.44 41.17 50.40 41.76 50.23 L 42.42 50.04 L 43.03 49.85 C 44.29 49.43 45.11 48.99 44.96 48.42 L 44.83 47.90 C 44.65 47.12 44.56 46.39 44.65 46.09 L 44.75 45.71 L 44.75 45.71 L 44.76 45.72 Z" fill="#d9d9e2" fill-rule="evenodd" group-id="1,2" id="路径" node-id="38" stroke="none" target-height="6.971653" target-width="14.644909" target-x="34.898315" target-y="45.182655"></path><path d="M 52.97 37.49 C 52.81 37.60 52.00 38.88 51.80 38.88 C 51.59 38.88 51.06 38.57 51.43 37.80 L 51.66 37.27 L 51.66 37.27 L 51.58 37.26 C 51.84 37.26 52.07 37.34 52.26 37.50 L 52.90 36.92 C 53.06 37.07 53.09 37.40 52.97 37.49 Z M 54.08 36.55 C 54.08 36.69 54.45 36.49 55.19 35.96 C 55.24 36.00 55.15 36.20 54.92 36.55 C 54.58 37.07 53.69 37.80 53.39 37.80 C 53.12 37.80 53.21 37.30 53.34 36.97 L 53.39 36.86 C 53.46 36.72 53.58 36.48 53.76 36.15 L 54.84 35.17 L 54.42 35.86 C 54.19 36.24 54.08 36.47 54.08 36.55 Z" fill="#4d4949" fill-rule="evenodd" group-id="1,2" id="形状" node-id="39" stroke="none" target-height="3.7016869" target-width="4.1796227" target-x="51.06122" target-y="35.17374"></path><path d="M 60.92 31.54 C 61.47 32.16 62.89 34.31 63.21 36.34 C 63.39 37.47 63.42 38.64 63.30 39.85 L 63.21 40.58 C 63.11 41.12 62.99 41.61 62.87 42.04 L 61.80 40.97 C 61.93 40.18 61.99 39.27 61.99 38.23 C 61.99 36.67 61.23 34.66 60.54 33.44 C 60.17 32.80 59.70 32.16 59.14 31.54 L 59.56 31.28 C 60.24 30.91 60.46 31.01 60.92 31.54 Z" fill="#f46d6a" fill-rule="evenodd" group-id="1,2" id="路径" node-id="40" stroke="none" target-height="11.1291065" target-width="4.28603" target-x="59.136158" target-y="30.906153"></path><path d="M 61.75 33.22 C 62.41 34.17 62.96 34.75 63.21 36.34 C 63.39 37.47 63.42 38.64 63.30 39.85 L 63.21 40.58 C 63.13 41.02 63.04 41.42 62.94 41.78 C 62.63 41.59 62.25 41.32 61.80 40.97 C 62.04 39.59 62.17 38.40 62.19 37.41 C 62.22 35.92 61.30 33.94 60.90 33.14 C 60.50 32.35 61.17 32.71 61.75 33.22 Z" fill="#da4f4c" fill-rule="evenodd" group-id="1,2" id="路径" node-id="41" stroke="none" target-height="9.430611" target-width="2.9251175" target-x="60.49707" target-y="32.352783"></path><path d="M 59.10 38.83 C 60.80 38.65 61.52 38.95 61.88 39.19 L 62.14 39.36 C 62.30 39.46 62.59 39.78 63.02 40.33 L 63.21 40.58 C 64.82 42.05 66.21 43.18 67.38 43.96 C 69.13 45.14 71.07 45.85 71.62 45.98 C 72.17 46.11 72.47 46.10 72.97 45.98 C 73.47 45.86 73.65 44.84 74.21 43.31 C 74.78 41.77 75.58 41.46 76.13 41.40 C 76.53 41.35 76.98 41.44 77.43 41.63 L 77.43 41.66 L 78.27 42.45 L 78.77 42.94 C 79.21 43.38 79.48 43.68 79.59 43.85 C 79.87 44.28 79.81 44.55 79.91 44.75 L 80.53 45.74 C 80.66 45.95 80.79 46.17 80.91 46.38 C 80.73 46.72 80.59 47.26 80.48 48.00 C 80.24 49.77 80.93 51.56 81.28 52.32 C 81.44 52.66 81.79 53.00 82.35 53.33 C 82.39 53.72 82.37 54.02 82.47 54.23 C 82.59 54.49 82.79 56.49 82.82 57.54 L 82.82 61.08 L 82.36 61.80 C 82.03 61.90 81.86 61.32 81.86 60.08 C 81.86 57.38 80.58 55.82 79.01 54.58 C 77.54 53.42 74.22 51.72 73.09 51.24 L 72.40 50.98 C 70.98 50.45 68.27 49.22 67.59 50.63 C 66.95 51.94 68.39 53.74 69.48 54.94 L 70.47 56.00 C 71.08 56.67 72.02 57.77 73.30 59.29 L 74.03 60.17 L 72.83 61.61 C 72.39 61.75 71.98 61.98 71.62 62.30 L 71.32 62.58 C 70.84 62.22 70.34 61.82 69.83 61.39 L 68.73 60.46 C 66.33 58.48 59.13 52.84 56.51 52.84 C 53.63 52.84 55.14 55.67 55.85 57.26 C 56.57 58.85 59.31 62.38 59.85 63.22 C 60.13 63.64 57.84 64.51 55.48 65.06 C 53.97 64.53 52.72 64.84 50.55 65.49 L 49.53 65.79 C 49.05 65.79 48.58 65.76 48.16 65.70 C 43.99 65.14 39.84 62.26 39.27 61.80 C 38.70 61.35 34.83 59.50 33.03 58.67 C 31.22 57.84 27.80 56.75 26.44 56.75 C 25.08 56.75 24.49 56.85 24.24 58.01 C 23.99 59.17 25.95 62.61 26.96 63.73 L 28.84 65.75 C 29.19 66.14 29.40 66.40 29.30 66.40 L 20.50 65.91 C 19.91 63.80 19.52 61.96 19.31 60.38 C 19.00 58.02 18.93 56.44 19.85 55.47 C 20.78 54.50 23.10 54.71 24.32 54.71 C 25.54 54.71 25.50 54.32 26.58 54.23 C 27.65 54.15 29.43 54.32 32.34 54.02 C 35.11 53.73 36.25 52.48 37.18 50.14 L 37.33 49.77 C 37.79 48.52 38.27 47.80 38.71 47.34 C 39.26 46.93 40.14 46.42 40.83 46.21 C 41.62 46.17 42.78 46.49 44.19 47.70 L 44.52 48.00 C 46.74 50.08 47.72 49.68 48.63 48.90 C 49.54 48.12 49.29 44.39 49.29 43.96 C 49.29 43.71 49.54 43.42 50.03 43.11 L 50.25 42.97 L 49.92 42.97 C 49.72 42.97 49.59 42.51 50.13 42.18 C 50.45 41.98 51.14 41.63 51.86 41.28 L 53.25 40.58 C 54.30 40.05 56.86 39.07 59.10 38.83 Z" fill="#8b8b9c" fill-rule="evenodd" group-id="1,2" id="路径" node-id="42" stroke="none" target-height="27.756676" target-width="63.88739" target-x="18.932007" target-y="38.645546"></path><path d="M 59.10 38.83 C 60.80 38.65 61.52 38.95 61.88 39.19 L 62.14 39.36 C 62.30 39.46 62.59 39.78 63.02 40.33 L 63.21 40.58 C 64.82 42.05 66.21 43.18 67.38 43.96 C 69.13 45.14 71.07 45.85 71.62 45.98 C 72.17 46.11 72.47 46.10 72.97 45.98 C 73.47 45.86 73.65 44.84 74.21 43.31 C 74.78 41.77 75.58 41.46 76.13 41.40 C 76.53 41.35 76.98 41.44 77.43 41.63 L 77.43 41.66 L 78.27 42.45 L 78.77 42.94 C 79.21 43.38 79.48 43.68 79.59 43.85 C 79.87 44.28 79.81 44.55 79.91 44.75 L 80.53 45.74 C 80.66 45.95 80.79 46.17 80.91 46.38 C 80.73 46.72 80.59 47.26 80.48 48.00 C 80.24 49.77 80.93 51.56 81.28 52.32 C 81.44 52.66 81.79 53.00 82.35 53.33 C 82.39 53.72 82.37 54.02 82.47 54.23 C 82.59 54.49 82.79 56.49 82.82 57.54 L 82.82 61.08 L 82.49 61.45 C 82.16 61.55 82.00 60.97 82.00 59.73 C 82.00 57.03 80.71 55.47 79.15 54.23 C 77.67 53.07 74.36 51.37 73.23 50.89 L 72.54 50.63 C 71.12 50.10 67.89 49.01 67.21 50.42 C 66.57 51.74 68.00 53.54 69.10 54.74 L 70.09 55.79 C 70.70 56.47 71.64 57.57 72.92 59.09 L 73.65 59.97 L 72.97 61.27 C 72.52 61.40 72.12 61.63 71.75 61.95 L 71.45 62.23 C 70.98 61.87 70.48 61.47 69.96 61.04 L 68.87 60.11 C 66.46 58.13 59.26 52.49 56.65 52.49 C 53.76 52.49 54.76 55.47 55.47 57.06 C 56.19 58.65 58.93 62.18 59.47 63.02 C 59.74 63.44 57.98 64.16 55.62 64.71 C 54.10 64.18 52.86 64.49 50.69 65.14 L 49.66 65.44 C 49.18 65.44 48.72 65.41 48.29 65.35 C 44.13 64.80 39.98 61.91 39.41 61.45 C 38.84 61.00 34.96 59.15 33.16 58.32 C 31.36 57.49 27.94 56.40 26.58 56.40 C 25.22 56.40 24.11 56.65 23.86 57.81 C 23.61 58.97 25.57 62.41 26.58 63.52 L 28.46 65.55 C 28.81 65.94 29.02 66.20 28.92 66.20 L 20.50 65.91 C 19.91 63.80 19.52 61.96 19.31 60.38 C 19.00 58.02 18.93 56.44 19.85 55.47 C 20.78 54.50 23.10 54.71 24.32 54.71 C 25.54 54.71 25.50 54.32 26.58 54.23 C 27.65 54.15 29.43 54.32 32.34 54.02 C 35.11 53.73 36.25 52.48 37.18 50.14 L 37.33 49.77 C 37.79 48.52 38.27 47.80 38.71 47.34 C 39.26 46.93 40.14 46.42 40.83 46.21 C 41.62 46.17 42.78 46.49 44.19 47.70 L 44.52 48.00 C 46.74 50.08 47.72 49.68 48.63 48.90 C 49.54 48.12 49.29 44.39 49.29 43.96 C 49.29 43.71 49.54 43.42 50.03 43.11 L 50.25 42.97 L 49.92 42.97 C 49.72 42.97 49.59 42.51 50.13 42.18 C 50.45 41.98 51.14 41.63 51.86 41.28 L 53.25 40.58 C 54.30 40.05 56.86 39.07 59.10 38.83 Z" fill="#f1f1f1" fill-rule="evenodd" group-id="1,2" id="路径" node-id="43" stroke="none" target-height="27.555626" target-width="63.88739" target-x="18.932007" target-y="38.645546"></path><path d="M 77.43 41.63 L 77.43 41.66 L 78.27 42.45 L 78.77 42.94 L 79.15 43.34 C 79.37 43.57 79.52 43.74 79.59 43.85 C 79.87 44.28 79.81 44.55 79.91 44.75 L 80.53 45.74 C 80.66 45.95 80.79 46.17 80.91 46.38 C 80.73 46.72 80.59 47.26 80.48 48.00 C 80.24 49.77 80.93 51.56 81.28 52.32 C 81.44 52.66 81.79 53.00 82.35 53.33 C 82.38 53.64 82.37 53.90 82.42 54.10 L 82.47 54.23 C 82.59 54.49 82.79 56.49 82.82 57.54 L 82.82 61.08 L 82.49 61.45 C 82.16 61.55 82.00 60.97 82.00 59.73 C 82.00 57.03 80.71 55.47 79.15 54.23 C 77.67 53.07 74.36 51.37 73.23 50.89 L 72.54 50.63 C 71.12 50.10 67.89 49.01 67.21 50.42 C 66.57 51.74 68.00 53.54 69.10 54.74 L 70.09 55.79 L 70.98 56.81 C 71.42 57.31 71.94 57.93 72.55 58.65 L 73.65 59.97 L 72.97 61.27 C 72.52 61.40 72.12 61.63 71.75 61.95 L 71.45 62.23 C 70.98 61.87 70.48 61.47 69.96 61.04 L 68.87 60.11 C 66.46 58.13 59.26 52.49 56.65 52.49 C 53.76 52.49 54.76 55.47 55.47 57.06 C 56.19 58.65 58.93 62.18 59.47 63.02 C 59.74 63.44 57.98 64.16 55.62 64.71 C 54.10 64.18 52.86 64.49 50.69 65.14 L 49.66 65.44 C 49.18 65.44 48.72 65.41 48.29 65.35 C 44.13 64.80 39.98 61.91 39.41 61.45 C 38.84 61.00 34.96 59.15 33.16 58.32 C 31.36 57.49 27.94 56.40 26.58 56.40 C 25.99 56.40 25.45 56.45 25.00 56.60 C 26.08 55.98 28.68 56.15 32.52 56.48 C 37.80 56.94 38.79 58.18 42.08 58.92 C 45.38 59.65 46.59 55.06 50.96 52.49 C 55.33 49.92 58.18 51.28 59.78 50.03 C 61.38 48.78 62.21 44.25 66.32 45.93 C 70.43 47.61 75.05 49.80 76.44 49.22 C 77.36 48.82 76.70 47.42 74.45 45.01 C 74.26 44.66 74.10 44.31 73.98 43.95 L 74.21 43.31 C 74.78 41.77 75.58 41.46 76.13 41.40 C 76.53 41.35 76.98 41.44 77.43 41.63 Z" fill="#e7e7e9" fill-rule="evenodd" group-id="1,2" id="路径" node-id="44" stroke="none" target-height="24.091854" target-width="57.819595" target-x="24.999804" target-y="41.35162"></path><path d="M 61.88 39.19 L 62.14 39.36 C 62.30 39.46 62.59 39.78 63.02 40.33 L 63.21 40.58 C 64.82 42.05 66.21 43.18 67.38 43.96 C 69.13 45.14 71.07 45.85 71.62 45.98 C 72.17 46.11 72.47 46.10 72.97 45.98 C 73.47 45.86 73.65 44.84 74.21 43.31 C 74.78 41.77 75.58 41.46 76.13 41.40 C 76.53 41.35 76.98 41.44 77.43 41.63 L 77.43 41.66 L 78.27 42.45 L 78.77 42.94 L 79.15 43.34 C 79.37 43.57 79.52 43.74 79.59 43.85 C 79.81 44.19 79.82 44.43 79.86 44.61 L 78.55 43.27 C 77.87 42.59 77.15 41.94 76.80 42.04 L 76.63 42.08 C 76.30 42.19 76.05 42.37 75.77 43.57 L 75.49 44.91 C 75.31 45.74 75.08 46.41 74.50 46.73 C 73.62 47.22 72.21 47.48 70.88 46.96 C 69.55 46.44 67.47 45.19 65.46 43.67 C 63.46 42.15 61.91 40.33 61.67 40.08 C 61.43 39.84 59.63 39.47 58.60 39.78 L 58.06 39.94 C 56.76 40.35 54.26 41.20 53.28 41.67 L 53.06 41.78 C 52.17 42.29 50.66 42.79 50.45 42.88 L 50.24 42.97 L 50.24 42.97 L 49.92 42.97 C 49.72 42.97 49.59 42.51 50.13 42.18 C 50.45 41.98 51.14 41.63 51.86 41.28 L 53.25 40.58 C 54.30 40.05 56.86 39.07 59.10 38.83 C 60.80 38.65 61.52 38.95 61.88 39.19 Z" fill="#f6f6f9" fill-rule="evenodd" group-id="1,2" id="路径" node-id="45" stroke="none" target-height="8.833458" target-width="30.268738" target-x="49.59314" target-y="38.645546"></path><path d="M 56.68 39.91 C 59.08 39.25 60.46 39.66 61.31 39.75 C 62.17 39.84 62.19 40.41 62.46 40.85 C 62.72 41.28 64.11 42.30 66.09 43.78 C 68.07 45.26 69.95 46.23 71.87 46.65 C 73.80 47.06 74.65 46.05 74.80 45.31 L 74.96 44.46 C 75.12 43.68 75.37 42.75 75.86 42.30 C 76.56 41.67 77.11 42.06 77.69 42.36 C 78.04 42.53 78.67 43.13 79.58 44.14 L 79.81 44.39 L 79.86 44.66 L 78.55 43.32 L 78.14 42.92 C 77.60 42.41 77.17 42.09 76.89 42.17 L 76.72 42.22 C 76.39 42.32 76.14 42.50 75.87 43.71 L 75.59 45.04 C 75.40 45.87 75.12 46.57 74.54 46.89 C 73.67 47.37 72.12 47.61 70.79 47.09 C 69.46 46.57 67.38 45.33 65.37 43.81 C 63.37 42.29 61.82 40.46 61.58 40.22 C 61.34 39.97 59.54 39.61 58.51 39.91 L 57.97 40.08 C 56.67 40.49 54.17 41.33 53.19 41.80 L 52.97 41.91 C 52.08 42.42 50.57 42.92 50.36 43.01 L 50.15 43.10 L 49.83 43.10 C 49.80 43.10 49.76 43.09 49.73 43.06 C 49.85 42.94 50.07 42.74 50.30 42.63 L 50.47 42.57 C 50.83 42.49 51.01 42.25 51.21 42.17 L 52.74 41.61 C 53.05 41.49 52.81 41.31 53.14 40.97 C 53.47 40.63 54.28 40.57 56.68 39.91 Z" fill="#9292a5" fill-rule="evenodd" group-id="1,2" id="路径" node-id="46" stroke="none" target-height="8.360474" target-width="30.127945" target-x="49.7343" target-y="39.25183"></path><path d="M 56.77 39.78 C 59.17 39.12 60.55 39.53 61.40 39.62 C 62.26 39.70 62.28 40.28 62.55 40.71 C 62.81 41.15 64.20 42.17 66.18 43.65 C 68.16 45.13 70.04 46.10 71.96 46.51 C 73.89 46.93 74.57 45.89 74.72 45.16 L 74.88 44.30 C 75.04 43.52 75.29 42.59 75.78 42.15 C 76.48 41.52 77.11 42.02 77.69 42.31 C 78.04 42.49 78.67 43.08 79.58 44.09 L 79.81 44.34 L 79.86 44.61 L 79.86 44.61 L 78.55 43.27 L 78.14 42.87 C 77.60 42.36 77.08 41.96 76.80 42.04 L 76.63 42.08 C 76.30 42.19 76.05 42.37 75.77 43.57 L 75.49 44.91 C 75.31 45.74 75.08 46.41 74.50 46.73 C 73.62 47.22 72.21 47.48 70.88 46.96 C 69.55 46.44 67.47 45.19 65.46 43.67 C 63.46 42.15 61.91 40.33 61.67 40.08 C 61.43 39.84 59.63 39.47 58.60 39.78 L 58.06 39.94 C 56.76 40.35 54.26 41.20 53.28 41.67 L 53.06 41.78 C 52.17 42.29 50.66 42.79 50.45 42.88 L 50.24 42.97 L 49.92 42.97 C 49.89 42.97 49.85 42.95 49.82 42.93 C 49.94 42.81 50.16 42.60 50.39 42.50 L 50.56 42.44 C 50.92 42.36 51.10 42.12 51.30 42.04 L 52.83 41.48 L 52.83 41.48 C 53.14 41.35 52.90 41.18 53.23 40.84 C 53.56 40.49 54.38 40.44 56.77 39.78 Z" fill="#e3e2ec" fill-rule="evenodd" group-id="1,2" id="路径" node-id="47" stroke="none" target-height="8.360474" target-width="30.036942" target-x="49.824936" target-y="39.11853"></path><path d="M 34.74 58.97 C 39.13 59.97 42.22 60.90 44.01 61.76 C 45.79 62.62 50.22 62.12 57.28 60.26 C 54.22 63.20 51.80 64.78 50.02 65.01 C 48.25 65.23 43.16 63.22 34.74 58.97 Z" fill="#d5d5da" fill-rule="evenodd" group-id="1,2" id="路径-630" node-id="48" stroke="none" target-height="6.269203" target-width="22.548717" target-x="34.735016" target-y="58.96514"></path><path d="M 55.21 40.04 C 56.59 39.51 60.70 39.14 61.26 39.31 C 61.81 39.47 62.28 41.43 62.70 42.86 C 63.12 44.28 63.24 48.08 61.40 48.19 C 59.57 48.30 58.30 46.45 57.62 45.53 C 56.99 44.67 56.72 45.52 55.99 46.16 L 55.84 46.29 C 55.00 46.93 53.90 48.31 53.02 48.17 C 52.63 48.11 51.40 47.28 49.32 45.68 L 49.32 45.15 C 49.32 44.56 49.29 44.10 49.29 43.96 C 49.29 43.71 49.54 43.42 50.03 43.11 L 50.25 42.97 L 49.92 42.97 C 49.87 42.97 49.82 42.94 49.79 42.88 L 50.98 42.21 C 52.38 41.43 54.26 40.41 55.21 40.04 Z" fill="#ebebf2" fill-rule="evenodd" group-id="1,2" id="路径" node-id="49" stroke="none" target-height="9.16748" target-width="13.951172" target-x="49.292236" target-y="39.141846"></path><path d="M 56.95 40.05 C 59.06 39.96 54.40 41.49 54.76 41.74 L 54.82 41.76 C 55.26 41.85 56.08 43.00 57.27 45.20 C 56.86 45.01 56.57 45.65 55.99 46.16 L 55.84 46.29 C 55.00 46.93 53.90 48.31 53.02 48.17 C 52.63 48.11 51.40 47.28 49.32 45.68 L 49.32 45.15 L 49.29 43.96 L 49.29 43.96 C 49.29 43.71 49.54 43.42 50.03 43.11 L 50.25 42.97 L 49.92 42.97 C 49.87 42.97 49.82 42.94 49.79 42.88 L 50.98 42.21 C 51.24 42.06 51.52 41.91 51.80 41.75 C 54.15 40.67 55.86 40.10 56.95 40.05 Z" fill="#d8d7e1" fill-rule="evenodd" group-id="1,2" id="路径" node-id="50" stroke="none" target-height="8.345299" target-width="9.76403" target-x="49.292236" target-y="39.964027"></path><path d="M 50.08 44.25 C 51.19 43.39 51.97 42.96 52.41 42.97 C 52.72 43.17 53.28 43.74 53.56 44.16 C 54.54 45.64 54.38 46.45 52.96 46.46 C 52.02 46.46 50.95 46.04 49.75 45.18 L 50.08 44.25 Z" fill="#e9e9e9" fill-rule="evenodd" group-id="1,2" id="路径-634" node-id="51" stroke="none" target-height="3.498394" target-width="4.7975388" target-x="49.74699" target-y="42.963154"></path><path d="M 54.63 45.53 C 54.79 45.75 55.08 46.61 54.76 47.08 C 54.43 47.55 54.04 47.86 53.36 47.88 C 52.88 47.90 52.41 47.58 52.15 47.18 C 52.05 47.02 50.03 45.90 50.01 45.74 C 49.98 45.52 49.99 45.37 50.05 45.27 C 51.38 45.94 52.17 46.27 52.43 46.25 C 52.88 46.23 53.60 45.63 53.36 44.32 C 53.31 44.05 53.00 43.56 52.43 42.86 L 52.62 42.72 C 53.16 43.28 53.51 43.74 53.64 44.08 C 53.86 44.61 53.61 45.01 53.70 45.02 C 54.19 45.09 54.51 45.37 54.63 45.53 Z" fill="#b7b7c7" fill-rule="evenodd" group-id="1,2" id="路径-621" node-id="52" stroke="none" target-height="5.180317" target-width="5.106365" target-x="49.97622" target-y="42.71582"></path><path d="M 54.43 45.93 C 54.50 46.28 54.37 46.93 53.70 47.12 C 53.04 47.31 52.38 46.96 52.30 46.38 C 52.21 45.79 52.49 45.42 53.18 45.23 C 53.87 45.04 54.36 45.59 54.43 45.93 Z" fill="#949597" fill-rule="evenodd" group-id="1,2" id="路径-621" node-id="53" stroke="none" target-height="2.270874" target-width="2.291195" target-x="52.211063" target-y="45.04132"></path><path d="M 42.67 48.07 C 42.78 49.24 42.65 50.00 42.28 50.37 C 41.85 50.81 41.91 51.24 41.73 51.45 C 41.47 51.75 40.52 52.16 40.18 51.93 C 40.02 51.82 39.87 51.59 39.78 51.34 C 39.75 51.27 39.29 51.16 38.50 50.68 C 38.38 50.61 38.17 50.45 37.88 50.19 C 37.91 49.91 37.96 49.78 38.03 49.80 C 39.00 50.07 39.77 50.64 39.82 50.59 C 40.10 50.23 41.09 49.78 41.52 49.78 C 41.69 49.78 42.01 49.19 42.49 48.01 L 42.67 48.07 Z" fill="#bbbccf" fill-rule="evenodd" group-id="1,2" id="路径-624" node-id="54" stroke="none" target-height="4.155514" target-width="4.901306" target-x="37.8761" target-y="48.00806"></path><path d="M 40.92 51.34 C 41.26 51.22 41.71 50.49 41.52 50.26 C 41.32 50.03 41.04 50.11 40.58 50.33 C 40.11 50.55 39.89 51.01 40.11 51.24 C 40.32 51.47 40.58 51.45 40.92 51.34 Z" fill="#949597" fill-rule="evenodd" group-id="1,2" id="路径-625" node-id="55" stroke="none" target-height="1.4449768" target-width="1.8169174" target-x="39.889862" target-y="50.02643"></path><path d="M 60.80 48.15 C 60.38 48.03 59.19 47.02 58.34 46.09 C 57.50 45.15 55.69 43.42 55.62 43.01 C 55.56 42.59 53.95 41.20 54.97 41.20 C 55.98 41.19 58.01 41.67 58.52 42.04 C 59.04 42.40 61.38 46.85 61.40 47.32 C 61.43 47.80 61.21 48.28 60.80 48.15 Z" fill="#9292a5" fill-rule="evenodd" group-id="1,2" id="路径-620" node-id="56" stroke="none" target-height="7.0841217" target-width="7.476074" target-x="53.949707" target-y="41.19458"></path><path d="M 62.86 42.70 C 62.79 42.32 62.60 41.71 62.40 41.17 C 62.36 41.08 62.10 41.00 62.08 40.91 C 61.99 40.43 61.95 40.13 61.85 40.06 C 61.61 39.88 60.71 39.19 59.55 39.32 C 58.39 39.45 55.51 40.15 55.35 40.38 C 55.18 40.62 56.22 41.61 57.04 42.25 C 57.85 42.89 58.49 43.43 58.58 44.25 C 58.66 45.07 58.98 46.71 59.48 47.35 C 59.99 47.98 60.58 48.30 61.67 48.15 C 62.76 48.01 63.18 46.86 63.20 46.52 C 63.22 46.18 63.00 43.49 62.86 42.70 Z" fill="#ebebf2" fill-rule="evenodd" group-id="1,2" id="路径-617" node-id="57" stroke="none" target-height="9.1080475" target-width="8.039791" target-x="55.182865" target-y="39.19348"></path><path d="M 61.20 41.04 C 62.76 41.57 62.36 42.01 63.00 42.99 C 63.46 43.70 63.25 45.93 63.14 46.79 C 63.10 46.94 63.02 47.12 62.91 47.30 C 62.83 47.37 62.74 47.41 62.64 47.44 C 61.51 47.72 60.01 47.71 59.59 45.97 C 59.17 44.23 59.14 42.57 57.85 41.99 L 57.11 41.14 L 57.06 41.04 C 56.72 40.42 60.20 40.70 61.20 41.04 Z" fill="#dadae4" fill-rule="evenodd" group-id="1,2" id="路径" node-id="58" stroke="none" target-height="7.3066635" target-width="6.748329" target-x="56.71646" target-y="40.41504"></path><path d="M 57.03 40.97 C 59.09 41.34 60.57 41.82 61.48 42.40 C 62.11 42.80 62.61 43.20 62.98 43.60 L 63.09 44.79 C 63.16 45.60 63.21 46.35 63.20 46.52 C 63.20 46.61 63.16 46.76 63.09 46.93 L 62.79 47.24 L 62.79 47.24 C 61.75 47.19 61.07 46.96 60.73 46.57 C 60.23 45.99 59.88 43.78 59.14 43.33 C 58.74 43.09 58.35 42.79 57.94 42.44 L 57.77 42.11 L 57.60 41.80 C 57.47 41.57 57.29 41.33 57.10 41.09 L 57.03 40.97 Z" fill="#bcbcc8" fill-rule="evenodd" group-id="1,2" id="路径" node-id="59" stroke="none" target-height="6.277302" target-width="6.1795273" target-x="57.03221" target-y="40.966248"></path><path d="M 59.95 43.48 C 60.52 43.94 60.93 44.41 61.18 44.89 C 61.55 45.61 62.11 46.19 62.63 46.29 C 63.16 46.39 63.59 44.03 63.06 43.76 C 62.52 43.49 59.91 42.26 59.76 42.75 C 59.67 43.08 59.73 43.33 59.95 43.48 Z" fill="#a0a0b5" fill-rule="evenodd" group-id="1,2" id="路径-618" node-id="60" stroke="none" target-height="4.1260986" target-width="3.9257545" target-x="59.66879" target-y="42.259216"></path><path d="M 29.93 56.48 C 33.45 57.35 37.62 59.54 39.43 60.60 C 40.48 61.22 41.63 62.38 42.68 63.46 L 41.97 63.08 L 41.33 62.72 C 40.32 62.12 39.62 61.62 39.41 61.45 C 38.84 61.00 34.96 59.15 33.16 58.32 C 31.36 57.49 27.94 56.40 26.58 56.40 C 25.22 56.40 24.11 56.65 23.86 57.81 C 23.61 58.97 25.57 62.41 26.58 63.52 L 28.46 65.55 L 28.69 65.81 C 28.89 66.05 28.99 66.20 28.92 66.20 L 26.96 66.14 C 25.93 64.69 24.96 63.16 24.04 61.55 C 22.44 58.75 22.84 57.32 23.57 56.48 C 24.30 55.64 26.42 55.61 29.93 56.48 Z M 63.60 42.31 C 64.11 44.95 64.03 46.85 63.37 48.00 C 62.26 49.96 59.89 49.00 58.81 48.00 C 58.61 47.81 58.34 47.51 58.05 47.14 C 57.44 48.96 56.30 50.14 54.63 50.64 C 52.83 51.18 51.18 50.69 49.72 49.19 C 49.42 49.79 48.97 50.26 48.29 50.59 C 47.57 50.94 46.64 50.63 45.68 50.10 C 45.15 53.05 43.81 54.79 41.66 55.21 C 39.57 55.62 37.83 54.91 36.52 53.12 C 36.06 53.56 35.51 53.94 34.85 54.28 C 33.02 55.21 26.63 54.96 25.93 54.96 L 24.60 54.95 L 23.63 54.97 C 22.78 54.99 21.89 55.05 21.25 55.19 C 19.86 55.48 19.98 57.74 20.31 59.86 L 20.43 60.52 C 20.67 61.69 21.09 63.28 21.70 65.27 L 21.91 65.95 L 20.50 65.91 C 19.91 63.80 19.52 61.96 19.31 60.38 C 19.00 58.02 18.93 56.44 19.85 55.47 C 20.78 54.50 23.10 54.71 24.32 54.71 C 25.54 54.71 25.50 54.32 26.58 54.23 C 27.65 54.15 29.43 54.32 32.34 54.02 C 35.11 53.73 36.25 52.48 37.18 50.14 L 37.33 49.77 C 37.79 48.52 38.27 47.80 38.71 47.34 C 39.26 46.93 40.14 46.42 40.83 46.21 C 41.62 46.17 42.78 46.49 44.19 47.70 L 44.52 48.00 C 46.74 50.08 47.72 49.68 48.63 48.90 C 49.54 48.12 49.29 44.39 49.29 43.96 C 49.29 43.71 49.54 43.42 50.03 43.11 L 50.10 43.06 L 50.73 42.84 L 51.25 42.63 C 51.41 42.57 51.54 42.51 51.66 42.45 L 51.82 42.37 C 52.32 42.10 53.45 41.63 55.21 40.97 L 56.49 42.88 L 57.44 44.25 C 58.72 46.06 59.61 47.15 60.10 47.53 C 61.22 48.38 62.32 47.43 62.51 47.24 C 62.63 47.12 62.73 46.40 62.70 45.73 C 62.68 45.07 62.28 42.01 62.15 41.22 C 62.13 41.14 62.11 41.05 62.09 40.96 C 62.04 40.75 62.35 41.11 62.78 41.52 C 63.10 41.83 63.40 42.16 63.60 42.31 Z M 60.10 52.49 C 61.57 53.25 66.79 57.29 68.73 58.81 L 69.30 59.27 C 69.93 59.77 70.83 60.59 72.01 61.74 L 71.75 61.95 L 71.45 62.23 C 70.98 61.87 70.48 61.47 69.96 61.04 L 68.87 60.11 C 66.46 58.13 59.26 52.49 56.65 52.49 C 53.76 52.49 54.76 55.47 55.47 57.06 C 56.19 58.65 58.93 62.18 59.47 63.02 C 59.61 63.23 59.22 63.53 58.48 63.84 C 57.23 62.42 56.17 60.89 55.32 59.27 L 54.94 58.53 C 53.61 55.87 52.92 53.60 54.42 52.31 C 56.05 50.91 58.45 51.62 60.10 52.49 Z M 71.20 49.15 C 73.79 49.98 77.79 52.12 78.68 52.77 C 79.57 53.42 80.88 54.55 81.50 55.73 C 82.06 56.81 82.24 58.22 82.27 58.79 L 82.27 61.39 C 82.09 61.21 82.00 60.65 82.00 59.73 C 82.00 57.03 80.71 55.47 79.15 54.23 C 77.67 53.07 74.36 51.37 73.23 50.89 L 72.54 50.63 C 71.12 50.10 67.89 49.01 67.21 50.42 C 66.57 51.74 68.00 53.54 69.10 54.74 L 70.09 55.79 L 70.98 56.81 L 72.55 58.65 L 73.65 59.97 L 73.24 60.74 L 69.00 56.18 C 68.30 55.42 67.77 54.84 67.42 54.44 L 67.27 54.28 C 66.01 52.82 65.29 51.38 66.02 49.96 C 66.75 48.55 68.60 48.33 71.20 49.15 Z M 38.49 49.68 L 38.39 49.96 C 38.07 50.91 37.70 51.69 37.21 52.35 L 37.11 52.20 C 38.23 53.93 39.65 54.59 41.47 54.23 C 43.23 53.88 44.34 52.36 44.76 49.54 C 43.95 49.00 43.16 48.40 42.49 48.00 C 40.86 47.03 39.23 47.80 38.49 49.68 Z M 50.91 43.63 L 50.70 43.74 C 50.44 43.89 50.27 44.14 50.24 45.54 L 50.24 46.59 C 50.23 47.13 50.18 47.64 50.09 48.10 L 50.02 48.03 C 51.35 49.63 52.76 50.16 54.34 49.68 C 55.86 49.23 56.84 48.08 57.28 46.17 L 56.61 45.26 C 55.63 43.92 54.71 42.60 54.52 42.37 C 54.21 41.99 51.70 43.22 50.91 43.63 Z" fill="#dcdbe3" fill-rule="evenodd" group-id="1,2" id="形状" node-id="61" stroke="none" target-height="25.446999" target-width="63.3384" target-x="18.932007" target-y="40.754173"></path><path d="M 62.48 41.23 L 62.64 41.74 C 63.31 43.87 63.65 45.49 63.65 46.58 C 63.66 46.97 63.62 47.34 63.54 47.67 C 63.49 47.78 63.43 47.90 63.37 48.00 C 62.26 49.96 59.89 49.00 58.81 48.00 C 58.61 47.81 58.34 47.51 58.05 47.14 L 58.00 47.27 L 57.28 46.18 L 57.28 46.17 L 57.22 46.09 L 56.98 45.72 L 56.96 45.73 L 55.80 44.14 C 55.17 43.26 54.66 42.53 54.52 42.37 C 54.21 41.99 51.70 43.22 50.91 43.63 L 50.70 43.74 C 50.44 43.89 50.27 44.14 50.24 45.54 L 50.24 46.59 L 50.23 46.87 C 49.96 46.47 49.67 46.08 49.32 45.87 L 49.32 45.01 C 49.31 44.49 49.29 44.09 49.29 43.96 C 49.29 43.71 49.54 43.42 50.03 43.11 L 50.10 43.06 L 50.73 42.84 L 51.25 42.63 C 51.41 42.57 51.54 42.51 51.66 42.45 L 51.82 42.37 C 52.32 42.10 53.45 41.63 55.21 40.97 L 56.49 42.88 L 57.44 44.25 L 58.01 45.03 C 58.99 46.37 59.69 47.21 60.10 47.53 C 61.22 48.38 62.32 47.43 62.51 47.24 C 62.63 47.12 62.73 46.40 62.70 45.73 C 62.68 45.07 62.28 42.01 62.15 41.22 L 62.09 40.96 L 62.09 40.96 C 62.06 40.81 62.21 40.97 62.48 41.23 Z" fill="#c2c1ca" fill-rule="evenodd" group-id="1,2" id="路径" node-id="62" stroke="none" target-height="9.154648" target-width="14.36327" target-x="49.292236" target-y="40.806046"></path><path d="M 29.93 56.48 C 30.31 56.57 30.69 56.68 31.08 56.80 C 30.35 56.79 29.63 56.81 28.92 56.83 C 27.97 56.57 27.11 56.40 26.58 56.40 C 25.22 56.40 24.11 56.65 23.86 57.81 C 23.61 58.97 25.57 62.41 26.58 63.52 L 27.61 64.63 C 27.55 65.05 27.46 65.48 27.32 65.94 L 27.24 66.14 L 26.96 66.14 C 25.93 64.69 24.96 63.16 24.04 61.55 C 22.44 58.75 22.84 57.32 23.57 56.48 C 24.30 55.64 26.42 55.61 29.93 56.48 Z M 44.19 47.70 L 44.52 48.00 C 46.74 50.08 47.72 49.68 48.63 48.90 C 49.04 48.55 49.21 47.62 49.28 46.65 C 49.58 48.09 49.21 49.43 48.09 50.67 L 47.83 50.72 C 47.19 50.81 46.45 50.53 45.68 50.10 C 45.15 53.05 43.81 54.79 41.66 55.21 C 39.57 55.62 37.83 54.91 36.52 53.12 C 36.06 53.56 35.51 53.94 34.85 54.28 C 33.02 55.21 26.63 54.96 25.93 54.96 L 24.60 54.95 L 23.63 54.97 C 22.78 54.99 21.89 55.05 21.25 55.19 C 19.86 55.48 19.98 57.74 20.31 59.86 L 20.43 60.52 C 20.67 61.69 21.09 63.28 21.70 65.27 L 21.91 65.95 L 20.50 65.91 C 19.91 63.80 19.52 61.96 19.31 60.38 C 19.00 58.02 18.93 56.44 19.85 55.47 C 20.78 54.50 23.10 54.71 24.32 54.71 C 25.54 54.71 25.50 54.32 26.58 54.23 C 27.65 54.15 29.43 54.32 32.34 54.02 C 35.11 53.73 36.25 52.48 37.18 50.14 L 37.33 49.77 C 37.79 48.52 38.27 47.80 38.71 47.34 C 39.26 46.93 40.14 46.42 40.83 46.21 C 41.62 46.17 42.78 46.49 44.19 47.70 Z M 38.49 49.68 L 38.39 49.96 C 38.07 50.91 37.70 51.69 37.21 52.35 L 37.32 52.51 C 38.41 54.01 39.76 54.57 41.47 54.23 C 43.23 53.88 44.34 52.36 44.76 49.54 C 43.95 49.00 43.16 48.40 42.49 48.00 C 40.86 47.03 39.23 47.80 38.49 49.68 Z" fill="#e5e5ee" fill-rule="evenodd" group-id="1,2" id="形状" node-id="63" stroke="none" target-height="19.976074" target-width="30.646503" target-x="18.932007" target-y="46.168137"></path><path d="M 51.73 52.56 C 51.73 52.14 51.34 51.72 50.54 52.14 C 49.73 52.56 46.63 53.67 45.01 57.75 C 43.38 61.84 46.70 64.23 49.24 64.35 C 51.78 64.47 54.84 63.28 59.41 61.18 C 63.99 59.09 74.08 54.14 75.53 53.38 C 76.98 52.62 79.19 50.89 79.37 50.57 C 79.55 50.24 79.08 48.69 78.75 48.69 C 78.43 48.69 78.26 48.68 77.19 49.18 C 76.12 49.68 73.28 50.84 66.77 52.97 C 60.26 55.10 55.05 56.49 53.78 56.76 C 52.51 57.04 51.22 56.50 51.38 55.14 C 51.54 53.78 51.73 52.98 51.73 52.56 Z" fill="#982732" fill-rule="evenodd" group-id="1,2" id="路径-611" node-id="64" stroke="none" target-height="15.7907715" target-width="36.174377" target-x="43.37964" target-y="48.677124"></path><path d="M 51.65 52.91 C 51.65 52.49 51.26 52.07 50.46 52.49 C 49.65 52.91 46.76 54.11 45.33 57.91 C 43.89 61.70 46.81 63.70 49.30 63.99 C 51.78 64.27 54.89 62.92 59.47 60.82 C 64.04 58.73 74.21 53.84 75.66 53.07 C 77.12 52.31 79.33 50.59 79.51 50.26 C 79.69 49.93 79.16 48.94 78.83 48.94 C 78.50 48.94 78.18 49.02 77.11 49.53 C 76.04 50.03 73.20 51.18 66.69 53.32 C 60.18 55.45 54.97 56.84 53.70 57.11 C 52.43 57.39 51.14 56.85 51.30 55.49 C 51.46 54.13 51.65 53.33 51.65 52.91 Z" fill="#dc2739" fill-rule="evenodd" group-id="1,2" id="路径-611" node-id="65" stroke="none" target-height="15.338589" target-width="35.794064" target-x="43.893803" target-y="48.93558"></path><path d="M 68.13 56.58 L 69.55 56.06 L 64.49 58.48 C 62.82 59.27 61.24 60.01 59.99 60.59 L 58.20 61.40 C 54.31 63.16 51.54 64.25 49.30 63.99 C 47.59 63.79 45.68 62.79 45.11 60.95 L 45.34 61.12 C 46.28 61.76 48.37 62.60 52.17 61.70 C 55.46 60.92 62.85 58.47 68.13 56.58 L 68.13 56.58 Z" fill="#cb1829" fill-rule="evenodd" group-id="1,2" id="路径" node-id="66" stroke="none" target-height="8.187355" target-width="24.43761" target-x="45.1142" target-y="56.059563"></path><path d="M 50.46 52.49 C 51.26 52.07 51.65 52.49 51.65 52.91 C 51.65 53.33 51.46 54.13 51.30 55.49 C 51.14 56.85 52.43 57.39 53.70 57.11 L 54.91 56.82 C 56.83 56.32 60.42 55.32 64.78 53.93 L 66.69 53.32 C 67.31 53.11 67.89 52.92 68.44 52.74 L 67.04 53.35 C 61.93 55.54 49.35 60.49 46.01 59.47 C 45.59 59.34 45.27 59.16 45.04 58.93 C 45.10 58.60 45.19 58.26 45.33 57.91 C 46.76 54.11 49.65 52.91 50.46 52.49 Z M 78.83 48.94 C 79.16 48.94 79.69 49.93 79.51 50.26 C 79.34 50.57 77.37 52.11 75.93 52.93 L 75.73 53.04 C 76.45 51.90 76.55 50.68 76.37 50.17 C 76.33 50.06 76.22 50.01 76.04 49.99 L 76.76 49.69 L 76.76 49.69 L 77.11 49.53 C 78.18 49.02 78.50 48.94 78.83 48.94 Z" fill="#ec3d48" fill-rule="evenodd" group-id="1,2" id="形状" node-id="67" stroke="none" target-height="11.557716" target-width="34.652515" target-x="45.03535" target-y="48.93558"></path><path d="M 10.93 59.49 C 11.20 60.03 11.63 60.48 12.25 60.86 C 13.16 61.42 16.49 63.16 17.91 63.77 C 19.33 64.38 19.99 64.79 20.13 64.25 C 20.27 63.71 20.41 63.25 20.92 63.03 C 21.42 62.81 23.87 63.25 25.92 63.83 C 27.98 64.40 30.25 64.66 32.81 63.03 C 35.36 61.40 35.66 61.03 37.84 60.61 C 40.01 60.19 42.95 62.27 45.10 63.17 C 47.24 64.06 49.61 63.98 51.63 62.40 C 53.66 60.82 55.09 60.07 56.45 60.25 C 57.81 60.42 59.33 61.37 60.61 62.00 C 61.90 62.62 65.21 63.97 66.91 62.56 C 68.62 61.15 70.26 58.49 70.64 58.00 C 71.01 57.51 72.20 56.65 74.26 57.68 C 76.32 58.71 78.05 60.30 78.55 60.85 C 79.04 61.40 79.81 62.08 80.58 60.98 C 81.35 59.89 81.49 59.67 81.76 59.49 C 82.02 59.31 82.74 58.70 82.94 58.88 C 83.13 59.05 83.64 59.86 83.79 60.71 C 83.90 61.27 84.03 62.04 84.19 63.02 L 84.19 63.52 C 85.11 65.42 85.64 66.66 85.80 67.25 C 85.95 67.84 86.02 68.37 86.00 68.83 C 85.93 70.08 84.68 70.63 82.27 70.51 C 82.12 70.82 81.92 71.05 80.73 71.19 C 79.94 71.28 78.58 71.39 76.65 71.50 C 73.50 71.75 71.29 71.89 70.04 71.91 C 68.79 71.93 68.08 71.73 67.91 71.31 L 64.99 71.31 C 64.54 71.77 64.19 72.00 63.93 72.00 C 63.55 72.00 52.51 71.92 51.95 71.72 C 51.58 71.58 51.33 71.41 51.21 71.19 L 47.64 71.19 C 47.34 71.73 46.79 72.00 46.00 72.00 C 44.81 72.00 33.19 72.00 32.81 72.00 C 32.55 72.00 32.34 71.83 32.18 71.50 L 29.85 71.50 C 29.61 71.80 29.32 71.94 29.01 71.91 C 28.54 71.88 25.17 71.29 24.65 71.19 C 24.34 71.05 24.17 70.90 23.79 70.94 C 23.40 70.97 17.47 69.65 13.79 67.55 C 10.12 65.44 10.01 63.70 10.00 61.67 C 9.99 60.32 10.30 59.59 10.93 59.49 Z" fill="#eeeeee" fill-rule="evenodd" group-id="1,2" id="路径-613" node-id="68" stroke="none" target-height="15.357075" target-width="76.02538" target-x="9.991179" target-y="56.646465"></path><path d="M 33.29 66.76 L 33.13 67.15 C 32.98 67.52 32.81 68.02 32.61 68.65 C 32.37 69.41 32.26 70.30 32.29 71.32 L 32.31 71.71 C 32.26 71.65 32.22 71.58 32.18 71.50 L 29.85 71.50 C 29.80 71.56 29.75 71.61 29.70 71.66 C 29.60 71.21 29.30 70.49 29.03 69.85 L 28.62 68.87 C 28.41 68.35 28.17 67.95 27.92 67.65 C 29.59 67.79 30.74 67.84 31.34 67.79 C 31.95 67.75 32.59 67.40 33.29 66.76 Z M 68.78 65.44 L 68.38 68.80 C 68.31 69.31 68.26 69.70 68.22 69.98 C 68.13 70.55 68.11 71.09 68.16 71.60 C 68.04 71.52 67.95 71.42 67.91 71.31 L 64.99 71.31 C 64.80 70.53 63.72 68.39 63.13 67.74 L 61.22 65.70 L 61.22 65.70 C 62.21 65.89 63.16 66.06 64.08 66.20 C 65.45 66.42 66.73 66.27 67.21 66.20 C 67.53 66.15 68.05 65.90 68.78 65.44 Z M 52.55 65.30 L 52.14 66.24 C 52.00 66.60 51.89 66.88 51.82 67.09 C 51.70 67.45 51.61 68.29 51.52 69.61 L 51.43 70.33 C 51.37 70.76 51.34 71.10 51.33 71.34 C 51.28 71.29 51.24 71.24 51.21 71.19 L 47.64 71.19 L 47.57 71.30 L 47.55 70.99 C 47.51 70.50 46.79 69.39 46.25 68.65 L 45.92 68.22 C 45.58 67.79 44.97 67.22 44.08 66.52 C 44.67 66.65 45.55 66.77 46.74 66.89 C 48.53 67.06 50.28 66.62 50.96 66.39 C 51.42 66.24 51.94 65.88 52.55 65.30 Z" fill="#ebe9e9" fill-rule="evenodd" group-id="1,2" id="形状" node-id="69" stroke="none" target-height="6.4169693" target-width="40.859436" target-x="27.91913" target-y="65.29761"></path><path d="M 29.03 69.85 L 28.78 69.25 L 28.30 69.24 C 29.66 69.29 31.04 69.34 32.43 69.37 C 32.31 69.96 32.27 70.61 32.29 71.32 L 32.31 71.71 C 32.26 71.65 32.22 71.58 32.18 71.50 L 29.85 71.50 C 29.80 71.56 29.75 71.61 29.70 71.66 C 29.60 71.21 29.30 70.49 29.03 69.85 Z M 68.42 68.42 L 68.38 68.80 L 68.24 69.80 C 68.23 69.86 68.23 69.92 68.22 69.98 C 68.13 70.55 68.11 71.09 68.16 71.60 C 68.04 71.52 67.95 71.42 67.91 71.31 L 64.99 71.31 C 64.86 70.78 64.32 69.61 63.80 68.72 C 65.32 68.63 66.86 68.53 68.42 68.42 Z M 51.52 69.61 L 51.43 70.33 L 51.36 70.90 C 51.35 71.07 51.33 71.22 51.33 71.34 C 51.28 71.29 51.24 71.24 51.21 71.19 L 47.64 71.19 L 47.57 71.30 L 47.55 70.99 C 47.52 70.65 47.17 70.02 46.77 69.41 C 48.34 69.38 49.93 69.34 51.54 69.29 L 51.52 69.61 L 51.52 69.61 Z" fill="#e4e4e4" fill-rule="evenodd" group-id="1,2" id="形状" node-id="70" stroke="none" target-height="3.2919617" target-width="40.11814" target-x="28.301514" target-y="68.422615"></path><path d="M 30.70 70.52 L 32.30 70.51 C 32.28 70.77 32.28 71.04 32.29 71.32 L 32.31 71.71 C 32.26 71.65 32.22 71.58 32.18 71.50 L 29.85 71.50 C 29.80 71.56 29.75 71.61 29.70 71.66 C 29.63 71.36 29.48 70.95 29.31 70.51 L 30.70 70.52 L 30.70 70.52 Z M 64.49 70.05 L 68.23 69.92 L 68.22 69.98 C 68.13 70.55 68.11 71.09 68.16 71.60 C 68.04 71.52 67.95 71.42 67.91 71.31 L 64.99 71.31 C 64.92 71.02 64.73 70.56 64.49 70.05 Z M 51.41 70.47 L 51.36 70.90 L 51.33 71.34 L 51.33 71.34 C 51.28 71.29 51.24 71.24 51.21 71.19 L 47.64 71.19 L 47.57 71.30 L 47.55 70.99 C 47.54 70.86 47.48 70.70 47.40 70.50 L 51.41 70.47 Z" fill="#dfdede" fill-rule="evenodd" group-id="1,2" id="形状" node-id="71" stroke="none" target-height="1.7985153" target-width="38.919476" target-x="29.307468" target-y="69.91606"></path><path d="M 38.14 71.22 C 38.30 71.40 38.45 71.66 38.59 72.00 L 36.99 72.00 L 37.25 71.44 C 37.29 71.35 37.33 71.27 37.36 71.22 C 37.50 70.97 37.79 70.84 38.14 71.22 Z M 43.51 71.34 L 43.54 71.52 C 43.56 71.64 43.57 71.80 43.59 72.00 L 42.58 72.00 C 42.58 71.55 42.62 71.29 42.68 71.22 C 42.81 71.08 43.43 71.08 43.51 71.34 Z M 61.17 71.05 C 61.23 71.48 61.32 71.79 61.43 71.98 L 60.03 71.97 L 60.03 71.97 C 60.12 71.84 60.17 71.68 60.16 71.56 L 60.16 71.23 C 60.16 71.17 60.16 71.11 60.16 71.05 L 61.17 71.05 Z M 55.62 71.05 L 56.62 71.05 L 56.79 71.48 C 56.87 71.66 56.94 71.81 57.00 71.92 L 55.29 71.88 L 55.29 71.88 C 55.41 71.69 55.52 71.41 55.62 71.05 Z M 72.96 70.96 C 73.01 71.33 73.10 71.56 73.22 71.64 C 73.27 71.68 73.46 71.71 73.80 71.72 L 72.19 71.82 C 72.03 71.83 71.87 71.84 71.72 71.85 C 71.78 71.71 71.82 71.55 71.84 71.44 L 71.85 71.34 C 71.87 71.22 71.87 71.12 71.85 71.05 L 72.96 70.96 Z M 78.56 70.55 C 78.57 70.87 78.62 71.09 78.70 71.22 C 78.73 71.28 78.84 71.32 79.03 71.34 L 77.36 71.45 C 77.20 71.46 77.04 71.47 76.88 71.48 C 76.93 71.44 76.96 71.39 76.98 71.34 C 77.09 71.08 77.04 70.78 77.14 70.72 C 77.20 70.68 77.68 70.62 78.56 70.55 Z M 24.22 69.98 C 24.48 69.98 24.79 70.77 24.99 71.25 L 24.65 71.19 L 24.65 71.19 L 24.32 71.03 C 24.22 70.98 24.12 70.95 23.99 70.93 L 23.79 70.94 C 23.76 70.94 23.71 70.94 23.64 70.93 C 23.80 70.87 23.89 70.80 23.89 70.72 L 23.90 70.50 C 23.92 70.26 23.98 69.98 24.22 69.98 Z" fill="#484848" fill-rule="evenodd" group-id="1,2" id="形状" node-id="72" stroke="none" target-height="2.0246582" target-width="55.38525" target-x="23.641743" target-y="69.977325"></path><path d="M 85.75 67.10 L 85.79 67.24 C 85.61 67.16 85.49 67.08 85.44 67.00 C 85.28 66.78 84.95 65.89 84.96 65.64 C 84.96 65.52 84.98 65.37 85.00 65.23 L 85.29 65.90 C 85.51 66.42 85.67 66.81 85.75 67.10 Z" fill="#de6f75" fill-rule="evenodd" group-id="1,2" id="路径" node-id="73" stroke="none" target-height="2.0089493" target-width="0.8367615" target-x="84.95453" target-y="65.23065"></path><path d="M 10.93 59.49 C 11.20 60.03 11.63 60.48 12.25 60.86 C 13.04 61.34 15.64 62.72 17.25 63.47 L 18.89 64.20 C 19.64 64.53 20.03 64.65 20.13 64.25 C 20.27 63.71 20.41 63.25 20.92 63.03 C 21.39 62.82 23.59 63.20 25.56 63.72 L 25.92 63.83 C 27.98 64.40 30.25 64.66 32.81 63.03 L 34.67 61.83 C 35.73 61.16 36.34 60.90 37.84 60.61 C 40.01 60.19 42.95 62.27 45.10 63.17 C 47.24 64.06 49.61 63.98 51.63 62.40 C 53.66 60.82 55.09 60.07 56.45 60.25 C 57.81 60.42 59.33 61.37 60.61 62.00 L 61.19 62.26 C 61.85 62.55 62.74 62.88 63.65 63.05 C 62.52 62.99 61.33 62.72 60.51 62.35 L 58.95 61.64 C 57.90 61.17 56.84 60.77 55.86 60.71 C 54.67 60.65 53.04 61.71 52.12 62.35 L 51.57 62.73 C 50.94 63.16 49.82 63.95 47.33 63.96 C 44.85 63.97 41.35 61.74 40.20 61.35 C 39.06 60.95 37.06 60.78 35.56 61.88 L 34.56 62.64 C 32.96 63.85 30.49 65.38 26.86 64.48 L 25.49 64.15 C 22.19 63.36 21.50 63.35 21.08 63.38 C 20.76 63.40 20.44 63.69 20.13 64.25 C 20.03 64.81 19.83 65.06 19.53 65.00 L 19.34 64.93 C 18.08 64.45 11.79 61.59 10.85 60.78 C 10.50 60.49 10.35 60.16 10.39 59.82 C 10.54 59.63 10.71 59.52 10.93 59.49 Z M 74.26 57.68 C 76.18 58.64 77.82 60.09 78.43 60.72 L 78.74 61.06 C 79.23 61.54 79.90 61.94 80.58 60.98 L 81.27 60.01 C 81.46 59.75 81.57 59.63 81.69 59.54 L 81.76 59.49 C 82.02 59.31 82.74 58.70 82.94 58.88 C 82.98 58.91 83.03 58.98 83.10 59.07 C 82.97 59.22 82.82 59.35 82.66 59.45 L 82.51 59.53 C 82.09 59.71 81.75 60.14 81.38 60.71 L 81.01 61.32 C 80.50 62.17 80.08 62.34 79.38 61.92 C 78.68 61.49 75.89 59.00 74.74 58.27 C 73.58 57.53 72.29 57.54 71.73 57.78 C 71.22 57.99 70.86 58.37 70.21 59.35 L 70.00 59.67 C 69.22 60.89 67.80 62.58 66.96 63.01 C 66.13 63.45 65.47 63.33 65.98 63.21 C 66.28 63.13 66.79 62.76 66.86 62.60 L 66.91 62.56 C 68.62 61.15 70.26 58.49 70.64 58.00 C 71.01 57.51 72.20 56.65 74.26 57.68 Z" fill="#ffffff" fill-rule="evenodd" group-id="1,2" id="形状" node-id="74" stroke="none" target-height="8.735607" target-width="72.74716" target-x="10.349918" target-y="56.646465"></path><path d="M 78.09 63.17 C 79.17 64.39 80.10 65.65 80.68 66.46 L 81.10 67.07 C 81.56 67.73 81.89 68.33 82.27 68.19 C 82.63 68.07 83.25 66.53 83.49 65.48 L 83.54 65.25 C 83.67 64.60 83.88 63.84 84.18 62.97 L 84.19 63.02 L 84.19 63.02 L 84.19 63.52 L 84.20 63.56 L 84.17 63.68 C 83.95 64.36 83.78 64.98 83.64 65.54 L 83.39 66.64 C 83.19 67.49 83.02 68.03 82.82 68.19 C 82.65 68.33 82.33 68.38 81.87 68.35 L 82.11 69.08 C 82.20 69.34 82.25 69.54 82.27 69.67 C 82.30 69.89 82.30 70.13 82.27 70.38 L 82.94 69.43 C 83.15 69.55 83.25 69.70 83.26 69.85 C 83.26 70.03 83.12 70.31 82.93 70.52 C 82.72 70.53 82.50 70.52 82.27 70.51 C 82.23 70.60 82.18 70.68 82.10 70.76 C 82.20 70.57 82.21 70.36 82.16 70.12 L 82.03 69.42 C 81.90 68.84 81.66 68.11 80.89 67.07 L 79.82 65.64 C 78.87 64.39 77.80 63.09 77.16 62.61 L 76.57 62.16 C 75.71 61.54 74.59 60.89 73.17 61.26 C 71.53 61.68 70.88 62.41 70.39 63.09 L 69.28 64.69 C 69.13 64.91 69.03 65.08 69.01 65.14 L 68.98 65.32 C 68.91 65.76 68.77 66.89 68.65 67.85 L 68.44 69.73 C 68.36 70.44 68.32 71.14 68.39 71.37 C 68.43 71.52 68.57 71.67 68.79 71.83 C 68.31 71.73 68.01 71.56 67.91 71.31 L 67.87 71.31 C 67.96 71.19 68.01 71.07 68.01 70.93 L 68.04 70.54 C 68.12 69.60 68.36 67.49 68.49 66.62 L 68.53 66.42 C 68.64 65.77 68.58 65.70 68.47 65.78 L 68.39 65.86 C 68.23 66.03 67.21 66.50 65.68 66.41 C 64.65 66.35 63.33 66.19 61.70 65.95 C 62.70 66.94 63.50 67.86 64.10 68.69 C 64.99 69.94 65.30 70.96 65.19 71.23 L 65.15 71.30 L 64.99 71.31 C 64.90 71.39 64.82 71.47 64.74 71.55 C 64.79 71.45 64.81 71.35 64.80 71.23 C 64.77 70.51 64.12 69.33 63.37 68.35 L 62.91 67.76 C 62.13 66.81 60.97 65.59 59.50 64.76 C 57.70 63.74 56.35 63.31 55.21 63.60 C 54.06 63.89 53.22 64.79 52.84 65.25 C 52.46 65.71 51.92 66.62 51.79 67.93 L 51.67 69.36 C 51.63 69.88 51.60 70.30 51.59 70.57 L 51.57 71.26 C 51.57 71.36 51.58 71.46 51.59 71.55 C 51.41 71.44 51.29 71.32 51.21 71.19 L 51.11 71.19 C 51.16 71.05 51.20 70.89 51.23 70.71 C 51.36 69.93 51.38 69.22 51.53 67.97 C 51.63 67.14 51.87 66.39 52.26 65.71 C 51.45 66.38 50.66 66.81 49.88 67.02 C 48.83 67.30 46.64 67.31 45.50 67.09 L 45.19 67.02 C 45.12 66.99 45.03 66.97 44.92 66.95 L 45.48 67.51 C 45.82 67.85 46.09 68.13 46.28 68.35 L 46.63 68.74 C 47.07 69.25 47.59 69.91 47.67 70.38 C 47.71 70.63 47.73 70.90 47.72 71.19 L 47.64 71.19 C 47.44 71.56 47.12 71.80 46.70 71.92 C 46.99 71.64 47.26 71.27 47.30 70.93 C 47.36 70.32 45.29 67.54 44.44 67.03 C 43.58 66.51 42.36 66.01 41.37 65.60 C 40.37 65.20 39.11 63.82 37.82 63.84 C 36.53 63.85 35.09 65.06 34.51 65.61 C 33.92 66.16 33.41 66.90 33.24 67.25 C 33.08 67.56 32.72 68.64 32.56 69.40 L 32.42 70.27 C 32.33 70.86 32.31 71.55 32.81 72.00 C 32.55 72.00 32.34 71.83 32.18 71.50 L 32.12 71.50 L 32.11 71.37 L 32.11 71.37 L 32.10 71.08 C 32.10 70.39 32.16 69.02 32.81 67.44 L 32.64 67.54 C 32.09 67.84 30.62 68.42 28.37 67.84 L 30.07 71.49 L 30.07 71.49 L 29.85 71.50 C 29.61 71.80 29.32 71.94 29.01 71.91 L 28.80 71.89 L 28.80 71.89 C 29.23 71.75 29.45 71.58 29.45 71.37 C 29.45 70.88 28.11 67.98 27.84 67.84 L 27.65 67.77 C 26.92 67.51 24.55 66.75 23.25 66.20 C 22.28 65.78 21.16 65.22 19.89 64.52 C 19.93 65.16 19.89 65.78 19.77 66.40 L 19.65 66.99 C 19.55 67.41 19.47 67.69 19.40 68.00 L 19.35 68.19 C 19.24 68.73 19.19 69.24 19.10 69.31 C 19.01 69.38 18.88 68.91 18.97 68.35 C 19.05 67.79 19.61 66.24 19.66 65.71 L 19.77 64.81 C 19.78 64.72 19.80 64.62 19.81 64.51 C 19.96 64.50 20.06 64.45 20.11 64.31 C 20.17 64.41 20.27 64.50 20.40 64.57 L 20.84 64.77 C 21.89 65.23 24.39 66.27 25.22 66.56 L 26.27 66.93 C 27.60 67.37 29.59 67.93 31.04 67.65 C 32.98 67.26 34.10 65.75 34.57 65.25 C 35.05 64.75 36.79 63.63 37.36 63.60 C 37.89 63.57 39.36 63.94 41.13 64.84 L 41.52 65.04 C 43.45 66.09 45.04 66.72 47.14 66.68 L 48.02 66.65 C 49.75 66.57 51.26 66.34 52.42 65.25 L 53.38 64.33 C 54.06 63.68 54.57 63.34 55.93 63.17 C 57.82 62.92 60.67 65.23 61.24 65.50 C 61.81 65.78 64.17 66.24 66.11 66.20 C 67.79 66.16 68.42 65.63 69.08 64.57 L 69.39 64.05 C 70.19 62.64 71.66 60.94 73.47 60.80 C 75.27 60.66 76.68 61.57 78.09 63.17 Z M 15.60 62.82 C 15.68 62.85 15.85 63.09 16.19 64.22 L 16.98 67.05 C 17.23 67.89 17.45 68.59 17.57 68.69 C 17.76 68.85 17.97 69.02 18.11 69.09 L 18.21 69.13 C 18.30 69.15 18.02 69.16 17.96 69.38 L 17.50 69.22 L 17.50 69.22 L 17.15 69.09 C 17.22 69.03 17.21 68.93 17.18 68.77 L 16.92 67.77 C 16.53 66.33 15.52 62.79 15.60 62.82 Z" fill="#bcbac5" fill-rule="evenodd" group-id="1,2" id="形状" node-id="75" stroke="none" target-height="11.346313" target-width="68.68802" target-x="15.515891" target-y="60.657837"></path><path d="M 37.56 65.73 L 39.63 69.64 L 39.03 69.64 L 38.46 68.71 L 36.89 68.74 L 36.46 69.86 L 35.83 69.86 L 37.43 65.73 L 37.56 65.73 Z M 37.60 67.13 L 37.48 67.13 L 37.14 68.18 L 38.11 68.12 L 37.60 67.13 Z" fill="#28282b" fill-rule="evenodd" group-id="1,2" id="形状" node-id="76" stroke="none" target-height="4.1308594" target-width="3.7971191" target-x="35.830994" target-y="65.72626"></path><path d="M 56.28 64.93 L 56.28 69.25 L 56.97 69.25 L 56.97 64.93 Z" fill="#28282b" fill-rule="evenodd" group-id="1,2" id="路径-614" node-id="77" stroke="none" target-height="4.3258667" target-width="0.69348145" target-x="56.278076" target-y="64.92688"></path><path d="M 74.12 63.73 C 74.47 63.80 75.33 64.25 75.31 65.19 C 75.28 66.12 74.38 66.53 74.32 66.68 C 74.25 66.83 74.42 67.10 74.79 67.55 C 75.16 68.00 76.07 69.06 75.95 69.07 C 75.87 69.07 75.55 69.07 75.00 69.07 C 74.16 67.85 73.71 67.25 73.65 67.25 C 73.56 67.25 73.15 67.14 73.15 67.33 L 73.15 67.47 C 73.15 67.75 73.15 68.38 73.16 69.36 L 72.41 69.35 C 72.14 65.82 72.00 64.02 72.00 63.93 C 72.00 63.80 72.08 63.78 72.29 63.76 C 72.50 63.74 73.77 63.66 74.12 63.73 Z M 74.23 64.68 C 73.97 64.50 73.56 64.46 73.00 64.56 L 73.00 64.56 L 73.07 65.88 C 73.51 65.97 73.87 65.95 74.14 65.83 C 74.54 65.65 74.62 64.96 74.23 64.68 Z" fill="#28282b" fill-rule="evenodd" group-id="1,2" id="形状结合" node-id="78" stroke="none" target-height="5.7008247" target-width="4.0738525" target-x="71.995056" target-y="63.661236"></path><path d="M 62.63 44.36 C 62.60 44.02 62.56 43.79 62.52 43.57 C 62.41 43.37 57.94 41.25 57.52 40.97 C 57.11 40.68 56.07 40.58 55.84 40.97 C 56.17 41.20 56.76 41.73 56.75 42.04 C 57.10 42.00 57.67 42.41 58.37 42.80 C 59.07 43.19 61.44 44.23 61.90 44.69 C 62.15 44.94 62.42 45.16 62.71 45.37 C 62.68 45.14 62.66 44.69 62.63 44.36 Z" fill="#f4f4f6" fill-rule="evenodd" group-id="1,2" id="路径-619" node-id="79" stroke="none" target-height="4.786854" target-width="6.871273" target-x="55.84082" target-y="40.582886"></path><path d="M 56.36 41.28 C 56.50 41.23 56.70 41.35 56.98 41.43 L 57.18 41.48 C 57.34 41.52 57.58 41.59 57.85 41.69 C 58.40 41.88 59.08 42.17 59.55 42.44 L 59.83 42.60 C 60.25 42.89 61.22 43.38 62.71 44.08 L 62.59 44.02 L 62.63 44.36 L 62.69 45.16 C 62.70 45.24 62.70 45.31 62.71 45.37 C 62.42 45.16 62.15 44.94 61.90 44.69 C 61.44 44.23 59.07 43.19 58.37 42.80 L 57.64 42.38 C 57.28 42.17 56.97 42.02 56.75 42.04 C 56.75 41.86 56.56 41.61 56.34 41.39 L 56.36 41.28 Z" fill="#d4d5de" fill-rule="evenodd" group-id="1,2" id="路径" node-id="80" stroke="none" target-height="4.137562" target-width="6.3723564" target-x="56.339737" target-y="41.232178"></path><path d="M 51.58 37.26 C 52.11 37.05 52.62 37.89 53.17 38.08 C 53.69 38.26 55.17 40.07 55.72 40.61 L 55.84 40.71 C 56.05 40.88 56.54 41.34 56.79 41.80 C 56.87 41.95 56.79 42.01 56.77 42.15 C 56.66 42.46 56.55 42.61 56.45 42.62 C 56.30 42.62 55.48 42.50 55.00 42.18 C 54.51 41.86 53.63 41.20 53.12 40.89 C 52.78 40.68 52.19 40.42 51.30 40.13 C 51.85 40.63 52.36 41.08 52.83 41.48 L 53.17 41.76 C 54.02 42.44 54.78 43.23 54.92 44.35 C 55.07 45.46 53.95 45.97 53.22 46.17 C 52.48 46.37 51.22 46.34 51.00 45.92 C 50.78 45.50 50.29 45.49 49.14 45.17 C 48.37 44.95 47.57 44.88 46.74 44.95 C 46.37 44.53 46.45 43.98 46.54 43.86 C 46.64 43.74 47.06 43.91 47.30 43.89 C 48.01 43.84 49.12 44.09 50.05 44.26 C 51.30 44.49 51.36 44.92 51.81 45.17 C 52.26 45.41 53.19 45.11 53.57 44.95 C 53.82 44.85 53.88 44.62 53.74 44.26 C 53.62 43.99 53.46 43.72 53.25 43.47 L 52.84 43.01 C 52.20 42.32 51.05 41.16 50.69 40.71 C 50.21 40.13 49.87 39.56 49.75 38.77 C 49.63 37.99 50.30 38.33 50.69 38.08 C 51.07 37.83 51.04 37.48 51.58 37.26 Z M 51.50 38.56 C 51.23 38.50 51.11 38.55 51.13 38.71 L 51.15 38.80 C 51.35 38.93 51.60 39.05 51.88 39.15 C 52.31 39.31 53.02 39.66 53.33 39.87 L 52.59 39.26 C 52.28 38.99 51.81 38.62 51.50 38.56 Z" fill="#f6f6f6" fill-rule="evenodd" group-id="1,2" id="形状" node-id="81" stroke="none" target-height="9.324707" target-width="10.498463" target-x="46.36798" target-y="37.04651"></path><path d="M 49.76 38.43 C 49.80 38.82 50.01 39.25 50.18 39.74 C 50.35 40.19 51.17 40.99 51.63 41.39 L 51.79 41.52 C 52.20 41.84 53.58 43.16 53.80 43.67 C 54.02 44.18 54.07 44.51 53.84 44.76 C 53.81 44.79 53.78 44.81 53.73 44.84 C 53.84 44.71 53.84 44.52 53.74 44.26 C 53.62 43.99 53.46 43.72 53.25 43.47 L 52.84 43.01 L 51.26 41.36 C 51.02 41.09 50.81 40.86 50.69 40.71 C 50.21 40.13 49.87 39.56 49.75 38.77 C 49.73 38.64 49.73 38.54 49.75 38.47 L 49.76 38.43 Z" fill="#dcdce2" fill-rule="evenodd" group-id="1,2" id="路径" node-id="82" stroke="none" target-height="6.4052963" target-width="4.345993" target-x="49.726612" target-y="38.432537"></path><path d="M 55.00 41.73 C 55.02 41.71 55.10 41.58 55.26 41.36 C 55.53 41.56 55.71 41.69 55.81 41.74 C 55.88 41.78 55.69 42.01 55.72 42.10 C 55.80 42.33 55.95 42.49 56.17 42.57 C 56.28 42.62 57.08 42.82 57.53 43.01 C 57.69 43.08 58.04 43.32 58.43 43.60 C 58.51 43.82 58.55 44.04 58.58 44.25 C 58.61 44.57 58.68 45.02 58.78 45.48 L 58.75 45.46 C 58.14 44.88 56.79 44.09 55.80 43.47 C 54.81 42.85 54.73 42.04 55.00 41.73 Z" fill="#efeef0" fill-rule="evenodd" group-id="1,2" id="路径" node-id="83" stroke="none" target-height="4.1211014" target-width="4.055889" target-x="54.725357" target-y="41.362335"></path><path d="M 55.83 41.86 C 55.73 42.11 55.84 42.33 56.17 42.53 C 56.28 42.58 57.08 42.82 57.53 43.01 C 57.69 43.08 58.04 43.32 58.43 43.60 C 58.51 43.82 58.55 44.04 58.58 44.25 L 58.62 44.57 L 58.32 44.35 C 57.77 43.93 55.94 43.04 55.58 42.62 C 55.44 42.45 55.36 42.31 55.35 42.20 C 55.33 42.06 55.44 41.74 55.58 41.63 C 55.64 41.68 55.79 41.78 55.83 41.86 Z" fill="#d4d5de" fill-rule="evenodd" group-id="1,2" id="路径" node-id="84" stroke="none" target-height="2.9455757" target-width="3.2854729" target-x="55.33038" target-y="41.6257"></path><path d="M 51.95 38.56 C 52.46 38.79 53.12 39.38 53.49 39.69 L 53.62 39.80 C 53.93 40.03 55.87 41.75 55.95 41.84 C 56.00 41.91 56.03 42.01 56.04 42.15 C 55.98 42.01 55.88 41.87 55.74 41.76 L 54.14 40.50 C 53.65 40.12 53.16 39.74 52.88 39.53 L 52.91 39.55 L 52.91 39.55 L 52.59 39.26 L 52.24 38.98 C 51.98 38.78 51.70 38.60 51.50 38.56 C 51.37 38.53 51.28 38.53 51.22 38.55 C 51.44 38.43 51.68 38.43 51.95 38.56 Z" fill="#cac9ce" fill-rule="evenodd" group-id="1,2" id="路径" node-id="85" stroke="none" target-height="3.7245293" target-width="4.823551" target-x="51.220577" target-y="38.42864"></path><path d="M 50.54 38.21 C 50.68 39.01 50.89 39.52 51.23 39.81 C 51.59 39.93 52.22 40.24 52.89 40.50 C 53.33 40.67 54.03 41.08 54.99 41.74 L 54.89 42.13 C 54.10 41.54 53.53 41.14 53.19 40.93 C 52.85 40.72 52.23 40.39 51.30 40.13 C 51.85 40.63 52.36 41.08 52.83 41.48 L 53.17 41.76 C 54.02 42.44 54.78 43.23 54.92 44.35 C 55.02 45.10 54.54 45.58 53.99 45.87 C 53.88 45.76 53.77 45.64 53.65 45.48 C 54.15 44.98 54.41 44.59 54.45 44.32 C 54.50 43.91 54.39 43.26 53.65 42.55 L 52.70 41.59 C 52.05 40.93 51.37 40.23 51.21 40.08 L 51.17 40.05 C 51.11 40.02 50.58 39.17 50.54 38.77 C 50.52 38.51 50.52 38.32 50.54 38.21 Z" fill="#cac9ce" fill-rule="evenodd" group-id="1,2" id="路径" node-id="86" stroke="none" target-height="7.6610565" target-width="4.5063324" target-x="50.515427" target-y="38.207214"></path><path d="M 46.51 44.46 C 46.74 44.51 46.99 44.54 47.24 44.56 L 47.64 44.57 C 48.25 44.57 50.35 44.93 50.69 45.18 C 51.02 45.44 51.58 46.01 51.79 46.08 C 51.93 46.12 52.10 46.08 52.28 45.98 C 52.42 46.06 52.49 46.16 52.49 46.28 C 51.84 46.32 51.15 46.21 51.00 45.92 C 50.78 45.50 50.29 45.49 49.14 45.17 C 48.38 44.95 47.59 44.88 46.77 44.95 C 46.71 44.87 46.65 44.78 46.59 44.66 L 46.51 44.47 L 46.51 44.46 Z" fill="#d6d6dc" fill-rule="evenodd" group-id="1,2" id="路径" node-id="87" stroke="none" target-height="1.8537407" target-width="5.98547" target-x="46.505753" target-y="44.46479"></path><path d="M 52.73 44.19 C 52.25 44.30 51.77 44.80 51.79 45.17 C 51.82 45.54 52.33 45.77 52.29 46.10 C 52.25 46.24 52.14 46.30 51.97 46.28 C 52.27 46.60 52.80 46.66 53.57 46.45 C 54.73 46.13 54.85 45.16 54.81 45.01 C 54.77 44.85 54.34 44.16 53.78 44.11 C 53.23 44.06 53.21 44.07 52.73 44.19 Z" fill="#f6f3f2" fill-rule="evenodd" group-id="1,2" id="路径-622" node-id="88" stroke="none" target-height="2.5983124" target-width="3.0848427" target-x="51.765682" target-y="44.058533"></path><path d="M 52.73 44.19 L 53.09 44.10 C 53.23 44.08 53.34 44.08 53.55 44.09 L 53.78 44.11 C 53.82 44.11 53.87 44.12 53.91 44.13 C 53.90 44.24 53.87 44.35 53.83 44.46 C 53.71 44.79 52.34 45.40 52.02 45.33 C 51.92 45.30 51.85 45.25 51.79 45.16 C 51.78 44.79 52.26 44.30 52.73 44.19 Z" fill="#fcfcfc" fill-rule="evenodd" group-id="1,2" id="路径" node-id="89" stroke="none" target-height="1.3269234" target-width="2.1259804" target-x="51.77912" target-y="44.075054"></path><path d="M 53.95 44.14 C 54.42 44.29 54.77 44.87 54.81 45.01 C 54.85 45.16 54.73 46.13 53.57 46.45 C 52.80 46.66 52.27 46.60 51.97 46.28 C 52.14 46.30 52.25 46.24 52.29 46.10 C 52.32 45.84 52.02 45.65 51.87 45.40 C 52.05 45.54 52.44 45.84 53.02 45.84 C 53.72 45.85 54.16 45.42 54.21 45.01 C 54.24 44.79 54.18 44.55 54.03 44.28 L 53.95 44.14 Z" fill="#f3eded" fill-rule="evenodd" group-id="1,2" id="路径" node-id="90" stroke="none" target-height="2.516491" target-width="2.97995" target-x="51.870575" target-y="44.140354"></path><path d="M 54.81 45.01 C 54.85 45.16 54.73 46.13 53.57 46.45 C 52.80 46.66 52.27 46.60 51.97 46.28 C 52.14 46.30 52.25 46.24 52.29 46.10 L 52.27 45.98 C 52.41 46.03 52.67 46.10 53.02 46.08 C 53.53 46.04 54.34 45.95 54.45 45.48 C 54.51 45.20 54.53 44.84 54.51 44.54 C 54.68 44.73 54.79 44.93 54.81 45.01 Z" fill="#cecaca" fill-rule="evenodd" group-id="1,2" id="路径" node-id="91" stroke="none" target-height="2.1184502" target-width="2.8826904" target-x="51.967834" target-y="44.538395"></path><path d="M 37.85 47.86 L 37.87 47.89 C 38.21 48.34 38.89 49.11 39.25 49.28 C 39.71 49.50 40.71 49.00 40.98 48.68 C 41.20 48.41 41.36 48.14 41.37 47.77 L 41.35 47.54 C 41.31 47.22 41.40 46.57 41.56 46.01 C 41.91 45.68 42.31 44.55 43.13 44.55 C 43.77 44.55 44.45 44.66 45.16 44.87 L 45.17 44.77 C 45.37 44.92 45.57 45.11 45.77 45.33 C 45.61 45.65 45.44 45.90 45.27 46.09 C 45.01 46.36 44.49 45.77 43.99 45.53 C 43.50 45.29 42.89 45.96 42.68 46.45 C 42.48 46.93 42.66 48.80 42.39 49.24 C 42.12 49.68 41.11 50.58 40.14 50.77 C 39.18 50.97 37.78 50.10 37.41 49.32 C 37.29 49.04 37.06 49.06 36.62 48.65 C 36.39 48.43 36.49 48.08 36.93 47.60 L 37.14 47.39 C 37.42 47.54 37.65 47.77 37.85 47.86 Z" fill="#f5f5f5" fill-rule="evenodd" group-id="1,2" id="路径" node-id="92" stroke="none" target-height="6.4182243" target-width="9.380905" target-x="36.38845" target-y="44.551517"></path><path d="M 43.11 45.56 C 43.50 45.28 43.92 45.34 44.10 45.38 C 44.20 45.39 44.35 45.50 44.56 45.71 L 44.73 45.88 L 44.86 45.88 L 44.78 46.04 C 44.54 45.90 44.26 45.66 43.99 45.53 C 43.50 45.29 42.89 45.96 42.68 46.45 C 42.48 46.93 42.66 48.80 42.39 49.24 C 42.12 49.68 41.11 50.58 40.14 50.77 C 39.18 50.97 37.78 50.10 37.41 49.32 C 37.29 49.04 37.06 49.05 36.62 48.64 C 36.54 48.56 36.46 48.18 35.37 48.22 C 36.35 47.95 36.51 48.26 36.53 48.21 C 36.83 48.31 37.75 48.89 37.97 49.30 C 38.20 49.71 38.82 50.20 39.26 50.17 C 39.71 50.14 42.03 48.54 42.16 48.35 C 42.28 48.16 42.18 47.27 42.24 46.82 C 42.30 46.38 42.71 45.83 43.11 45.56 Z" fill="#d1d1d8" fill-rule="evenodd" group-id="1,2" id="路径" node-id="93" stroke="none" target-height="5.6877823" target-width="9.488953" target-x="35.367798" target-y="45.28196"></path><path d="M 40.27 47.89 C 39.63 48.10 38.92 48.68 38.91 49.08 C 38.91 49.35 38.99 49.77 38.99 50.10 C 38.99 50.28 39.33 51.05 39.69 51.08 C 40.04 51.12 41.23 51.01 41.79 50.59 C 42.36 50.17 42.55 49.36 42.50 49.08 C 42.44 48.79 42.44 48.12 41.82 47.96 C 41.20 47.80 40.92 47.67 40.27 47.89 Z" fill="#f6f3f2" fill-rule="evenodd" group-id="1,2" id="路径-626" node-id="94" stroke="none" target-height="3.4466133" target-width="3.6445923" target-x="38.906494" target-y="47.671814"></path><path d="M 40.27 47.89 C 40.92 47.67 41.20 47.80 41.82 47.96 C 41.66 48.30 40.19 49.03 39.70 49.15 C 39.46 49.22 39.20 49.23 38.92 49.20 L 38.91 49.08 C 38.92 48.68 39.63 48.10 40.27 47.89 Z" fill="#fcfcfc" fill-rule="evenodd" group-id="1,2" id="路径" node-id="95" stroke="none" target-height="1.5595169" target-width="2.9050903" target-x="38.91211" target-y="47.671814"></path><path d="M 40.23 50.18 C 40.62 50.17 42.16 49.14 42.12 48.82 C 42.10 48.67 41.97 48.38 41.75 47.94 L 41.82 47.96 C 42.44 48.12 42.44 48.79 42.50 49.08 C 42.55 49.36 42.36 50.17 41.79 50.59 C 41.23 51.01 40.04 51.12 39.69 51.08 C 39.45 51.06 39.34 50.87 39.18 50.71 C 39.02 50.56 38.99 50.04 38.96 49.73 L 38.67 49.43 C 39.45 49.93 39.96 50.18 40.23 50.18 Z" fill="#eae4e4" fill-rule="evenodd" group-id="1,2" id="路径" node-id="96" stroke="none" target-height="3.1752167" target-width="3.8762817" target-x="38.674805" target-y="47.94321"></path><path d="M 42.50 49.08 C 42.55 49.36 42.36 50.17 41.79 50.59 C 41.23 51.01 40.04 51.12 39.69 51.08 C 39.58 51.07 39.31 50.95 39.17 50.74 C 39.01 50.50 38.99 50.17 38.99 50.07 C 39.14 50.35 39.43 50.55 39.84 50.66 C 40.67 50.89 41.35 50.23 41.79 49.85 C 42.20 49.50 42.37 49.11 42.31 48.34 C 42.45 48.59 42.47 48.91 42.50 49.08 Z" fill="#cecaca" fill-rule="evenodd" group-id="1,2" id="路径" node-id="97" stroke="none" target-height="2.7742805" target-width="3.5654564" target-x="38.98563" target-y="48.344147"></path><path d="M 62.02 40.61 C 62.48 43.87 62.68 45.66 62.60 45.96 C 62.49 46.41 62.51 47.23 62.15 47.35 C 61.78 47.47 61.09 48.07 60.12 47.24 C 59.14 46.41 58.98 45.97 58.90 45.48 C 58.81 45.00 58.85 44.10 58.62 43.73 C 58.46 43.48 58.17 43.18 57.74 42.82 C 58.18 43.23 58.41 43.53 58.43 43.73 C 58.44 43.93 58.50 44.46 58.62 45.33 L 57.89 44.85 C 58.54 45.97 58.96 46.63 59.14 46.82 C 59.40 47.10 60.18 47.74 60.73 47.87 C 61.28 47.99 62.42 47.70 62.60 47.24 C 62.79 46.79 62.85 45.34 62.79 44.85 C 62.77 44.68 62.72 43.70 62.40 41.48 C 62.39 41.41 62.44 41.31 62.55 41.31 C 62.58 41.32 62.65 41.35 62.74 41.42 L 62.02 40.61 Z" fill="#9292a5" fill-rule="evenodd" group-id="1,2" id="路径-612" node-id="98" stroke="none" target-height="7.4676323" target-width="5.1129456" target-x="57.737488" target-y="40.60504"></path><path d="M 62.37 47.35 L 67.31 50.77 L 67.31 50.51 L 62.37 47.18 Z" fill="#8b8b9c" fill-rule="evenodd" group-id="1,2" id="路径-629" node-id="99" stroke="none" target-height="3.5855255" target-width="4.9438477" target-x="62.36963" target-y="47.182655"></path><path d="M 38.23 50.48 L 37.34 49.72 L 37.46 49.42 C 37.61 49.62 37.73 49.78 37.83 49.88 C 37.93 49.98 38.09 50.10 38.30 50.25 L 38.23 50.48 Z" fill="#c7c8d5" fill-rule="evenodd" group-id="1,2" id="路径-632" node-id="100" stroke="none" target-height="1.0544128" target-width="0.9628601" target-x="37.339233" target-y="49.422947"></path></g></g></svg>