<?xml version="1.0" standalone="no"?><!DOCTYPE svg PUBLIC "-//W3C//DTD SVG 1.1//EN" "http://www.w3.org/Graphics/SVG/1.1/DTD/svg11.dtd"><svg height="96" node-id="1" sillyvg="true" template-height="96" template-width="96" version="1.1" viewBox="0 0 96 96" width="96" xmlns="http://www.w3.org/2000/svg" xmlns:xlink="http://www.w3.org/1999/xlink"><defs node-id="96"></defs><g node-id="113"><g node-id="114"><g node-id="115"><g node-id="116"><path d="M 0.00 0.00 L 96.00 0.00 L 96.00 96.00 L 0.00 96.00 Z" fill="#ffffff" fill-opacity="0" fill-rule="evenodd" group-id="1,2,3,4" node-id="104" stroke="none" target-height="96" target-width="96" target-x="0" target-y="0"></path></g><path d="M 3.00 3.00 L 93.00 3.00 L 93.00 93.00 L 3.00 93.00 Z" fill="none" group-id="1,2,3" node-id="107" stroke="#dddddd" stroke-linecap="butt" stroke-opacity="0" stroke-width="6" target-height="90" target-width="90" target-x="3" target-y="3"></path><path d="M 6.00 6.00 L 90.00 6.00 L 90.00 90.00 L 6.00 90.00 Z" fill="none" group-id="1,2,3" node-id="109" stroke="#dddddd" stroke-linecap="butt" stroke-opacity="0" stroke-width="12" target-height="84" target-width="84" target-x="6" target-y="6"></path><path d="M 5.00 5.00 L 91.00 5.00 L 91.00 91.00 L 5.00 91.00 Z" fill="none" group-id="1,2,3" node-id="111" stroke="#979797" stroke-linecap="butt" stroke-opacity="0" stroke-width="10" target-height="86" target-width="86" target-x="5" target-y="5"></path></g><path d="M 53.35 47.12 C 53.93 45.97 54.04 42.29 53.99 41.57 C 53.93 40.84 53.41 39.32 53.11 38.47 C 52.80 37.61 53.23 36.68 53.23 36.40 C 53.24 36.11 52.81 35.22 52.58 35.26 C 52.36 35.30 52.22 35.86 51.89 36.09 C 51.55 36.32 49.50 37.78 49.14 38.00 C 48.79 38.22 46.79 39.85 46.14 40.56 C 45.49 41.26 41.39 44.22 41.08 44.59 C 40.78 44.96 37.22 47.84 36.78 48.26 C 36.34 48.67 35.81 50.03 35.50 50.26 C 35.18 50.50 33.49 51.69 32.98 51.81 C 32.48 51.94 31.76 52.46 31.38 52.63 C 31.00 52.79 30.78 53.06 30.71 53.07 C 30.63 53.07 30.24 53.02 29.94 53.25 C 29.64 53.49 29.10 54.28 28.91 54.57 C 28.71 54.85 30.50 54.85 32.45 54.38 C 34.40 53.92 43.05 51.26 45.85 50.32 C 48.65 49.37 52.77 48.28 53.35 47.12 Z" fill="#4a4a4a" fill-rule="evenodd" group-id="1,2" id="路径-1049" node-id="14" stroke="none" target-height="19.635193" target-width="25.336914" target-x="28.707947" target-y="35.216064"></path><path d="M 41.36 44.78 L 41.32 44.89 C 41.23 45.09 41.02 45.51 40.68 46.18 L 39.23 47.04 C 38.78 47.31 38.47 47.48 38.32 47.55 L 38.25 47.59 C 38.22 47.60 37.74 47.79 37.49 47.65 L 40.15 45.43 C 40.55 45.09 40.87 44.81 41.02 44.66 L 41.08 44.59 C 41.12 44.55 41.19 44.49 41.29 44.40 L 41.35 44.66 C 41.36 44.72 41.37 44.76 41.36 44.78 Z M 46.44 41.42 L 44.49 42.51 C 44.08 42.74 43.76 42.93 43.68 43.01 C 43.61 43.07 43.34 43.12 42.88 43.16 L 44.11 42.22 C 44.93 41.58 45.68 40.99 46.03 40.66 L 46.14 40.56 C 46.32 40.36 46.61 40.09 46.94 39.80 L 46.58 40.90 C 46.52 41.12 46.47 41.29 46.44 41.42 Z" fill="#242424" fill-rule="evenodd" group-id="1,2" id="形状" node-id="15" stroke="none" target-height="7.9981384" target-width="9.45013" target-x="37.487103" target-y="39.79649"></path><path d="M 52.58 35.26 C 52.81 35.22 53.24 36.11 53.23 36.40 C 53.23 36.68 52.80 37.61 53.11 38.47 L 53.37 39.21 C 53.64 40.03 53.94 41.02 53.99 41.57 L 54.00 41.87 C 54.00 42.19 54.00 42.67 53.97 43.20 C 53.71 43.27 53.38 43.19 52.96 42.97 L 52.50 40.32 L 52.50 40.32 C 52.44 39.96 51.81 38.30 51.79 37.91 C 51.77 37.52 52.13 36.70 52.16 36.59 C 52.17 36.53 52.00 36.34 51.82 36.14 L 51.89 36.09 C 52.22 35.86 52.36 35.30 52.58 35.26 Z" fill="#343434" fill-rule="evenodd" group-id="1,2" id="路径" node-id="16" stroke="none" target-height="8.050869" target-width="2.231041" target-x="51.773705" target-y="35.216064"></path><path d="M 51.97 36.26 L 52.03 36.29 C 52.18 36.43 52.37 36.80 52.37 36.95 C 52.37 37.09 52.27 37.56 52.14 37.88 C 52.01 38.21 52.43 38.81 52.69 39.59 C 52.89 40.17 53.31 40.41 53.80 40.65 C 53.90 41.01 53.97 41.33 53.99 41.57 C 54.01 41.83 54.01 42.47 53.97 43.24 L 52.88 42.97 C 52.31 42.83 51.62 42.65 50.79 42.44 L 50.56 41.03 C 50.54 40.84 50.22 39.85 50.05 39.35 C 49.98 39.11 49.81 38.77 49.55 38.34 L 49.29 37.91 L 49.98 37.43 C 50.44 37.11 51.00 36.71 51.40 36.43 L 51.69 36.32 C 51.77 36.29 51.85 36.27 51.91 36.26 L 51.97 36.26 Z" fill="#151515" fill-rule="evenodd" group-id="1,2" id="路径" node-id="17" stroke="none" target-height="6.976818" target-width="4.7195206" target-x="49.28877" target-y="36.262302"></path><path d="M 51.71 35.85 C 51.81 35.81 52.00 36.11 52.14 36.31 C 52.27 36.50 52.43 36.67 52.26 36.96 C 52.09 37.25 51.98 37.97 52.02 38.10 C 52.06 38.24 52.51 39.15 52.76 40.04 C 53.01 40.93 53.19 42.48 53.25 43.50 C 53.32 44.53 51.22 42.94 51.11 41.92 C 51.00 40.90 50.22 38.98 49.98 38.55 C 49.73 38.12 49.35 37.77 49.33 37.62 C 49.30 37.48 49.99 37.04 50.37 36.76 C 50.76 36.49 51.61 35.88 51.71 35.85 Z M 50.34 37.29 C 50.36 37.36 50.50 37.70 50.60 37.67 C 50.69 37.64 51.64 37.14 51.71 37.10 C 51.78 37.06 51.56 36.84 51.48 36.75 C 51.40 36.66 50.33 37.22 50.34 37.29 Z" fill="#404040" fill-rule="evenodd" group-id="1,2" id="形状结合" node-id="18" stroke="none" target-height="8.717159" target-width="4.0133667" target-x="49.30359" target-y="35.813538"></path><path d="M 50.07 36.92 C 50.16 37.06 50.22 37.11 50.25 37.09 C 50.29 37.06 51.22 36.52 51.24 36.47 C 51.27 36.43 51.17 36.26 51.14 36.23 C 51.12 36.22 50.76 36.44 50.07 36.92 Z" fill="#1e1e1e" fill-rule="evenodd" group-id="1,2" id="路径-1052" node-id="19" stroke="none" target-height="0.896698" target-width="1.1903687" target-x="50.074646" target-y="36.216602"></path><path d="M 75.93 34.53 C 76.66 34.61 77.20 35.52 77.11 36.38 C 77.03 37.25 76.41 38.02 75.79 38.60 C 75.17 39.18 74.63 40.28 74.58 41.16 C 74.54 41.84 74.85 43.01 75.17 44.04 L 75.44 44.87 C 75.82 46.02 76.35 47.70 76.65 48.94 C 76.95 50.17 76.95 51.19 76.89 51.45 C 76.82 51.70 76.65 51.81 76.47 51.71 C 76.34 51.64 74.44 45.45 73.38 41.96 L 72.67 39.63 C 72.50 39.06 72.35 38.49 72.41 38.33 C 72.46 38.17 72.78 38.11 73.07 38.21 C 73.25 38.27 73.36 38.40 73.39 38.60 L 73.58 37.73 C 73.76 36.94 73.92 36.35 74.05 35.97 C 74.29 35.26 75.07 34.58 75.75 34.53 L 75.93 34.53 Z M 75.09 35.22 C 74.67 35.59 74.36 36.12 74.19 36.82 L 73.83 38.22 C 73.77 38.48 73.73 38.70 73.72 38.86 C 73.70 39.12 73.91 39.66 74.35 40.47 C 74.49 39.82 74.68 39.36 74.92 39.08 C 75.28 38.66 76.29 37.80 76.49 37.23 C 76.69 36.66 76.89 35.69 76.49 35.26 C 76.08 34.83 75.50 34.85 75.09 35.22 Z" fill="#181818" fill-rule="evenodd" group-id="1,2" id="形状" node-id="20" stroke="none" target-height="17.279678" target-width="4.84375" target-x="72.354004" target-y="34.527206"></path><path d="M 10.39 61.07 C 10.29 59.64 10.99 58.53 11.65 58.13 C 12.31 57.73 13.69 57.00 17.03 56.49 C 20.38 55.98 22.60 56.06 23.32 55.82 C 24.03 55.58 25.09 55.22 25.79 55.07 C 26.50 54.91 29.01 53.85 29.48 53.69 C 29.96 53.53 34.80 51.51 35.31 51.24 C 35.82 50.97 35.79 49.18 36.98 48.21 C 38.17 47.24 45.19 42.01 46.78 41.60 C 48.37 41.20 50.32 40.68 53.26 41.60 C 56.19 42.52 59.98 44.62 61.16 45.30 C 62.35 45.97 63.67 46.66 64.69 45.41 C 65.72 44.16 67.64 42.26 69.37 40.84 C 71.09 39.41 72.48 38.63 72.66 38.64 C 72.84 38.64 73.13 38.86 73.19 39.26 C 73.25 39.66 73.28 39.74 73.41 39.87 C 73.53 40.01 73.92 41.60 74.06 42.01 C 74.19 42.42 74.92 44.50 75.23 45.41 C 75.54 46.31 76.18 48.03 76.36 48.84 C 76.54 49.65 76.75 50.99 76.76 51.34 C 76.78 51.70 77.53 53.46 68.03 56.49 C 58.54 59.52 34.18 66.88 31.56 67.16 C 28.94 67.44 13.92 65.21 12.58 64.29 C 11.24 63.37 10.49 62.49 10.39 61.07 Z" fill="#2b2b2b" fill-rule="evenodd" group-id="1,2" id="路径-1053" node-id="21" stroke="none" target-height="28.805237" target-width="67.243805" target-x="10.2864685" target-y="38.62982"></path><path d="M 52.72 41.45 L 53.44 41.66 C 52.77 43.33 51.33 46.32 49.13 47.99 L 47.87 48.93 C 45.22 50.88 42.67 52.50 41.20 52.32 L 40.16 52.19 C 38.53 51.96 36.54 51.37 36.57 48.64 C 36.69 48.48 36.82 48.34 36.98 48.21 L 37.32 47.94 C 39.15 46.52 45.30 41.98 46.78 41.60 L 47.39 41.45 C 48.77 41.12 50.43 40.84 52.72 41.45 Z" fill="#3a3a3a" fill-rule="evenodd" group-id="1,2" id="路径" node-id="22" stroke="none" target-height="11.661949" target-width="16.909302" target-x="36.535328" target-y="40.84093"></path><path d="M 60.44 44.89 L 61.16 45.30 C 61.78 45.65 62.43 46.00 63.06 46.08 C 63.18 46.40 63.26 46.71 63.28 46.99 C 63.44 48.96 62.45 48.14 61.70 48.06 C 60.98 47.97 55.75 49.85 58.05 51.47 L 58.27 51.61 C 61.10 53.25 56.73 57.95 49.23 61.18 C 44.23 63.33 39.10 64.90 33.85 65.89 C 39.50 61.67 42.13 58.23 41.75 55.58 C 43.54 53.80 52.81 48.39 56.50 45.01 L 56.84 44.69 C 57.30 44.24 57.75 43.92 58.18 43.70 L 59.42 44.34 C 59.80 44.54 60.14 44.73 60.44 44.89 L 60.44 44.89 Z" fill="#1e1e1e" fill-rule="evenodd" group-id="1,2" id="路径" node-id="23" stroke="none" target-height="22.192886" target-width="29.591686" target-x="33.84826" target-y="43.697433"></path><path d="M 72.66 38.64 C 72.84 38.64 73.13 38.86 73.19 39.26 C 73.25 39.66 73.28 39.74 73.41 39.87 C 73.53 40.01 73.92 41.60 74.06 42.01 L 75.23 45.41 C 75.54 46.31 76.18 48.03 76.36 48.84 L 76.48 49.44 C 76.60 50.09 76.72 50.82 76.75 51.19 L 76.78 51.58 C 76.78 51.86 76.66 52.36 75.79 53.06 L 69.15 50.66 C 64.63 49.01 62.01 48.00 61.28 47.65 C 60.47 47.26 60.29 46.40 60.75 45.07 L 61.58 45.53 C 62.65 46.10 63.79 46.51 64.69 45.41 C 65.72 44.16 67.64 42.26 69.37 40.84 L 70.00 40.33 C 71.42 39.23 72.50 38.63 72.66 38.64 Z" fill="#333233" fill-rule="evenodd" group-id="1,2" id="路径" node-id="24" stroke="none" target-height="14.428268" target-width="16.490044" target-x="60.29316" target-y="38.630665"></path><path d="M 73.12 41.60 C 73.17 42.90 73.02 43.64 72.69 43.84 C 72.22 44.10 70.50 45.57 69.49 46.15 L 69.25 46.28 C 68.29 46.73 68.77 47.07 69.48 47.32 C 70.18 47.57 70.29 46.74 71.68 46.94 C 73.08 47.14 75.37 48.02 75.98 49.15 L 76.16 49.49 C 76.48 50.15 76.14 49.94 75.21 49.71 L 75.00 49.66 C 74.18 49.48 73.16 49.28 71.93 49.07 C 73.10 49.88 73.91 50.34 74.36 50.47 L 75.13 50.62 C 75.65 50.73 76.29 50.82 76.68 50.59 L 76.75 51.19 L 76.75 51.19 L 76.78 51.58 C 76.78 51.69 76.77 51.83 76.69 52.00 C 75.02 51.75 72.76 50.11 71.16 49.31 L 70.34 48.89 C 68.36 47.87 66.13 46.54 66.72 45.85 C 67.18 45.32 69.31 43.91 73.12 41.60 Z" fill="#252325" fill-rule="evenodd" group-id="1,2" id="路径" node-id="25" stroke="none" target-height="10.398239" target-width="10.652008" target-x="66.13049" target-y="41.602295"></path><path d="M 73.37 42.47 C 73.54 42.45 73.77 42.95 73.66 43.51 C 73.54 44.07 72.82 44.76 72.05 45.20 C 71.28 45.64 69.56 46.56 69.73 46.81 C 69.89 47.05 69.87 47.32 69.48 47.25 C 69.08 47.17 68.52 46.83 68.98 46.55 C 69.44 46.26 72.27 44.32 72.63 43.99 C 73.00 43.67 73.11 43.34 73.14 43.04 C 73.18 42.74 73.20 42.48 73.37 42.47 Z" fill="#494747" fill-rule="evenodd" group-id="1,2" id="路径-1079" node-id="26" stroke="none" target-height="4.8674774" target-width="5.256981" target-x="68.5166" target-y="42.453712"></path><path d="M 34.96 53.22 C 36.65 54.29 39.73 56.59 40.47 57.39 C 41.65 58.66 40.92 60.19 36.26 61.16 C 31.60 62.13 26.81 61.34 25.63 61.19 C 24.44 61.04 17.14 60.81 14.50 60.02 C 13.16 59.63 12.34 58.92 12.04 57.91 L 12.36 57.74 C 13.19 57.35 14.59 56.86 17.03 56.49 C 20.38 55.98 22.60 56.06 23.32 55.82 L 24.30 55.50 C 24.65 55.38 25.01 55.27 25.34 55.18 L 25.79 55.07 C 26.44 54.92 28.63 54.01 29.34 53.74 L 29.77 53.58 C 30.32 53.36 31.41 53.05 33.28 52.77 C 33.77 52.69 34.33 52.84 34.96 53.22 Z" fill="#464646" fill-rule="evenodd" group-id="1,2" id="路径" node-id="27" stroke="none" target-height="9.432388" target-width="29.609684" target-x="12.038357" target-y="52.69368"></path><path d="M 41.15 58.13 C 40.54 58.34 37.07 59.76 34.28 59.89 C 31.48 60.02 30.79 59.96 30.10 59.52 C 29.42 59.07 29.01 58.34 29.20 58.00 C 29.38 57.65 32.24 55.96 33.16 55.69 C 34.08 55.43 35.68 55.30 36.19 55.40 C 36.70 55.50 35.31 54.87 34.37 54.88 C 33.44 54.89 34.16 53.82 33.16 54.09 C 32.16 54.37 32.18 54.77 32.14 55.07 C 32.10 55.37 29.31 57.35 27.98 58.35 C 26.65 59.36 26.06 60.04 26.09 60.50 C 26.13 60.96 28.41 61.46 30.92 61.49 C 33.43 61.51 36.80 60.91 38.46 60.36 C 40.13 59.81 41.00 59.26 41.34 59.04 C 41.68 58.81 41.76 57.92 41.15 58.13 Z" fill="#2e2e2e" fill-rule="evenodd" group-id="1,2" id="路径-1072" node-id="28" stroke="none" target-height="7.6938667" target-width="15.703369" target-x="26.056274" target-y="53.818703"></path><path d="M 41.15 58.13 C 41.76 57.92 41.68 58.81 41.34 59.04 L 41.12 59.17 C 40.68 59.45 39.85 59.90 38.46 60.36 C 36.80 60.91 33.43 61.51 30.92 61.49 C 28.41 61.46 26.13 60.96 26.09 60.50 C 26.08 60.30 26.18 60.06 26.41 59.77 C 28.67 59.98 30.52 60.04 31.97 59.95 L 32.50 59.95 C 32.97 59.95 33.55 59.92 34.28 59.89 C 37.07 59.76 40.54 58.34 41.15 58.13 Z" fill="#222222" fill-rule="evenodd" group-id="1,2" id="路径" node-id="29" stroke="none" target-height="3.590271" target-width="15.681646" target-x="26.077997" target-y="57.9223"></path><path d="M 52.90 47.19 C 53.16 47.36 54.77 47.87 54.41 48.16 C 54.05 48.45 51.88 49.11 50.66 50.05 C 49.44 50.99 47.44 52.30 46.70 52.64 C 45.96 52.99 44.94 53.28 43.87 53.00 C 42.81 52.72 40.68 51.90 40.15 50.76 C 39.63 49.63 39.78 49.05 40.52 48.16 C 41.25 47.28 47.50 43.05 48.28 43.24 C 49.05 43.43 53.66 45.43 54.41 45.91 C 55.16 46.40 54.80 46.63 53.89 46.34 C 52.98 46.05 49.67 44.16 48.28 44.78 C 46.88 45.40 41.66 48.75 41.45 49.45 C 41.25 50.16 44.30 51.66 44.93 51.62 C 45.56 51.58 50.94 48.92 51.78 48.36 C 52.63 47.80 52.63 47.02 52.90 47.19 Z" fill="#474646" fill-rule="evenodd" group-id="1,2" id="路径-1071" node-id="30" stroke="none" target-height="10.2351265" target-width="15.537106" target-x="39.625854" target-y="43.04538"></path><path d="M 32.88 53.09 C 32.93 52.10 33.05 51.14 33.74 50.13 C 34.42 49.12 35.50 48.39 36.02 48.34 C 36.36 48.32 36.58 48.32 36.67 48.34 L 36.40 48.82 C 37.02 48.80 37.42 48.83 37.61 48.91 C 37.88 49.03 38.95 47.90 38.91 47.76 C 38.86 47.62 37.76 47.47 37.61 47.44 C 37.45 47.41 38.73 46.35 38.99 46.11 C 39.25 45.87 40.44 46.43 40.65 46.45 C 40.87 46.47 42.42 45.49 42.59 45.09 C 42.76 44.69 41.88 43.97 41.91 43.84 C 41.95 43.70 42.77 42.82 43.03 42.78 C 43.29 42.75 43.97 43.62 44.10 43.92 C 44.22 44.22 44.48 45.11 44.28 45.35 C 44.09 45.59 40.06 48.39 38.99 49.23 C 37.92 50.07 37.29 50.47 36.96 50.27 C 36.62 50.07 36.73 49.94 35.84 49.96 C 34.95 49.99 34.83 50.24 34.93 50.38 C 35.04 50.51 35.62 50.48 35.54 50.63 C 35.46 50.77 35.10 51.23 34.87 51.62 C 34.65 52.00 34.31 52.61 34.06 52.90 C 33.81 53.19 32.83 54.07 32.88 53.09 Z" fill="#393939" fill-rule="evenodd" group-id="1,2" id="路径-1054" node-id="31" stroke="none" target-height="11.323849" target-width="11.649715" target-x="32.82617" target-y="42.748413"></path><path d="M 36.31 48.57 C 36.40 48.66 36.38 48.86 36.25 48.87 C 36.11 48.88 35.20 49.42 35.12 49.52 C 35.04 49.62 34.88 49.99 34.91 49.97 L 35.02 49.91 C 35.22 49.81 35.61 49.64 35.82 49.71 C 35.99 49.76 35.76 49.88 35.51 49.99 C 34.92 50.06 34.85 50.26 34.93 50.38 C 35.04 50.51 35.65 50.13 35.57 50.27 C 35.56 50.50 35.51 50.68 35.41 50.82 C 35.27 51.03 35.04 51.34 34.87 51.62 L 34.57 52.13 C 34.47 52.10 34.41 52.05 34.38 52.01 C 34.19 51.65 34.29 51.15 34.46 50.48 C 34.64 49.82 35.01 48.97 35.27 48.80 C 35.52 48.63 36.22 48.47 36.31 48.57 Z M 44.28 45.35 C 44.09 45.59 40.18 48.31 39.04 49.19 C 38.94 48.82 38.77 48.45 38.55 48.26 C 38.65 48.15 38.74 48.05 38.80 47.96 L 39.18 48.16 C 39.42 48.27 39.62 48.35 39.76 48.31 C 40.14 48.19 44.02 45.24 44.34 44.78 C 44.37 45.03 44.37 45.25 44.28 45.35 Z" fill="#181818" fill-rule="evenodd" group-id="1,2" id="形状" node-id="32" stroke="none" target-height="7.3506317" target-width="10.178799" target-x="34.18756" target-y="44.78041"></path><path d="M 15.92 63.97 C 15.95 63.46 16.58 62.05 17.99 60.66 C 19.39 59.26 21.86 57.63 23.40 56.87 C 24.94 56.10 25.93 55.64 26.40 55.31 C 26.87 54.98 27.31 54.30 27.48 54.19 C 27.64 54.07 29.01 53.47 29.28 53.51 C 29.45 53.53 29.49 53.58 29.38 53.66 C 29.31 53.69 29.22 53.74 29.10 53.80 C 28.93 53.90 28.27 54.58 27.86 55.08 C 27.44 55.58 26.58 56.18 25.39 56.91 C 24.19 57.64 21.89 59.03 20.70 60.29 C 19.51 61.54 18.73 63.49 18.62 64.04 C 18.51 64.58 18.75 64.59 18.86 64.34 C 18.96 64.09 18.86 63.13 20.59 61.06 C 22.33 58.99 25.27 57.31 25.99 56.88 C 26.72 56.45 29.35 54.36 29.91 54.00 C 30.48 53.64 32.24 52.44 34.23 52.31 C 36.23 52.18 37.56 52.74 38.68 53.21 C 39.80 53.69 45.23 56.76 45.62 57.08 C 46.01 57.40 46.47 56.83 45.96 56.60 C 45.45 56.37 40.64 53.69 39.34 53.01 C 38.04 52.33 37.56 51.36 37.49 50.40 C 37.42 49.44 37.76 48.80 38.15 48.36 C 38.54 47.91 41.70 45.52 43.02 44.61 C 44.35 43.70 46.43 42.43 47.85 42.17 C 49.27 41.91 50.02 41.83 53.11 43.08 C 56.20 44.34 59.80 46.18 62.21 47.29 C 64.62 48.39 70.84 50.69 71.92 51.14 C 72.99 51.59 73.71 52.23 73.94 52.31 C 74.16 52.39 74.87 52.43 73.94 51.72 C 73.00 51.01 71.33 50.42 69.47 49.68 C 67.62 48.93 65.29 48.10 65.04 47.56 C 64.78 47.02 65.60 46.28 67.12 44.77 C 68.64 43.26 70.71 41.45 71.63 40.89 C 72.55 40.33 73.09 40.09 73.21 40.08 C 73.33 40.06 74.21 41.75 74.06 41.91 C 73.90 42.06 73.27 42.30 72.14 43.14 C 71.01 43.98 68.65 46.21 68.34 46.55 C 68.03 46.89 68.23 46.93 68.67 47.25 C 69.10 47.58 72.37 48.94 73.41 49.40 C 74.45 49.85 76.32 50.58 75.86 51.44 C 75.41 52.30 73.63 53.36 73.09 53.43 C 72.55 53.50 71.76 52.89 70.37 52.37 C 68.98 51.84 65.85 50.71 61.66 48.94 C 57.47 47.18 51.93 44.74 50.25 44.39 C 48.58 44.04 47.72 44.18 46.58 44.78 C 45.44 45.38 42.73 47.27 41.99 47.84 C 41.25 48.42 40.00 49.16 40.21 50.26 C 40.43 51.36 41.03 51.59 42.61 52.41 C 44.19 53.22 47.05 55.00 47.53 55.31 C 48.00 55.63 48.35 55.99 47.17 57.08 C 46.00 58.16 45.30 59.15 44.76 58.97 C 44.21 58.79 41.81 57.03 39.39 55.81 C 36.97 54.59 35.22 53.81 33.81 54.06 C 32.41 54.30 30.92 54.94 29.51 55.99 C 28.11 57.04 25.47 58.74 24.62 59.53 C 23.76 60.33 22.44 61.26 21.26 64.03 C 20.82 65.11 20.67 65.53 20.18 65.45 C 19.70 65.37 15.89 64.49 15.92 63.97 Z" fill="#161616" fill-rule="evenodd" group-id="1,2" id="路径-1055" node-id="33" stroke="none" target-height="25.466557" target-width="60.42694" target-x="15.891357" target-y="40.06335"></path><path d="M 16.07 63.67 C 16.10 63.15 16.73 61.75 18.13 60.36 C 19.54 58.96 22.01 57.33 23.55 56.57 C 25.09 55.80 26.08 55.34 26.55 55.01 C 27.02 54.68 27.35 54.25 27.52 54.13 C 27.68 54.02 29.05 53.41 29.31 53.45 C 29.49 53.48 29.53 53.53 29.42 53.61 C 29.33 53.58 29.22 53.59 29.11 53.64 C 28.94 53.70 28.36 54.24 27.95 54.74 C 27.53 55.24 26.67 55.84 25.48 56.57 C 24.28 57.30 21.93 58.63 20.74 59.89 C 19.55 61.14 18.66 63.13 18.55 63.67 C 18.44 64.21 18.90 64.29 19.00 64.04 C 19.11 63.79 19.01 62.83 20.74 60.76 C 22.48 58.69 25.42 57.01 26.14 56.58 C 26.87 56.14 29.50 54.06 30.06 53.70 C 30.63 53.34 32.39 52.14 34.38 52.01 C 36.37 51.88 37.71 52.44 38.83 52.91 C 39.95 53.38 45.38 56.45 45.77 56.77 C 46.16 57.09 46.62 56.53 46.11 56.30 C 45.60 56.07 40.79 53.38 39.49 52.70 C 38.19 52.03 37.71 51.06 37.64 50.10 C 37.56 49.14 37.91 48.50 38.30 48.05 C 38.69 47.60 41.85 45.21 43.17 44.31 C 44.50 43.40 46.58 42.13 48.00 41.87 C 49.42 41.61 50.17 41.53 53.26 42.78 C 56.34 44.04 59.95 45.88 62.36 46.99 C 64.77 48.09 70.99 50.39 72.06 50.84 C 73.14 51.29 73.86 51.93 74.09 52.01 C 74.31 52.09 75.02 52.13 74.09 51.42 C 73.15 50.71 71.48 50.12 69.62 49.37 C 67.77 48.63 65.44 47.79 65.19 47.26 C 64.93 46.72 65.75 45.97 67.27 44.47 C 68.79 42.96 70.86 41.15 71.78 40.59 C 72.70 40.03 73.23 39.79 73.36 39.78 C 73.48 39.76 74.15 41.48 74.00 41.64 C 73.84 41.79 73.21 42.03 72.08 42.87 C 70.95 43.71 68.59 45.94 68.28 46.28 C 67.97 46.62 67.99 46.90 68.42 47.23 C 68.86 47.56 72.13 48.92 73.17 49.37 C 74.21 49.83 76.08 50.56 75.62 51.42 C 75.17 52.28 73.78 53.06 73.24 53.13 C 72.70 53.20 71.80 52.45 70.41 51.93 C 69.02 51.40 66.08 50.31 61.89 48.54 C 57.70 46.78 52.02 44.13 50.35 43.78 C 48.68 43.42 47.81 43.56 46.67 44.16 C 45.53 44.76 42.78 46.68 42.04 47.26 C 41.30 47.83 39.84 48.66 40.05 49.76 C 40.26 50.86 40.90 51.28 42.48 52.10 C 44.06 52.91 47.20 54.70 47.68 55.01 C 48.15 55.32 48.50 55.69 47.32 56.77 C 46.15 57.86 45.64 58.61 45.09 58.43 C 44.54 58.25 41.95 56.61 39.53 55.39 C 37.11 54.17 35.36 53.39 33.95 53.64 C 32.55 53.88 31.08 54.56 29.65 55.57 C 28.22 56.58 25.61 58.32 24.75 59.11 C 23.90 59.90 22.42 60.90 21.24 63.67 C 20.80 64.75 20.65 65.17 20.17 65.09 C 19.68 65.02 16.04 64.19 16.07 63.67 Z" fill="#363636" fill-rule="evenodd" group-id="1,2" id="路径-1055" node-id="34" stroke="none" target-height="25.41101" target-width="60.036255" target-x="16.040771" target-y="39.761963"></path><path d="M 32.76 53.62 C 32.99 53.50 33.17 53.27 33.16 52.87 C 33.15 52.48 33.10 51.80 32.96 51.71 C 32.83 51.62 32.41 51.49 31.76 51.91 C 31.10 52.33 31.02 52.76 31.22 53.01 C 31.43 53.26 31.87 53.53 32.17 53.58 C 32.47 53.63 32.54 53.73 32.76 53.62 Z" fill="#535353" fill-rule="evenodd" group-id="1,2" id="路径-1056" node-id="35" stroke="none" target-height="2.238037" target-width="2.1516418" target-x="31.022858" target-y="51.494354"></path><path d="M 33.07 52.57 L 33.12 52.33 L 33.15 52.70 C 33.16 52.76 33.16 52.82 33.16 52.87 C 33.17 53.27 32.99 53.50 32.76 53.62 C 32.54 53.73 32.47 53.63 32.17 53.58 C 31.87 53.53 31.43 53.26 31.22 53.01 C 31.16 52.94 31.13 52.84 31.13 52.74 L 31.30 52.91 L 31.30 52.91 C 31.52 53.12 32.15 53.36 32.31 53.30 C 32.48 53.24 32.28 52.87 32.40 52.75 C 32.51 52.64 32.71 53.14 32.88 52.95 C 32.95 52.88 33.01 52.75 33.07 52.57 Z" fill="#2b2b2b" fill-rule="evenodd" group-id="1,2" id="路径" node-id="36" stroke="none" target-height="1.4035149" target-width="2.0480042" target-x="31.126495" target-y="52.328876"></path><path d="M 38.79 49.79 C 39.01 49.78 39.48 49.75 39.56 48.98 C 39.65 48.20 39.60 47.54 40.00 46.59 C 40.40 45.65 40.67 45.10 40.93 44.92 C 41.19 44.73 41.48 44.54 41.32 44.49 C 41.15 44.43 40.56 44.51 40.38 44.72 C 40.21 44.93 40.11 45.33 39.85 45.48 C 39.58 45.63 39.19 45.89 38.80 46.49 C 38.42 47.09 38.16 47.87 38.06 48.46 C 37.95 49.04 38.11 49.41 38.21 49.56 C 38.32 49.71 38.56 49.79 38.79 49.79 Z" fill="#393939" fill-rule="evenodd" group-id="1,2" id="路径-1057" node-id="37" stroke="none" target-height="5.36499" target-width="3.527893" target-x="37.950256" target-y="44.428345"></path><path d="M 41.34 44.59 C 41.28 44.68 41.10 44.80 40.93 44.92 C 40.67 45.10 40.40 45.65 40.00 46.59 C 39.60 47.54 39.65 48.20 39.56 48.98 C 39.48 49.75 39.01 49.78 38.79 49.79 C 38.56 49.79 38.32 49.71 38.21 49.56 C 38.12 49.43 37.99 49.15 38.03 48.69 L 38.06 48.46 L 38.06 48.49 C 38.11 48.72 38.19 48.95 38.32 49.02 C 38.57 49.16 39.02 49.08 39.23 48.76 C 39.45 48.44 39.57 47.59 39.73 47.04 C 39.89 46.50 40.57 45.10 40.76 44.91 C 40.86 44.81 41.03 44.69 41.23 44.62 L 41.34 44.59 Z" fill="#1b1b1b" fill-rule="evenodd" group-id="1,2" id="路径" node-id="38" stroke="none" target-height="5.2038994" target-width="3.3452072" target-x="37.994183" target-y="44.589436"></path><path d="M 43.92 45.26 C 43.61 45.33 43.10 45.35 42.97 44.95 C 42.84 44.56 42.92 43.42 43.03 42.78 C 43.14 42.14 43.34 41.81 43.67 41.51 C 44.00 41.20 44.65 40.54 44.94 40.49 C 45.22 40.44 45.75 40.46 46.14 40.56 C 46.77 40.51 47.52 40.62 48.50 41.09 C 49.48 41.56 50.43 42.05 50.47 42.39 C 50.52 42.72 50.44 43.18 50.23 43.23 C 50.02 43.27 49.52 43.18 49.22 43.17 C 48.91 43.15 48.22 43.13 47.86 42.73 C 47.50 42.32 47.19 42.27 46.89 42.18 C 46.58 42.08 46.42 41.87 46.21 41.80 C 46.01 41.74 45.21 41.65 44.94 41.66 C 44.67 41.67 44.65 41.80 44.60 42.11 C 44.54 42.42 44.41 42.57 44.35 42.89 C 44.30 43.21 44.56 43.82 44.60 44.22 C 44.63 44.63 44.23 45.20 43.92 45.26 Z" fill="#3c3c3c" fill-rule="evenodd" group-id="1,2" id="路径-1058" node-id="39" stroke="none" target-height="4.91304" target-width="7.6726723" target-x="42.844055" target-y="40.436462"></path><path d="M 44.92 41.20 C 44.71 41.38 44.92 41.55 45.19 41.55 L 45.50 41.54 C 45.69 41.54 45.94 41.55 46.41 41.65 C 47.15 41.81 48.39 42.35 48.75 42.64 C 49.10 42.93 49.60 43.13 49.66 43.10 L 49.72 43.04 C 49.81 42.94 49.93 42.69 49.67 42.40 L 49.36 42.06 C 49.26 41.94 49.29 41.91 49.56 41.97 C 50.03 42.07 50.29 42.47 50.29 42.22 C 50.29 42.18 50.28 42.14 50.27 42.09 C 50.39 42.20 50.46 42.30 50.47 42.39 C 50.52 42.72 50.44 43.18 50.23 43.23 C 50.02 43.27 49.52 43.18 49.22 43.17 C 48.91 43.15 48.22 43.13 47.86 42.73 C 47.50 42.32 47.19 42.27 46.89 42.18 C 46.58 42.08 46.42 41.87 46.21 41.80 C 46.01 41.74 45.21 41.65 44.94 41.66 C 44.67 41.67 44.65 41.80 44.60 42.11 C 44.54 42.42 44.41 42.57 44.35 42.89 C 44.30 43.21 44.56 43.82 44.60 44.22 C 44.63 44.63 44.23 45.20 43.92 45.26 C 43.61 45.33 43.10 45.35 42.97 44.95 C 42.94 44.85 42.92 44.70 42.91 44.52 C 43.09 44.75 43.27 44.93 43.42 44.92 C 43.79 44.91 44.00 44.49 44.00 44.00 C 44.00 43.50 44.57 44.27 44.48 43.75 C 44.39 43.23 44.20 42.82 44.21 42.50 C 44.22 42.30 44.54 41.11 44.81 40.80 C 45.08 40.49 44.93 41.07 44.92 41.20 Z" fill="#141414" fill-rule="evenodd" group-id="1,2" id="路径" node-id="40" stroke="none" target-height="4.8545685" target-width="7.6067276" target-x="42.91" target-y="40.494934"></path><path d="M 83.77 63.67 C 83.21 62.69 81.74 58.66 81.70 58.41 C 81.66 58.16 81.93 58.12 81.90 57.97 C 81.87 57.82 81.19 56.41 81.12 56.27 C 81.05 56.13 80.76 56.35 80.61 56.27 C 80.46 56.19 78.85 52.89 78.74 52.77 C 78.63 52.64 78.81 52.53 78.74 52.44 C 78.67 52.35 77.81 50.81 77.62 50.77 C 77.42 50.73 76.46 51.04 75.69 51.22 C 74.93 51.40 69.81 52.55 68.40 52.91 C 67.00 53.27 65.63 53.16 64.91 52.91 C 64.18 52.66 57.49 50.33 56.85 50.16 C 56.20 49.98 55.01 50.07 54.57 50.16 C 54.13 50.24 53.74 50.39 52.15 51.30 C 50.57 52.21 46.23 55.36 44.10 57.46 C 41.97 59.56 40.09 61.89 39.80 62.36 C 39.51 62.84 39.14 63.65 39.41 64.45 C 39.69 65.24 40.91 67.51 41.18 68.01 C 41.45 68.50 40.44 68.99 38.78 69.59 C 37.12 70.18 30.59 70.41 27.44 70.31 C 24.29 70.22 15.78 67.57 13.61 66.13 C 11.45 64.69 11.26 61.79 11.25 61.62 C 11.25 61.45 11.27 60.03 11.25 59.56 C 11.23 59.09 10.91 58.77 10.70 58.91 C 10.50 59.05 10.00 59.80 10.00 62.00 C 10.00 64.20 10.77 65.25 11.90 66.26 C 13.03 67.28 15.62 68.53 17.41 69.32 C 19.20 70.11 24.28 71.66 25.48 71.72 C 26.68 71.77 28.00 71.73 28.06 71.72 C 28.12 71.70 28.16 72.00 30.00 72.00 C 31.84 72.00 33.96 72.00 34.94 72.00 C 35.92 72.00 38.59 71.60 39.99 70.62 C 41.40 69.64 41.89 69.01 42.59 68.18 C 43.29 67.35 44.75 66.12 46.02 65.98 C 46.86 65.88 47.40 65.85 47.65 65.87 C 47.67 66.02 47.75 66.11 47.92 66.13 C 48.17 66.17 49.07 66.38 49.33 66.52 C 49.59 66.67 51.71 68.17 51.82 68.35 C 51.93 68.54 51.76 68.71 52.04 68.95 C 52.33 69.20 53.87 70.53 56.10 71.10 C 58.33 71.66 62.22 72.00 64.00 72.00 C 65.78 72.00 71.23 72.00 73.33 72.00 C 75.44 72.00 78.11 71.57 79.93 71.10 C 81.75 70.62 84.49 69.22 85.34 68.69 C 85.90 68.34 86.07 67.84 85.82 67.18 C 84.82 65.50 84.14 64.33 83.77 63.67 Z" fill="#e74c5c" fill-rule="evenodd" group-id="1,2" id="路径-1059" node-id="41" stroke="none" target-height="22.02277" target-width="76.066124" target-x="10" target-y="49.97723"></path><path d="M 43.62 61.12 C 43.80 60.92 39.93 62.46 39.84 62.58 C 39.74 62.71 39.50 63.50 39.58 63.86 C 39.65 64.23 41.34 67.41 41.45 67.62 C 41.55 67.83 42.02 68.43 42.10 68.35 C 42.19 68.28 43.45 66.42 43.94 66.17 C 44.43 65.93 43.96 65.98 43.78 65.98 C 43.60 65.98 42.97 65.58 42.67 65.28 C 42.37 64.98 41.82 64.34 41.80 63.76 C 41.78 63.18 43.44 61.31 43.62 61.12 Z" fill="#f66d77" fill-rule="evenodd" group-id="1,2" id="路径-1074" node-id="42" stroke="none" target-height="7.503174" target-width="4.929203" target-x="39.500305" target-y="60.924927"></path><path d="M 64.91 71.12 C 64.96 70.85 66.38 71.04 66.60 71.23 L 67.49 72.00 L 67.49 72.00 L 64.70 72.00 L 64.89 71.23 C 64.90 71.19 64.90 71.15 64.91 71.12 Z" fill="#60272b" fill-rule="evenodd" group-id="1,2" id="路径" node-id="43" stroke="none" target-height="1.1484985" target-width="2.7981567" target-x="64.69539" target-y="70.848816"></path><path d="M 80.44 56.02 C 80.53 56.17 80.59 56.26 80.61 56.27 C 80.76 56.35 81.05 56.13 81.12 56.27 L 81.59 57.24 C 81.75 57.59 81.89 57.90 81.90 57.97 C 81.93 58.12 81.66 58.16 81.70 58.41 L 81.72 58.47 L 81.72 58.47 C 80.76 58.74 79.02 59.13 77.68 59.41 L 76.65 59.61 C 74.95 59.94 57.55 62.37 55.54 62.69 C 53.53 63.01 53.07 64.96 52.90 65.28 L 52.75 65.50 C 52.60 65.72 52.35 66.07 52.00 66.55 L 51.11 67.77 L 50.03 67.00 C 49.69 66.76 49.42 66.57 49.33 66.52 C 49.07 66.38 48.17 66.17 47.92 66.13 C 47.75 66.11 47.67 66.02 47.65 65.87 L 47.62 65.87 L 47.62 65.87 C 47.57 65.59 47.61 65.33 47.75 65.10 L 47.96 64.76 C 48.57 63.82 50.04 61.71 51.22 61.14 C 52.59 60.48 63.21 58.60 67.71 57.91 L 77.02 56.51 C 78.37 56.31 79.51 56.14 80.24 56.04 L 80.44 56.02 Z" fill="#df4356" fill-rule="evenodd" group-id="1,2" id="路径" node-id="44" stroke="none" target-height="11.75222" target-width="34.365414" target-x="47.568974" target-y="56.02134"></path><path d="M 80.44 56.02 C 80.53 56.17 80.59 56.26 80.61 56.27 C 80.76 56.35 81.05 56.13 81.12 56.27 L 81.74 57.57 C 81.83 57.77 81.90 57.92 81.90 57.97 C 81.93 58.12 81.66 58.16 81.70 58.41 L 81.72 58.47 C 80.88 58.70 79.44 59.03 78.20 59.30 L 76.65 59.61 L 75.11 59.86 C 70.40 60.58 57.27 62.42 55.54 62.69 C 54.13 62.92 53.48 63.95 53.16 64.65 L 52.21 63.53 C 51.44 62.64 50.87 62.01 50.48 61.65 C 50.74 61.43 50.99 61.26 51.22 61.14 C 52.59 60.48 63.21 58.60 67.71 57.91 L 77.02 56.51 L 80.24 56.04 L 80.24 56.04 L 80.44 56.02 Z" fill="#df5243" fill-rule="evenodd" group-id="1,2" id="路径" node-id="45" stroke="none" target-height="8.629814" target-width="31.450489" target-x="50.4839" target-y="56.02134"></path><path d="M 80.44 56.02 C 80.53 56.17 80.59 56.26 80.61 56.27 C 80.76 56.35 81.05 56.13 81.12 56.27 L 81.74 57.57 C 81.83 57.77 81.90 57.92 81.90 57.97 C 81.93 58.12 81.66 58.16 81.70 58.41 L 81.72 58.47 C 80.88 58.70 79.44 59.03 78.20 59.30 L 76.65 59.61 L 75.11 59.86 C 70.40 60.58 57.27 62.42 55.54 62.69 C 54.67 62.83 54.09 63.27 53.70 63.76 C 53.35 62.40 52.63 61.49 51.54 61.02 L 52.08 60.86 C 55.03 60.05 63.74 58.52 67.71 57.91 L 77.02 56.51 L 80.24 56.04 L 80.24 56.04 L 80.44 56.02 Z" fill="#d56931" fill-rule="evenodd" group-id="1,2" id="路径" node-id="46" stroke="none" target-height="7.737652" target-width="30.394249" target-x="51.54014" target-y="56.02134"></path><path d="M 80.44 56.02 C 80.53 56.17 80.59 56.26 80.61 56.27 C 80.76 56.35 81.05 56.13 81.12 56.27 L 81.74 57.57 L 81.89 57.92 C 81.90 57.94 81.90 57.96 81.90 57.97 C 81.93 58.12 81.66 58.16 81.70 58.41 L 81.72 58.47 L 80.99 58.66 L 79.92 58.91 C 79.36 59.05 78.76 59.18 78.20 59.30 L 76.65 59.61 L 75.11 59.86 L 55.54 62.69 L 55.54 62.69 C 55.39 62.72 55.24 62.75 55.10 62.79 L 54.03 60.39 L 55.48 60.09 C 59.35 59.30 64.80 58.36 67.71 57.91 L 77.02 56.51 L 80.24 56.04 L 80.44 56.02 Z" fill="#d8842d" fill-rule="evenodd" group-id="1,2" id="路径" node-id="47" stroke="none" target-height="6.7729073" target-width="27.903648" target-x="54.03074" target-y="56.02134"></path><path d="M 80.44 56.02 C 80.53 56.17 80.59 56.26 80.61 56.27 C 80.76 56.35 81.05 56.13 81.12 56.27 L 81.74 57.57 L 81.89 57.92 C 81.90 57.94 81.90 57.96 81.90 57.97 C 81.93 58.12 81.66 58.16 81.70 58.41 L 81.72 58.47 L 80.99 58.66 L 79.92 58.91 C 79.36 59.05 78.76 59.18 78.20 59.30 L 76.65 59.61 L 75.11 59.86 L 59.53 62.11 L 61.30 58.99 L 64.82 58.38 C 65.70 58.23 66.51 58.10 67.21 57.99 L 77.02 56.51 L 80.24 56.04 L 80.44 56.02 Z" fill="#cb9d64" fill-rule="evenodd" group-id="1,2" id="路径" node-id="48" stroke="none" target-height="6.0919952" target-width="22.40165" target-x="59.532738" target-y="56.02134"></path><path d="M 80.44 56.02 C 80.53 56.17 80.59 56.26 80.61 56.27 C 80.76 56.35 81.05 56.13 81.12 56.27 L 81.74 57.57 L 81.89 57.92 C 81.90 57.94 81.90 57.96 81.90 57.97 C 81.93 58.12 81.66 58.16 81.70 58.41 L 81.72 58.47 L 80.99 58.66 L 79.92 58.91 C 79.36 59.05 78.76 59.18 78.20 59.30 L 76.65 59.61 L 75.11 59.86 L 63.46 61.55 L 65.61 58.25 L 67.21 57.99 L 67.21 57.99 L 77.02 56.51 L 80.24 56.04 L 80.44 56.02 Z" fill="#b4b9ae" fill-rule="evenodd" group-id="1,2" id="路径" node-id="49" stroke="none" target-height="5.524006" target-width="18.469654" target-x="63.464733" target-y="56.02134"></path><path d="M 80.44 56.02 C 80.53 56.17 80.59 56.26 80.61 56.27 C 80.76 56.35 81.05 56.13 81.12 56.27 L 81.74 57.57 L 81.89 57.92 C 81.90 57.94 81.90 57.96 81.90 57.97 C 81.93 58.12 81.66 58.16 81.70 58.41 L 81.72 58.47 L 80.99 58.66 L 79.92 58.91 C 79.36 59.05 78.76 59.18 78.20 59.30 L 76.65 59.61 L 75.11 59.86 L 68.15 60.87 L 69.46 57.65 L 77.02 56.51 L 80.24 56.04 L 80.44 56.02 Z" fill="#b0c5c4" fill-rule="evenodd" group-id="1,2" id="路径" node-id="50" stroke="none" target-height="4.844002" target-width="13.785652" target-x="68.148735" target-y="56.02134"></path><path d="M 81.09 56.52 C 81.02 56.36 80.47 57.07 79.46 57.26 C 78.46 57.46 66.11 59.45 64.92 60.26 C 63.73 61.07 71.35 59.59 72.93 59.35 C 74.51 59.11 79.37 58.01 80.10 57.86 C 80.84 57.71 81.60 57.95 81.58 57.71 C 81.56 57.48 81.17 56.68 81.09 56.52 Z" fill="#a2b7b5" fill-rule="evenodd" group-id="1,2" id="路径-1076" node-id="51" stroke="none" target-height="4.711006" target-width="17.870743" target-x="63.72796" target-y="56.355957"></path><path d="M 63.17 60.37 C 64.21 60.24 74.89 58.25 74.92 58.50 C 74.95 58.75 65.05 60.46 63.88 60.61 C 62.71 60.76 62.13 60.50 63.17 60.37 Z" fill="#989575" fill-rule="evenodd" group-id="1,2" id="路径-1075" node-id="52" stroke="none" target-height="2.5016708" target-width="12.818184" target-x="62.129395" target-y="58.254375"></path><path d="M 74.92 58.50 C 74.93 58.64 71.77 59.25 68.81 59.78 L 68.95 59.37 L 72.26 58.82 C 73.80 58.57 74.91 58.42 74.92 58.50 Z" fill="#96aba1" fill-rule="evenodd" group-id="1,2" id="路径" node-id="53" stroke="none" target-height="1.3568611" target-width="6.1236954" target-x="68.81033" target-y="58.421295"></path><path d="M 56.61 59.89 C 54.94 60.25 51.98 61.18 51.18 61.86 C 50.44 62.51 48.65 64.77 48.34 65.12 L 48.13 65.34 C 48.01 65.49 47.92 65.67 48.17 65.78 L 48.66 65.98 C 48.95 66.09 49.25 66.04 49.30 66.02 C 49.35 66.00 49.64 65.76 50.00 65.33 L 50.76 64.41 C 51.29 63.75 52.58 62.28 54.11 61.88 L 54.53 61.78 C 56.81 61.30 64.43 60.14 65.17 60.11 L 65.32 60.11 C 65.81 60.14 65.04 60.47 62.09 60.96 L 59.16 61.42 C 56.80 61.78 55.00 62.04 54.47 62.25 C 54.01 62.43 53.68 62.73 53.50 63.17 L 53.35 63.85 C 53.17 64.57 53.00 65.03 52.84 65.23 L 51.23 67.48 C 51.17 67.56 51.11 67.65 51.04 67.73 L 50.03 67.00 L 49.33 66.52 C 49.07 66.38 48.17 66.17 47.92 66.13 C 47.75 66.11 47.67 66.02 47.65 65.87 L 47.62 65.87 C 47.57 65.59 47.61 65.33 47.75 65.10 L 47.96 64.76 L 48.30 64.26 C 49.01 63.21 50.22 61.62 51.22 61.14 C 51.80 60.86 54.06 60.36 56.82 59.82 C 56.90 59.82 56.88 59.83 56.72 59.87 L 56.61 59.89 Z" fill="#a7213a" fill-rule="evenodd" group-id="1,2" id="路径" node-id="54" stroke="none" target-height="7.9125977" target-width="18.241825" target-x="47.568974" target-y="59.81655"></path><path d="M 65.32 60.11 C 65.81 60.14 65.04 60.47 62.09 60.96 L 59.16 61.42 L 56.29 61.87 C 55.39 62.01 54.75 62.14 54.47 62.25 C 54.01 62.43 53.68 62.73 53.50 63.17 L 53.35 63.85 C 53.17 64.57 53.00 65.03 52.84 65.23 L 52.78 65.31 L 52.40 65.29 C 52.23 65.28 52.11 65.25 52.03 65.23 C 51.16 64.92 51.77 63.63 52.27 62.87 C 52.80 62.44 53.43 62.06 54.11 61.88 L 54.53 61.78 L 55.09 61.67 C 57.87 61.14 64.48 60.14 65.17 60.11 L 65.32 60.11 Z" fill="#bc4849" fill-rule="evenodd" group-id="1,2" id="路径" node-id="55" stroke="none" target-height="5.2033043" target-width="14.646542" target-x="51.164257" target-y="60.11157"></path><path d="M 65.32 60.11 C 65.81 60.14 65.04 60.47 62.09 60.96 L 59.16 61.42 L 56.29 61.87 L 55.67 61.97 C 55.10 62.07 54.68 62.16 54.47 62.25 C 54.18 62.36 53.94 62.53 53.76 62.74 C 53.94 62.37 54.14 62.06 54.38 61.81 L 54.53 61.78 L 55.09 61.67 L 56.49 61.42 C 59.63 60.87 64.58 60.13 65.17 60.11 L 65.32 60.11 Z" fill="#a96e3f" fill-rule="evenodd" group-id="1,2" id="路径" node-id="56" stroke="none" target-height="2.6313095" target-width="12.054249" target-x="53.75655" target-y="60.11157"></path><path d="M 54.57 50.16 C 55.01 50.07 56.20 49.98 56.85 50.16 L 57.13 50.24 C 58.57 50.71 64.24 52.68 64.91 52.91 C 65.63 53.16 67.00 53.27 68.40 52.91 L 70.03 52.52 C 72.10 52.03 75.12 51.36 75.69 51.22 L 76.22 51.09 C 76.85 50.92 77.46 50.74 77.62 50.77 C 77.81 50.81 78.67 52.35 78.74 52.44 C 78.81 52.53 78.63 52.64 78.74 52.77 L 78.86 52.98 C 78.95 53.15 79.07 53.39 79.21 53.66 L 75.72 54.53 C 69.89 55.94 66.54 56.58 65.65 56.46 C 63.98 56.23 58.84 53.76 56.21 53.48 C 54.52 53.30 51.65 55.18 47.58 59.12 L 47.10 59.59 L 44.35 57.22 C 46.56 55.13 50.63 52.17 52.15 51.30 L 52.76 50.95 C 53.85 50.35 54.20 50.23 54.57 50.16 Z" fill="#eb6055" fill-rule="evenodd" group-id="1,2" id="路径" node-id="57" stroke="none" target-height="9.6109085" target-width="34.862427" target-x="44.351746" target-y="49.97723"></path><path d="M 56.85 50.16 L 57.13 50.24 L 64.91 52.91 L 64.91 52.91 C 65.63 53.16 67.00 53.27 68.40 52.91 L 70.03 52.52 L 75.69 51.22 L 75.69 51.22 L 76.22 51.09 C 76.85 50.92 77.46 50.74 77.62 50.77 C 77.81 50.81 78.67 52.35 78.74 52.44 C 78.81 52.53 78.63 52.64 78.74 52.77 L 78.86 52.98 L 79.21 53.66 L 79.21 53.66 L 75.72 54.53 L 73.29 55.10 C 68.95 56.11 66.40 56.57 65.65 56.46 C 63.98 56.23 58.84 53.76 56.21 53.48 C 54.67 53.31 52.14 54.86 48.62 58.13 L 46.09 55.70 L 46.93 55.02 C 48.93 53.43 51.12 51.89 52.15 51.30 L 52.76 50.95 L 53.29 50.67 C 53.98 50.31 54.27 50.21 54.57 50.16 C 55.01 50.07 56.20 49.98 56.85 50.16 Z" fill="#e09047" fill-rule="evenodd" group-id="1,2" id="路径" node-id="58" stroke="none" target-height="8.153172" target-width="33.124763" target-x="46.08941" target-y="49.97723"></path><path d="M 56.85 50.16 L 57.13 50.24 L 64.91 52.91 C 65.63 53.16 67.00 53.27 68.40 52.91 L 70.03 52.52 L 75.69 51.22 L 76.22 51.09 C 76.85 50.92 77.46 50.74 77.62 50.77 C 77.81 50.81 78.67 52.35 78.74 52.44 C 78.81 52.53 78.63 52.64 78.74 52.77 L 78.86 52.98 L 79.21 53.66 L 75.72 54.53 L 73.29 55.10 L 71.10 55.60 C 68.09 56.26 66.27 56.55 65.65 56.46 C 63.98 56.23 58.84 53.76 56.21 53.48 C 54.92 53.34 52.93 54.41 50.24 56.69 L 47.94 54.23 L 48.78 53.60 C 50.16 52.58 51.44 51.71 52.15 51.30 L 52.76 50.95 L 53.29 50.67 L 53.74 50.44 C 54.12 50.26 54.34 50.20 54.57 50.16 C 55.01 50.07 56.20 49.98 56.85 50.16 Z" fill="#d8b44b" fill-rule="evenodd" group-id="1,2" id="路径" node-id="59" stroke="none" target-height="6.716774" target-width="31.275234" target-x="47.93894" target-y="49.97723"></path><path d="M 77.62 50.77 C 77.81 50.81 78.67 52.35 78.74 52.44 C 78.81 52.53 78.63 52.64 78.74 52.77 L 78.86 52.98 L 79.21 53.66 L 75.72 54.53 L 73.29 55.10 L 71.10 55.60 L 69.62 55.91 C 67.48 56.35 66.16 56.53 65.65 56.46 C 64.84 56.35 63.20 55.70 61.43 55.04 L 62.62 52.13 L 64.91 52.91 C 65.63 53.16 67.00 53.27 68.40 52.91 L 70.03 52.52 L 75.69 51.22 L 76.22 51.09 C 76.85 50.92 77.46 50.74 77.62 50.77 Z" fill="#c9ae58" fill-rule="evenodd" group-id="1,2" id="路径" node-id="60" stroke="none" target-height="5.7941475" target-width="17.782364" target-x="61.43181" target-y="50.73759"></path><path d="M 77.62 50.77 C 77.81 50.81 78.67 52.35 78.74 52.44 C 78.81 52.53 78.63 52.64 78.74 52.77 L 78.86 52.98 L 79.21 53.66 L 75.72 54.53 L 73.29 55.10 L 71.10 55.60 L 69.62 55.91 L 68.69 56.10 C 67.09 56.40 66.08 56.52 65.65 56.46 C 65.18 56.39 64.42 56.15 63.52 55.82 L 64.63 52.81 L 64.91 52.91 C 65.63 53.16 67.00 53.27 68.40 52.91 L 70.03 52.52 L 75.69 51.22 L 76.22 51.09 C 76.85 50.92 77.46 50.74 77.62 50.77 Z" fill="#c5b590" fill-rule="evenodd" group-id="1,2" id="路径" node-id="61" stroke="none" target-height="5.783222" target-width="15.69231" target-x="63.521862" target-y="50.73759"></path><path d="M 77.62 50.77 C 77.81 50.81 78.67 52.35 78.74 52.44 C 78.81 52.53 78.63 52.64 78.74 52.77 L 78.86 52.98 L 79.21 53.66 L 75.72 54.53 L 73.29 55.10 L 71.10 55.60 L 69.62 55.91 L 68.69 56.10 C 67.79 56.27 67.07 56.38 66.54 56.44 L 65.72 56.47 L 65.50 56.43 L 66.03 53.12 C 66.72 53.17 67.56 53.13 68.40 52.91 L 70.03 52.52 L 75.69 51.22 L 76.22 51.09 C 76.85 50.92 77.46 50.74 77.62 50.77 Z" fill="#cac3b1" fill-rule="evenodd" group-id="1,2" id="路径" node-id="62" stroke="none" target-height="5.7305374" target-width="13.712311" target-x="65.50186" target-y="50.73759"></path><path d="M 77.62 50.77 C 77.81 50.81 78.67 52.35 78.74 52.44 C 78.81 52.53 78.63 52.64 78.74 52.77 L 78.86 52.98 L 79.21 53.66 L 75.72 54.53 L 73.29 55.10 L 71.10 55.60 L 69.62 55.91 L 68.15 56.20 L 68.15 56.20 L 67.30 53.11 C 67.66 53.07 68.03 53.01 68.40 52.91 L 70.03 52.52 L 75.69 51.22 L 76.22 51.09 C 76.85 50.92 77.46 50.74 77.62 50.77 Z" fill="#c6ccca" fill-rule="evenodd" group-id="1,2" id="路径" node-id="63" stroke="none" target-height="5.458973" target-width="11.913925" target-x="67.30025" target-y="50.73759"></path><path d="M 11.74 62.11 C 11.41 62.00 11.25 61.70 11.06 61.81 C 10.88 61.92 10.88 63.06 11.30 64.07 C 11.72 65.09 12.30 66.04 13.41 66.86 C 14.53 67.68 15.81 68.13 17.27 68.67 C 18.74 69.20 21.83 70.11 22.69 70.31 C 23.56 70.50 25.73 70.81 26.39 70.88 C 27.04 70.95 28.62 70.97 29.60 70.98 C 30.59 70.99 34.07 70.98 35.28 70.98 C 36.49 70.98 38.33 70.68 39.84 69.87 C 41.35 69.06 41.94 68.61 41.94 68.52 C 41.93 68.44 41.61 68.12 41.33 67.61 C 41.05 67.10 39.60 64.53 39.49 63.91 C 39.38 63.29 39.72 62.74 39.76 62.66 C 39.79 62.57 39.75 62.51 39.43 62.58 C 39.11 62.64 33.19 63.92 31.74 64.20 C 30.30 64.47 25.21 64.52 23.84 64.42 C 22.48 64.32 15.39 62.94 14.00 62.66 C 12.61 62.37 12.06 62.22 11.74 62.11 Z" fill="#dfdfe1" fill-rule="evenodd" group-id="1,2" id="路径-1060" node-id="64" stroke="none" target-height="9.292908" target-width="31.068207" target-x="10.875885" target-y="61.697144"></path><path d="M 11.06 61.81 C 11.25 61.70 11.41 62.00 11.74 62.11 L 12.21 62.25 C 12.57 62.35 13.11 62.47 14.00 62.66 L 15.60 62.97 C 18.20 63.48 22.77 64.34 23.84 64.42 C 25.21 64.52 30.30 64.47 31.74 64.20 L 39.43 62.58 L 39.43 62.58 C 39.75 62.51 39.79 62.57 39.76 62.66 L 39.66 62.86 C 39.63 62.93 39.59 63.01 39.56 63.11 C 39.50 62.88 39.24 62.83 38.78 62.95 L 38.04 63.13 C 36.38 63.51 32.92 64.23 31.87 64.39 C 30.72 64.57 28.94 64.67 26.82 64.67 L 25.30 64.65 C 23.58 64.62 22.86 64.54 20.31 64.12 L 19.25 63.94 C 16.48 63.43 12.59 62.58 11.70 62.33 L 11.54 62.28 C 11.15 62.12 11.21 62.33 11.20 63.17 C 11.19 63.85 12.23 65.60 13.11 66.62 C 12.19 65.86 11.68 64.99 11.30 64.07 C 10.88 63.06 10.88 61.92 11.06 61.81 Z" fill="#ffffff" fill-rule="evenodd" group-id="1,2" id="路径" node-id="65" stroke="none" target-height="4.9242554" target-width="28.912415" target-x="10.875885" target-y="61.697144"></path><path d="M 45.67 65.47 C 44.82 65.57 44.39 65.89 43.99 65.89 C 43.58 65.89 43.50 65.86 42.87 65.32 C 42.23 64.78 41.84 64.05 41.92 63.61 C 42.00 63.18 43.17 61.76 44.01 60.86 C 44.85 59.95 47.22 57.68 50.02 55.64 C 52.83 53.61 54.44 52.66 54.83 52.52 C 55.23 52.39 56.08 52.22 57.30 52.65 C 58.51 53.07 61.53 54.15 62.55 54.54 C 63.58 54.92 65.72 55.48 66.48 55.47 C 67.25 55.46 71.80 54.42 73.36 54.09 C 74.92 53.76 77.99 52.89 78.40 52.78 C 78.80 52.68 78.98 52.64 79.16 52.91 C 79.34 53.18 80.51 55.53 80.57 55.73 C 80.62 55.93 80.81 56.34 80.34 56.42 C 79.86 56.49 73.43 57.59 70.30 58.03 C 67.17 58.48 57.74 60.05 55.26 60.51 C 52.78 60.98 52.54 61.03 51.93 61.30 C 51.32 61.58 50.55 62.14 49.90 62.95 C 49.26 63.75 48.40 64.84 48.15 65.10 C 47.91 65.37 47.67 65.43 47.31 65.44 C 46.95 65.44 46.51 65.36 45.67 65.47 Z" fill="#181516" fill-rule="evenodd" group-id="1,2" id="路径-1061" node-id="66" stroke="none" target-height="13.671082" target-width="38.97253" target-x="41.83759" target-y="52.220947"></path><path d="M 52.77 60.90 C 52.04 61.06 50.75 61.54 49.59 62.96 C 48.44 64.38 47.69 64.89 47.44 64.76 C 47.18 64.64 46.63 63.91 45.97 64.16 C 45.31 64.42 44.44 65.22 44.16 65.44 C 43.89 65.65 43.58 65.68 42.90 65.06 C 42.21 64.43 42.01 63.84 42.14 63.54 C 42.27 63.24 43.07 62.18 43.27 62.20 C 43.48 62.21 44.95 62.12 45.64 61.90 C 46.34 61.68 58.78 57.54 61.36 56.80 C 63.95 56.06 65.86 55.74 66.57 55.70 C 67.28 55.66 68.47 55.50 68.81 55.40 C 69.15 55.30 77.12 53.56 77.64 53.39 C 78.17 53.22 78.50 53.33 78.55 53.48 C 78.60 53.63 79.49 56.12 79.36 56.18 C 79.23 56.24 73.90 57.26 72.05 57.53 C 70.20 57.80 61.98 59.12 59.26 59.67 C 56.55 60.22 53.51 60.74 52.77 60.90 Z" fill="#373334" fill-rule="evenodd" group-id="1,2" id="路径-1062" node-id="67" stroke="none" target-height="12.46344" target-width="37.47278" target-x="42.01245" target-y="53.218018"></path><path d="M 43.73 61.80 C 43.70 61.69 43.33 61.79 45.25 59.98 C 47.18 58.18 49.86 56.05 50.01 55.99 C 50.15 55.93 50.34 55.80 50.23 56.33 C 50.13 56.86 49.87 57.92 50.29 58.43 C 50.71 58.94 51.62 58.77 51.89 58.64 C 52.17 58.51 54.32 56.98 55.36 56.21 C 56.40 55.44 57.62 54.48 57.68 54.31 C 57.74 54.14 57.60 53.72 57.23 53.82 C 56.86 53.92 54.34 55.49 53.47 55.99 C 52.61 56.49 52.05 56.80 51.72 56.78 C 51.39 56.76 51.24 56.56 51.14 55.99 C 51.04 55.42 50.62 55.59 50.50 55.66 C 50.39 55.73 51.68 54.81 51.96 54.59 C 52.24 54.38 54.55 52.78 55.64 52.69 C 56.72 52.59 58.98 53.58 60.04 53.97 C 61.10 54.36 64.81 55.49 64.68 55.56 C 64.56 55.63 61.03 56.41 59.88 56.82 C 58.73 57.23 52.00 59.36 50.69 59.74 C 49.39 60.12 45.19 61.52 44.80 61.65 C 44.41 61.78 43.76 61.92 43.73 61.80 Z" fill="#1b1a19" fill-rule="evenodd" group-id="1,2" id="路径-1063" node-id="68" stroke="none" target-height="9.325962" target-width="21.475647" target-x="43.3313" target-y="52.592834"></path><path d="M 50.80 55.74 C 50.56 55.72 50.42 56.10 50.34 56.63 C 50.27 57.17 50.25 57.80 50.52 58.21 C 50.79 58.62 51.33 58.67 52.08 58.27 C 52.83 57.87 56.53 54.98 56.98 54.68 C 57.43 54.38 57.56 54.22 57.45 54.08 C 57.34 53.93 57.02 54.15 56.75 54.32 C 56.48 54.49 54.75 55.48 54.16 55.83 C 53.57 56.18 52.25 56.92 51.98 56.97 C 51.71 57.03 51.32 57.01 51.14 56.74 C 50.96 56.46 51.04 55.77 50.80 55.74 Z" fill="#e2dfe0" fill-rule="evenodd" group-id="1,2" id="路径-1064" node-id="69" stroke="none" target-height="4.73526" target-width="7.3048096" target-x="50.251526" target-y="53.93112"></path><path d="M 81.90 58.00 C 77.50 58.91 74.05 59.56 71.54 59.94 C 67.62 60.54 56.21 62.10 55.06 62.36 C 53.92 62.62 53.07 63.21 52.90 63.83 C 52.72 64.45 52.69 65.02 52.67 65.10 C 52.65 65.19 54.32 65.24 60.74 65.27 C 67.16 65.31 77.41 65.04 79.20 64.85 C 80.99 64.67 83.25 63.55 83.39 63.14 C 83.54 62.74 83.61 61.56 83.39 60.77 C 83.18 59.99 82.01 58.73 81.83 58.63 C 81.69 58.55 81.62 58.30 81.83 58.15 C 81.88 58.11 81.94 58.01 81.90 58.00 Z" fill="#cbd4d2" fill-rule="evenodd" group-id="1,2" id="路径-1065" node-id="70" stroke="none" target-height="7.3102646" target-width="30.955624" target-x="52.64954" target-y="57.996742"></path><path d="M 81.85 58.13 L 81.75 58.23 C 81.67 58.35 81.69 58.49 81.77 58.58 L 81.84 58.64 L 81.84 58.64 L 81.38 58.72 C 80.34 58.93 78.28 59.46 77.51 59.89 C 76.58 60.41 76.69 61.39 76.72 61.64 C 76.75 61.89 76.57 62.55 76.13 62.73 L 75.08 63.05 C 74.52 63.24 74.13 63.47 75.05 63.68 C 76.41 64.00 80.08 63.84 81.46 64.27 C 80.75 64.55 79.93 64.78 79.20 64.85 L 78.58 64.90 C 75.72 65.08 66.62 65.30 60.74 65.27 L 56.77 65.25 C 53.59 65.21 52.65 65.17 52.67 65.10 C 52.69 65.02 52.72 64.45 52.90 63.83 C 53.07 63.21 53.92 62.62 55.06 62.36 L 55.34 62.31 C 57.29 61.96 66.40 60.71 70.65 60.08 L 72.87 59.83 C 74.45 59.65 75.84 59.47 76.44 59.36 L 81.04 58.30 C 81.43 58.21 81.73 58.15 81.85 58.13 Z" fill="#bac9c7" fill-rule="evenodd" group-id="1,2" id="路径" node-id="71" stroke="none" target-height="7.1715584" target-width="29.191689" target-x="52.654617" target-y="58.132732"></path><path d="M 70.65 60.08 L 71.86 59.94 L 72.64 59.89 C 73.37 59.84 73.96 59.83 74.34 59.88 C 76.30 60.09 74.57 61.62 74.12 62.45 C 73.70 63.23 68.12 64.94 66.86 65.09 L 66.72 65.10 C 66.60 65.11 66.35 65.16 66.01 65.25 C 64.14 65.27 62.32 65.28 60.74 65.27 L 55.19 65.23 C 53.27 65.20 52.66 65.16 52.67 65.10 C 52.69 65.02 52.72 64.45 52.90 63.83 C 53.07 63.21 53.92 62.62 55.06 62.36 L 55.34 62.31 L 57.27 62.00 C 60.74 61.48 67.25 60.58 70.65 60.08 Z" fill="#aabab9" fill-rule="evenodd" group-id="1,2" id="路径" node-id="72" stroke="none" target-height="5.4499626" target-width="23.638977" target-x="52.657486" target-y="59.8325"></path><path d="M 57.27 62.00 L 66.00 60.75 L 66.66 60.94 C 68.36 61.47 69.61 62.04 69.25 62.35 C 68.70 62.84 65.51 64.25 63.07 65.28 L 60.74 65.27 L 60.74 65.27 L 55.19 65.23 L 53.68 65.19 C 52.93 65.17 52.66 65.14 52.67 65.10 C 52.69 65.02 52.72 64.45 52.90 63.83 C 53.07 63.21 53.92 62.62 55.06 62.36 L 55.34 62.31 L 57.27 62.00 Z" fill="#99a7a6" fill-rule="evenodd" group-id="1,2" id="路径" node-id="73" stroke="none" target-height="4.5279617" target-width="16.946957" target-x="52.661488" target-y="60.747383"></path><path d="M 59.59 64.00 L 59.60 64.13 C 59.68 64.40 59.64 64.82 59.45 65.26 L 55.19 65.23 L 53.68 65.19 C 52.93 65.17 52.66 65.14 52.67 65.10 C 52.69 65.02 52.72 64.45 52.90 63.83 C 53.07 63.21 53.92 62.62 55.06 62.36 L 55.34 62.31 L 57.27 62.00 L 61.62 61.38 C 60.44 62.31 59.58 63.42 59.59 64.00 Z" fill="#909797" fill-rule="evenodd" group-id="1,2" id="路径" node-id="74" stroke="none" target-height="3.884472" target-width="8.95903" target-x="52.661488" target-y="61.37691"></path><path d="M 81.81 58.91 C 81.79 58.83 81.92 58.83 82.10 58.88 C 82.51 59.31 83.23 60.17 83.39 60.77 C 83.61 61.56 83.54 62.74 83.39 63.14 C 83.37 63.20 83.31 63.28 83.20 63.36 L 82.72 63.60 C 81.29 64.28 82.22 62.73 82.62 62.16 C 83.01 61.59 82.90 61.13 82.84 60.65 C 82.79 60.18 81.87 59.17 81.81 58.91 Z" fill="#cbd0cc" fill-rule="evenodd" group-id="1,2" id="路径" node-id="75" stroke="none" target-height="5.4504814" target-width="2.3127441" target-x="81.29242" target-y="58.8268"></path><path d="M 82.10 58.88 C 82.51 59.31 83.23 60.17 83.39 60.77 C 83.45 61.31 83.44 61.81 83.37 62.07 C 83.24 62.58 83.17 60.80 82.56 59.88 C 82.24 59.40 82.08 59.06 82.06 58.87 L 82.10 58.88 L 82.10 58.88 Z" fill="#8daea7" fill-rule="evenodd" group-id="1,2" id="路径" node-id="76" stroke="none" target-height="3.7108994" target-width="1.3928299" target-x="82.0581" target-y="58.867207"></path><path d="M 63.33 61.83 C 61.22 62.33 56.44 62.59 55.48 63.06 C 54.89 63.34 54.84 64.06 55.32 65.23 L 53.81 65.20 C 52.96 65.17 52.66 65.14 52.67 65.10 C 52.69 65.02 52.72 64.45 52.90 63.83 C 53.07 63.21 53.92 62.62 55.06 62.36 L 55.55 62.27 L 58.81 61.78 C 60.88 61.48 63.49 61.11 65.90 60.76 L 65.22 61.15 C 64.79 61.38 64.25 61.62 63.33 61.83 Z" fill="#a58d7c" fill-rule="evenodd" group-id="1,2" id="路径" node-id="77" stroke="none" target-height="4.464466" target-width="13.234112" target-x="52.661106" target-y="60.762325"></path><path d="M 56.68 62.39 C 55.53 62.66 54.75 62.71 54.05 63.25 C 53.35 63.79 54.34 64.17 55.02 63.88 C 55.69 63.59 59.73 63.31 61.73 63.26 C 63.07 63.24 64.63 63.17 66.40 63.05 C 64.10 62.67 62.53 62.47 61.69 62.45 C 60.42 62.42 57.84 62.12 56.68 62.39 Z" fill="#85857a" fill-rule="evenodd" group-id="1,2" id="路径-1078" node-id="78" stroke="none" target-height="2.0470428" target-width="13.0550995" target-x="53.347862" target-y="62.12021"></path><path d="M 53.23 64.32 C 53.34 64.44 55.07 64.49 57.33 64.50 L 65.36 64.49 C 69.68 64.49 74.90 64.56 77.05 64.84 L 77.31 64.88 C 77.41 64.90 77.48 64.93 77.51 64.96 L 75.27 65.04 C 71.65 65.16 66.36 65.27 62.17 65.28 L 56.77 65.25 C 53.59 65.21 52.65 65.17 52.67 65.10 C 52.69 65.02 52.72 64.45 52.90 63.83 C 52.97 63.58 53.15 63.33 53.41 63.11 C 53.21 63.58 53.12 64.20 53.23 64.32 Z" fill="#967367" fill-rule="evenodd" group-id="1,2" id="路径" node-id="79" stroke="none" target-height="2.1639938" target-width="24.855736" target-x="52.654617" target-y="63.112885"></path><path d="M 53.03 64.52 C 53.15 64.58 53.48 64.62 54.04 64.64 C 57.68 64.69 71.16 64.67 72.71 64.77 L 72.81 64.78 C 73.39 64.84 68.04 65.09 62.77 65.27 L 62.17 65.28 L 56.77 65.25 L 53.61 65.19 C 52.91 65.17 52.66 65.14 52.67 65.10 C 52.69 65.02 52.72 64.45 52.90 63.83 L 52.94 63.71 C 52.90 64.07 52.85 64.42 53.03 64.52 Z" fill="#715b46" fill-rule="evenodd" group-id="1,2" id="路径" node-id="80" stroke="none" target-height="1.5656548" target-width="20.72567" target-x="52.66179" target-y="63.711224"></path><path d="M 75.36 61.21 C 76.05 61.08 76.14 60.54 75.96 60.29 C 75.78 60.04 66.28 61.33 64.01 61.64 C 61.74 61.94 58.49 62.17 57.03 62.40 C 55.56 62.63 55.52 63.26 56.65 63.16 C 57.79 63.06 60.31 62.98 62.02 62.99 C 63.73 63.01 66.90 63.16 69.26 62.99 C 71.63 62.83 74.54 62.24 74.58 62.16 C 74.62 62.07 74.31 61.92 74.58 61.64 C 74.84 61.36 74.66 61.34 75.36 61.21 Z" fill="#77968d" fill-rule="evenodd" group-id="1,2" id="路径-1066" node-id="81" stroke="none" target-height="3.220211" target-width="20.61853" target-x="55.5177" target-y="60.037357"></path><path d="M 72.92 60.50 C 72.95 60.64 72.83 60.82 72.52 61.03 C 69.71 62.95 67.85 62.03 67.27 62.43 C 67.01 62.62 68.01 62.83 69.36 62.99 L 69.26 62.99 C 67.10 63.15 64.26 63.03 62.48 63.00 L 62.02 62.99 C 60.31 62.98 57.79 63.06 56.65 63.16 C 55.52 63.26 55.56 62.63 57.03 62.40 L 57.76 62.30 C 59.13 62.13 61.20 61.96 62.98 61.76 L 70.69 60.77 L 70.69 60.77 L 72.92 60.50 Z" fill="#6a817a" fill-rule="evenodd" group-id="1,2" id="路径" node-id="82" stroke="none" target-height="2.7595444" target-width="17.430626" target-x="55.5177" target-y="60.498024"></path><path d="M 60.91 62.99 L 59.47 63.02 C 58.36 63.05 57.29 63.10 56.65 63.16 C 55.52 63.26 55.56 62.63 57.03 62.40 L 57.76 62.30 C 59.13 62.13 61.20 61.96 62.98 61.76 L 63.28 61.72 L 62.76 61.90 C 61.50 62.34 60.50 62.79 60.91 62.99 Z" fill="#737872" fill-rule="evenodd" group-id="1,2" id="路径" node-id="83" stroke="none" target-height="1.5347862" target-width="7.761608" target-x="55.5177" target-y="61.722782"></path><path d="M 62.94 61.77 L 63.49 61.70 L 63.49 61.70 L 70.52 60.79 C 73.30 60.44 75.87 60.16 75.96 60.29 C 76.14 60.54 76.05 61.08 75.36 61.21 C 74.66 61.34 74.84 61.36 74.58 61.64 C 74.41 61.82 74.47 61.94 74.53 62.03 C 73.47 62.05 70.40 62.44 69.60 62.59 C 68.63 62.77 65.70 62.67 64.87 62.63 C 64.03 62.58 68.11 62.33 68.77 62.26 L 69.46 62.16 C 70.36 62.02 71.81 61.79 72.80 61.64 L 73.92 61.48 C 74.89 61.33 75.74 61.13 75.69 61.03 C 75.64 60.91 74.56 61.03 73.48 61.24 L 73.21 61.30 C 72.11 61.54 69.58 61.78 65.52 62.03 L 64.87 62.07 C 61.92 62.25 62.23 62.01 62.94 61.77 Z" fill="#b4c6be" fill-rule="evenodd" group-id="1,2" id="路径" node-id="84" stroke="none" target-height="2.615738" target-width="14.217285" target-x="61.918945" target-y="60.15898"></path><path d="M 74.28 59.98 C 71.93 60.02 66.05 61.19 64.40 61.50 C 62.75 61.80 66.00 61.67 67.24 61.63 C 68.48 61.58 74.33 60.92 75.33 60.75 C 76.34 60.59 76.64 59.94 74.28 59.98 Z" fill="#d5dedc" fill-rule="evenodd" group-id="1,2" id="路径-1067" node-id="85" stroke="none" target-height="1.8666344" target-width="13.897461" target-x="62.745544" target-y="59.937744"></path><path d="M 74.84 60.08 C 73.86 60.03 71.45 60.45 70.50 60.58 C 69.54 60.71 66.27 61.26 66.63 61.29 C 66.99 61.32 72.31 60.85 73.65 60.68 C 74.99 60.51 75.82 60.14 74.84 60.08 Z" fill="#ffffff" fill-rule="evenodd" group-id="1,2" id="路径-1068" node-id="86" stroke="none" target-height="1.2905884" target-width="9.542786" target-x="66.273865" target-y="60.025574"></path><path d="M 77.30 59.48 C 76.70 59.71 76.23 60.13 76.34 60.54 C 76.46 60.95 76.48 61.19 76.37 61.50 C 76.25 61.82 76.35 62.21 76.34 62.29 C 76.34 62.36 77.77 62.33 78.12 62.34 C 78.47 62.36 81.17 62.23 81.74 62.34 C 82.32 62.46 82.65 61.53 82.62 61.20 C 82.58 60.87 82.32 59.49 81.92 59.13 C 81.52 58.77 81.53 58.56 80.98 58.65 C 80.43 58.73 77.91 59.24 77.30 59.48 Z" fill="#dee2e2" fill-rule="evenodd" group-id="1,2" id="路径-1069" node-id="87" stroke="none" target-height="3.8996582" target-width="6.416748" target-x="76.23163" target-y="58.56195"></path><path d="M 51.37 64.83 C 51.13 64.96 50.21 65.88 50.00 66.07 C 49.80 66.26 49.55 66.59 49.50 66.67 C 49.45 66.74 51.54 68.43 51.63 68.46 C 51.72 68.49 51.90 68.20 52.04 68.32 C 52.19 68.45 54.02 69.77 54.81 70.14 C 55.61 70.51 56.97 70.97 59.57 71.15 C 62.17 71.33 71.49 71.35 72.69 71.35 C 73.88 71.35 77.46 71.13 79.46 70.69 C 81.47 70.24 84.76 68.81 85.65 68.16 C 86.05 67.86 86.00 67.20 86.00 67.00 C 86.00 66.80 84.51 62.88 84.20 62.50 C 83.99 62.25 83.77 62.12 83.53 62.11 C 83.60 62.65 83.30 63.08 82.63 63.42 C 81.63 63.92 78.06 64.78 72.02 64.72 C 65.98 64.66 58.98 64.85 56.73 64.89 C 54.48 64.92 53.41 64.84 52.79 64.72 C 52.16 64.60 51.61 64.70 51.37 64.83 Z" fill="#e5e3e5" fill-rule="evenodd" group-id="1,2" id="路径-1070" node-id="88" stroke="none" target-height="9.234886" target-width="36.605656" target-x="49.449276" target-y="62.113335"></path><path d="M 83.53 62.11 C 83.77 62.12 83.99 62.25 84.20 62.50 C 84.51 62.88 86.00 66.80 86.00 67.00 L 86.00 67.22 C 86.00 67.51 85.95 67.94 85.65 68.16 C 84.76 68.81 81.47 70.24 79.46 70.69 C 78.25 70.95 76.46 71.14 74.97 71.25 L 73.71 64.71 C 78.73 64.61 81.72 63.87 82.63 63.42 C 83.30 63.08 83.60 62.65 83.53 62.11 Z" fill="#e8e8e8" fill-rule="evenodd" group-id="1,2" id="路径" node-id="89" stroke="none" target-height="9.132126" target-width="12.287888" target-x="73.71437" target-y="62.113335"></path><path d="M 83.53 62.11 C 83.77 62.12 83.99 62.25 84.20 62.50 C 84.51 62.88 86.00 66.80 86.00 67.00 L 86.00 67.22 C 86.00 67.51 85.95 67.94 85.65 68.16 C 84.83 68.76 81.98 70.02 79.97 70.56 L 77.52 64.49 L 77.52 64.49 L 78.57 64.37 C 80.71 64.09 82.07 63.70 82.63 63.42 C 83.30 63.08 83.60 62.65 83.53 62.11 Z" fill="#ebebeb" fill-rule="evenodd" group-id="1,2" id="路径" node-id="90" stroke="none" target-height="8.448257" target-width="8.478294" target-x="77.523964" target-y="62.113335"></path><path d="M 83.53 62.11 C 83.77 62.12 83.99 62.25 84.20 62.50 C 84.51 62.88 86.00 66.80 86.00 67.00 L 86.00 67.22 C 86.00 67.51 85.95 67.94 85.65 68.16 C 85.40 68.34 84.96 68.59 84.41 68.85 L 83.68 67.19 C 83.25 66.23 82.94 65.58 82.74 65.23 C 82.36 64.53 81.39 64.26 80.51 64.05 C 81.56 63.83 82.27 63.60 82.63 63.42 C 83.30 63.08 83.60 62.65 83.53 62.11 Z" fill="#f0f0f0" fill-rule="evenodd" group-id="1,2" id="路径" node-id="91" stroke="none" target-height="6.739197" target-width="5.4903564" target-x="80.5119" target-y="62.113335"></path><path d="M 83.53 62.11 C 83.77 62.12 83.99 62.25 84.20 62.50 C 84.51 62.88 86.00 66.80 86.00 67.00 L 86.00 67.23 C 86.00 67.28 86.00 67.34 85.99 67.39 L 85.78 66.95 C 85.14 65.60 84.05 62.94 83.95 62.72 C 83.82 63.06 83.19 64.07 80.49 64.49 C 78.44 64.82 74.65 64.92 70.06 64.95 L 55.42 65.02 C 54.54 65.01 53.88 65.00 53.44 64.97 L 52.79 64.92 C 51.85 64.87 51.55 64.91 51.08 65.12 L 50.89 65.23 L 51.22 64.94 C 51.29 64.89 51.34 64.85 51.37 64.83 C 51.58 64.72 52.01 64.63 52.52 64.68 L 53.08 64.77 C 53.63 64.85 54.46 64.90 55.83 64.89 L 64.80 64.74 C 66.92 64.71 69.19 64.70 71.37 64.71 L 72.02 64.72 C 78.06 64.78 81.63 63.92 82.63 63.42 C 83.30 63.08 83.60 62.65 83.53 62.11 Z" fill="#f4f4f4" fill-rule="evenodd" group-id="1,2" id="路径" node-id="92" stroke="none" target-height="5.278946" target-width="35.11434" target-x="50.887794" target-y="62.113335"></path><path d="M 63.03 49.65 C 62.04 49.34 61.58 49.23 60.74 49.38 C 59.90 49.52 58.26 50.03 59.28 50.57 C 60.31 51.11 64.55 52.54 65.46 52.77 C 66.37 53.00 67.12 52.84 67.69 52.78 C 68.25 52.73 69.30 52.43 69.47 52.31 C 69.64 52.18 64.02 49.97 63.03 49.65 Z" fill="#3f3f3f" fill-rule="evenodd" group-id="1,2" id="路径-1073" node-id="93" stroke="none" target-height="3.7718468" target-width="11.381329" target-x="58.257465" target-y="49.23047"></path><path d="M 70.71 59.90 C 70.76 59.74 78.82 58.26 79.79 58.04 C 80.75 57.81 81.54 57.72 81.36 57.27 C 81.18 56.82 81.75 57.64 81.52 57.87 C 81.30 58.09 79.96 58.31 78.97 58.48 C 77.99 58.65 70.66 60.06 70.71 59.90 Z" fill="#cadddc" fill-rule="evenodd" group-id="1,2" id="路径-1077" node-id="94" stroke="none" target-height="3.2490044" target-width="11.091362" target-x="70.66117" target-y="56.815693"></path></g></g></svg>