<?xml version="1.0" standalone="no"?><!DOCTYPE svg PUBLIC "-//W3C//DTD SVG 1.1//EN" "http://www.w3.org/Graphics/SVG/1.1/DTD/svg11.dtd"><svg height="96" node-id="1" sillyvg="true" template-height="96" template-width="96" version="1.1" viewBox="0 0 96 96" width="96" xmlns="http://www.w3.org/2000/svg" xmlns:xlink="http://www.w3.org/1999/xlink"><defs node-id="109"></defs><g node-id="126"><g node-id="127"><g node-id="128"><g node-id="129"><path d="M 0.00 0.00 L 96.00 0.00 L 96.00 96.00 L 0.00 96.00 Z" fill="#ffffff" fill-opacity="0" fill-rule="evenodd" group-id="1,2,3,4" node-id="117" stroke="none" target-height="96" target-width="96" target-x="0" target-y="0"></path></g><path d="M 3.00 3.00 L 93.00 3.00 L 93.00 93.00 L 3.00 93.00 Z" fill="none" group-id="1,2,3" node-id="120" stroke="#dddddd" stroke-linecap="butt" stroke-opacity="0" stroke-width="6" target-height="90" target-width="90" target-x="3" target-y="3"></path><path d="M 6.00 6.00 L 90.00 6.00 L 90.00 90.00 L 6.00 90.00 Z" fill="none" group-id="1,2,3" node-id="122" stroke="#dddddd" stroke-linecap="butt" stroke-opacity="0" stroke-width="12" target-height="84" target-width="84" target-x="6" target-y="6"></path><path d="M 5.00 5.00 L 91.00 5.00 L 91.00 91.00 L 5.00 91.00 Z" fill="none" group-id="1,2,3" node-id="124" stroke="#979797" stroke-linecap="butt" stroke-opacity="0" stroke-width="10" target-height="86" target-width="86" target-x="5" target-y="5"></path></g><path d="M 57.45 31.30 C 57.81 31.38 58.67 33.25 58.74 36.18 L 58.76 37.37 C 58.77 39.61 58.68 41.11 59.01 42.42 L 59.20 43.15 C 59.52 44.31 59.84 45.12 60.03 45.36 L 60.29 45.65 C 61.06 46.45 63.26 48.56 65.01 49.16 C 67.06 49.86 68.56 49.86 69.73 49.69 C 70.91 49.51 73.73 48.11 74.26 47.08 C 74.78 46.05 74.60 43.45 74.80 42.69 C 74.99 41.94 75.37 41.10 76.41 40.65 C 77.44 40.20 77.76 40.36 77.94 40.39 C 78.06 40.42 78.15 40.50 78.20 40.65 C 78.52 40.78 78.68 40.75 78.67 40.57 L 78.59 37.44 L 78.59 37.44 C 78.57 36.55 79.62 35.15 80.89 35.34 C 82.17 35.53 82.72 36.62 82.26 38.41 L 81.31 42.03 C 81.03 43.14 80.81 44.11 80.81 44.48 C 80.85 44.89 81.27 46.79 81.39 47.49 L 81.41 47.72 C 81.40 47.97 82.13 49.67 82.55 50.92 C 82.97 52.17 83.30 53.85 83.44 54.55 C 83.58 55.25 83.93 58.82 83.86 59.41 C 83.79 60.00 70.14 63.16 68.45 63.71 C 66.76 64.26 59.81 60.89 58.24 61.13 C 56.66 61.38 43.51 67.04 32.95 67.51 C 22.39 67.98 14.60 64.90 12.40 63.97 C 10.21 63.04 10.63 62.42 10.63 62.11 C 10.63 61.81 11.47 59.12 12.12 58.48 C 12.78 57.84 19.59 56.89 21.81 56.55 L 22.48 56.43 C 24.91 55.98 29.14 54.90 29.88 54.55 L 30.64 54.19 C 30.85 54.09 30.92 54.02 30.92 53.88 C 30.92 53.63 32.42 52.83 32.58 52.83 L 32.95 52.83 C 32.97 52.33 33.10 52.08 33.33 52.08 C 33.67 52.08 34.26 52.00 34.45 51.88 L 34.73 51.74 C 35.19 51.51 36.05 51.10 36.15 50.92 L 36.35 50.57 C 36.47 50.37 36.62 50.16 36.80 50.02 C 37.00 49.87 37.28 49.76 37.66 49.71 C 37.93 49.58 38.14 49.52 38.30 49.53 L 38.55 49.54 C 38.59 49.54 38.61 49.54 38.64 49.53 L 39.53 49.04 C 39.59 49.01 39.64 48.99 39.68 48.96 C 40.03 48.79 40.23 49.05 40.81 48.46 L 41.24 48.03 C 41.66 47.61 42.07 47.27 42.35 47.16 C 42.72 47.00 43.26 47.00 43.53 46.84 L 44.35 46.37 L 44.35 46.37 C 44.38 45.91 44.46 45.63 44.57 45.54 L 44.83 45.33 C 44.99 45.21 45.19 45.09 45.39 45.07 L 45.74 45.02 C 45.89 45.00 45.98 44.97 46.00 44.95 L 46.34 44.51 C 46.51 44.29 46.69 44.06 46.72 43.99 C 46.79 43.85 46.81 43.38 46.85 43.32 L 46.96 43.16 C 47.16 42.91 47.54 42.47 47.68 42.42 C 47.80 42.39 47.91 42.39 48.00 42.42 L 48.63 41.40 C 48.57 41.15 48.57 40.99 48.63 40.90 L 48.89 40.60 C 49.04 40.43 49.21 40.27 49.26 40.26 C 49.32 40.25 49.40 40.25 49.50 40.26 L 49.74 39.76 C 49.85 39.55 49.93 39.40 49.99 39.30 C 50.13 39.06 50.27 38.82 50.33 38.62 C 50.39 38.43 51.94 36.26 53.10 34.69 L 54.43 32.89 C 54.93 32.22 55.29 31.81 55.65 31.64 C 56.25 31.37 57.09 31.22 57.45 31.30 Z M 80.98 36.02 C 80.30 35.75 79.43 36.63 79.25 37.49 C 79.06 38.34 79.19 40.40 79.25 40.64 C 79.28 40.78 79.35 40.98 79.48 41.25 L 79.57 41.47 L 79.45 41.79 C 79.73 41.98 79.95 42.20 80.11 42.43 C 80.36 42.78 80.47 43.42 80.57 43.40 C 80.67 43.37 80.65 42.48 80.88 41.63 C 81.10 40.79 81.49 39.85 81.68 38.89 C 81.86 37.92 81.65 36.29 80.98 36.02 Z" fill="#d8dfdf" fill-rule="evenodd" group-id="1,2" id="形状" node-id="14" stroke="none" target-height="36.762207" target-width="73.7287" target-x="10.206177" target-y="31.220703"></path><path d="M 40.71 56.56 C 38.45 61.49 36.26 65.11 34.14 67.44 C 33.74 67.47 33.34 67.49 32.95 67.51 C 24.70 67.88 18.15 66.08 14.63 64.83 L 15.18 64.51 C 16.30 63.89 17.99 63.06 20.25 62.02 C 24.73 61.44 28.38 60.66 31.19 59.67 L 31.78 59.46 C 34.66 58.36 37.64 57.40 40.71 56.56 Z" fill="#d1d9d9" fill-rule="evenodd" group-id="1,2" id="路径" node-id="15" stroke="none" target-height="11.321781" target-width="26.083374" target-x="14.628476" target-y="56.557667"></path><path d="M 16.67 59.58 L 17.29 59.71 C 19.94 60.24 24.26 60.89 24.36 61.57 C 24.48 62.31 19.82 64.24 18.78 65.27 C 18.55 65.49 18.34 65.71 18.16 65.92 L 18.02 65.88 C 15.28 65.15 13.34 64.36 12.40 63.97 C 10.21 63.04 10.63 62.42 10.63 62.11 C 10.63 61.81 11.47 59.12 12.12 58.48 C 12.35 58.26 13.31 58.00 14.57 57.74 C 14.73 58.44 15.19 59.25 16.67 59.58 Z" fill="#ccd5d6" fill-rule="evenodd" group-id="1,2" id="路径" node-id="16" stroke="none" target-height="8.176853" target-width="14.271118" target-x="10.206177" target-y="57.74293"></path><path d="M 12.72 61.25 C 13.30 62.64 17.17 63.27 19.46 64.75 C 19.17 64.94 18.94 65.11 18.78 65.27 C 18.55 65.49 18.34 65.71 18.16 65.92 L 18.02 65.88 C 15.28 65.15 13.34 64.36 12.40 63.97 C 10.21 63.04 10.63 62.42 10.63 62.11 C 10.63 61.81 11.47 59.12 12.12 58.48 C 12.24 58.37 12.54 58.25 12.98 58.12 C 12.52 59.50 12.43 60.54 12.72 61.25 Z" fill="#c2cbcc" fill-rule="evenodd" group-id="1,2" id="路径" node-id="17" stroke="none" target-height="7.799942" target-width="9.256346" target-x="10.206177" target-y="58.119843"></path><path d="M 57.45 31.30 C 57.81 31.38 58.67 33.25 58.74 36.18 L 58.76 37.37 L 58.75 39.54 C 58.76 40.67 58.80 41.58 59.01 42.42 L 59.20 43.15 C 59.52 44.31 59.84 45.12 60.03 45.36 L 60.29 45.65 L 60.67 46.03 C 61.64 46.99 63.50 48.64 65.01 49.16 C 67.06 49.86 68.56 49.86 69.73 49.69 C 70.91 49.51 73.73 48.11 74.26 47.08 C 74.78 46.05 74.60 43.45 74.80 42.69 C 74.99 41.94 75.37 41.10 76.41 40.65 C 77.44 40.20 77.76 40.36 77.94 40.39 C 78.06 40.42 78.15 40.50 78.20 40.65 C 78.52 40.78 78.68 40.75 78.67 40.57 L 78.59 37.44 C 78.57 36.55 79.62 35.15 80.89 35.34 C 82.17 35.53 82.72 36.62 82.26 38.41 L 81.31 42.03 L 81.06 43.08 C 80.91 43.72 80.81 44.24 80.81 44.48 C 80.85 44.89 81.27 46.79 81.39 47.49 L 81.41 47.72 C 81.40 47.97 82.11 49.61 82.53 50.86 L 69.13 54.74 L 44.09 55.14 L 30.22 67.68 L 27.33 67.55 C 28.71 65.48 30.13 63.66 31.58 62.07 C 33.04 60.49 35.34 58.29 38.48 55.46 C 36.15 55.62 34.21 55.62 33.79 55.56 C 33.24 55.49 32.21 55.02 30.69 54.16 L 30.64 54.19 C 30.85 54.09 30.92 54.02 30.92 53.88 C 30.92 53.63 32.42 52.83 32.58 52.83 L 32.95 52.83 C 32.97 52.33 33.10 52.08 33.33 52.08 C 33.67 52.08 34.26 52.00 34.45 51.88 L 34.73 51.74 L 35.36 51.42 C 35.73 51.23 36.09 51.03 36.15 50.92 L 36.35 50.57 C 36.47 50.37 36.62 50.16 36.80 50.02 C 37.00 49.87 37.28 49.76 37.66 49.71 C 37.93 49.58 38.14 49.52 38.30 49.53 L 38.55 49.54 C 38.59 49.54 38.61 49.54 38.64 49.53 L 39.68 48.96 C 40.03 48.79 40.23 49.05 40.81 48.46 L 41.24 48.03 C 41.66 47.61 42.07 47.27 42.35 47.16 C 42.72 47.00 43.26 47.00 43.53 46.84 L 44.35 46.37 C 44.38 45.91 44.46 45.63 44.57 45.54 L 44.83 45.33 C 44.99 45.21 45.19 45.09 45.39 45.07 L 45.74 45.02 L 45.92 44.98 C 45.96 44.97 45.99 44.96 46.00 44.95 L 46.54 44.25 C 46.63 44.13 46.70 44.03 46.72 43.99 C 46.79 43.85 46.81 43.38 46.85 43.32 L 46.96 43.16 L 47.20 42.87 C 47.39 42.66 47.58 42.45 47.68 42.42 C 47.80 42.39 47.91 42.39 48.00 42.42 L 48.63 41.40 C 48.57 41.15 48.57 40.99 48.63 40.90 L 48.89 40.60 L 49.07 40.41 C 49.15 40.32 49.23 40.26 49.26 40.26 C 49.32 40.25 49.40 40.25 49.50 40.26 L 49.74 39.76 L 49.99 39.30 C 50.08 39.14 50.17 38.98 50.25 38.83 L 50.33 38.62 C 50.38 38.47 51.33 37.13 52.29 35.80 L 54.43 32.89 C 54.93 32.22 55.29 31.81 55.65 31.64 C 56.25 31.37 57.09 31.22 57.45 31.30 Z M 79.25 37.49 C 79.06 38.34 79.19 40.40 79.25 40.64 C 79.28 40.78 79.35 40.98 79.48 41.25 L 79.57 41.47 L 79.45 41.79 C 79.73 41.98 79.95 42.20 80.11 42.43 C 80.36 42.78 80.47 43.42 80.57 43.40 C 80.67 43.37 80.65 42.48 80.88 41.63 C 81.10 40.79 81.49 39.85 81.68 38.89 C 81.86 37.92 81.65 36.29 80.98 36.02 C 80.30 35.75 79.43 36.63 79.25 37.49 Z" fill="#cbd4d4" fill-rule="evenodd" group-id="1,2" id="形状" node-id="18" stroke="none" target-height="36.460938" target-width="55.38971" target-x="27.32593" target-y="31.220703"></path><path d="M 58.75 38.12 L 58.75 39.54 C 58.76 40.67 58.80 41.58 59.01 42.42 L 59.20 43.15 L 59.43 43.93 C 59.47 44.05 59.51 44.16 59.54 44.27 L 59.49 44.58 C 58.29 43.53 57.44 42.97 56.93 42.89 C 56.30 42.79 52.96 43.19 50.75 44.14 L 50.56 44.23 L 52.66 42.80 C 54.82 41.31 57.27 39.56 57.70 39.15 L 57.75 39.09 C 57.91 38.86 58.32 38.45 58.75 38.12 Z" fill="#bac3c3" fill-rule="evenodd" group-id="1,2" id="路径" node-id="19" stroke="none" target-height="6.459194" target-width="8.982285" target-x="50.56193" target-y="38.124935"></path><path d="M 57.45 31.30 C 57.81 31.38 58.67 33.25 58.74 36.18 L 58.74 36.40 C 58.63 36.92 58.48 37.32 58.32 37.48 C 57.70 38.12 54.09 40.95 51.59 42.66 L 51.25 42.89 C 49.05 44.36 44.18 47.41 42.22 48.68 L 41.60 49.10 C 40.49 49.87 32.84 53.56 31.60 54.28 L 31.44 54.38 C 31.29 54.53 31.06 54.34 30.83 54.07 C 30.90 54.02 30.92 53.96 30.92 53.88 C 30.92 53.63 32.42 52.83 32.58 52.83 L 32.95 52.83 C 32.97 52.33 33.10 52.08 33.33 52.08 C 33.67 52.08 34.26 52.00 34.45 51.88 L 34.73 51.74 L 35.36 51.42 L 35.71 51.23 C 35.94 51.11 36.11 50.99 36.15 50.92 L 36.35 50.57 C 36.47 50.37 36.62 50.16 36.80 50.02 C 37.00 49.87 37.28 49.76 37.66 49.71 C 37.93 49.58 38.14 49.52 38.30 49.53 L 38.55 49.54 C 38.59 49.54 38.61 49.54 38.64 49.53 L 39.68 48.96 C 40.03 48.79 40.23 49.05 40.81 48.46 L 41.24 48.03 C 41.66 47.61 42.07 47.27 42.35 47.16 C 42.72 47.00 43.26 47.00 43.53 46.84 L 44.35 46.37 C 44.38 45.91 44.46 45.63 44.57 45.54 L 44.83 45.33 C 44.99 45.21 45.19 45.09 45.39 45.07 L 45.74 45.02 L 45.92 44.98 C 45.96 44.97 45.99 44.96 46.00 44.95 L 46.54 44.25 L 46.69 44.05 C 46.70 44.02 46.72 44.00 46.72 43.99 C 46.79 43.85 46.81 43.38 46.85 43.32 L 46.96 43.16 L 47.20 42.87 C 47.39 42.66 47.58 42.45 47.68 42.42 C 47.80 42.39 47.91 42.39 48.00 42.42 L 48.63 41.40 C 48.57 41.15 48.57 40.99 48.63 40.90 L 48.89 40.60 L 49.07 40.41 C 49.15 40.32 49.23 40.26 49.26 40.26 C 49.32 40.25 49.40 40.25 49.50 40.26 L 49.74 39.76 L 49.99 39.30 C 50.08 39.14 50.17 38.98 50.25 38.83 L 50.33 38.62 C 50.38 38.47 51.33 37.13 52.29 35.80 L 54.43 32.89 C 54.93 32.22 55.29 31.81 55.65 31.64 C 56.25 31.37 57.09 31.22 57.45 31.30 Z" fill="#c6cfd1" fill-rule="evenodd" group-id="1,2" id="路径" node-id="20" stroke="none" target-height="23.30791" target-width="27.911274" target-x="30.832775" target-y="31.220703"></path><path d="M 57.19 32.10 C 57.65 32.36 58.07 32.82 58.43 33.51 C 58.59 34.25 58.72 35.15 58.74 36.18 L 58.76 37.37 L 58.75 38.91 L 57.84 39.70 C 57.12 40.31 56.48 40.82 55.94 41.21 L 55.63 41.44 C 54.40 42.30 45.01 48.28 43.58 48.74 C 42.16 49.20 41.67 48.91 42.40 48.59 C 43.10 48.30 45.55 45.46 46.66 44.50 L 48.38 42.81 C 49.66 41.73 51.11 41.18 52.09 39.98 C 53.42 38.37 54.97 36.20 55.30 34.77 L 55.36 34.42 C 55.51 33.45 56.12 32.68 57.19 32.10 Z" fill="#bac6c8" fill-rule="evenodd" group-id="1,2" id="路径" node-id="21" stroke="none" target-height="17.09246" target-width="17.090519" target-x="41.666016" target-y="32.103516"></path><path d="M 50.51 38.76 C 50.73 38.72 50.76 39.68 51.01 39.55 C 51.26 39.42 53.83 37.60 54.81 37.20 C 55.79 36.79 56.25 36.80 56.11 36.95 C 55.97 37.10 53.54 38.80 52.90 39.34 C 52.25 39.87 51.37 40.73 51.01 41.07 C 50.64 41.41 50.19 41.48 50.19 40.84 C 50.19 40.21 50.29 38.79 50.51 38.76 Z" fill="#97a2a3" fill-rule="evenodd" group-id="1,2" id="路径-731" node-id="22" stroke="none" target-height="4.690613" target-width="6.0583954" target-x="50.189163" target-y="36.791748"></path><path d="M 52.90 39.34 C 52.25 39.87 51.37 40.73 51.01 41.07 C 50.64 41.41 50.19 41.48 50.19 40.84 C 50.19 40.32 50.26 39.26 50.40 38.89 C 50.19 39.85 50.32 40.27 50.80 40.16 C 51.31 40.04 52.78 39.20 55.19 37.64 L 53.49 38.88 C 53.24 39.07 53.03 39.23 52.90 39.34 Z" fill="#7e8888" fill-rule="evenodd" group-id="1,2" id="路径" node-id="23" stroke="none" target-height="3.838646" target-width="5.00272" target-x="50.186634" target-y="37.643715"></path><path d="M 57.76 36.29 C 56.10 37.99 54.63 39.41 53.36 40.54 C 51.45 42.23 50.11 42.05 48.69 43.34 C 47.27 44.63 47.29 45.15 46.52 46.05 C 45.74 46.94 45.40 47.28 44.33 47.89 C 43.61 48.29 42.86 48.65 42.06 48.98 C 42.60 49.14 43.15 49.14 43.72 48.98 C 44.56 48.73 53.40 43.48 54.44 42.54 C 55.13 41.91 56.43 40.62 58.35 38.69 L 57.76 36.29 Z" fill="#9da9ac" fill-rule="evenodd" group-id="1,2" id="路径-730" node-id="24" stroke="none" target-height="12.843708" target-width="16.284348" target-x="42.063797" target-y="36.292236"></path><path d="M 57.47 42.97 C 57.49 42.65 56.64 41.23 55.30 40.80 C 54.55 40.56 50.74 42.36 49.05 43.80 C 48.52 44.26 48.14 45.01 47.62 45.63 C 46.86 46.55 46.03 47.32 45.77 47.57 C 44.79 48.54 50.32 45.28 51.54 44.58 C 52.30 44.14 53.45 43.65 55.64 42.87 C 56.00 42.74 57.45 43.28 57.47 42.97 Z" fill="#8e9a9d" fill-rule="evenodd" group-id="1,2" id="路径-733" node-id="25" stroke="none" target-height="7.9796867" target-width="12.703125" target-x="44.78723" target-y="40.563812"></path><path d="M 53.96 41.93 C 54.43 41.85 55.42 42.17 56.93 42.89 L 56.85 43.02 L 56.25 42.90 C 55.99 42.86 55.76 42.83 55.64 42.87 L 54.28 43.37 C 53.07 43.83 52.29 44.17 51.72 44.48 L 50.45 45.19 C 49.74 45.58 46.96 47.20 46.44 47.44 C 47.81 46.04 48.67 45.11 49.01 44.63 C 49.53 43.91 50.74 43.30 51.75 42.83 C 52.79 42.35 53.61 41.99 53.96 41.93 Z" fill="#768184" fill-rule="evenodd" group-id="1,2" id="路径" node-id="26" stroke="none" target-height="5.5857353" target-width="10.490097" target-x="46.436157" target-y="41.849934"></path><path d="M 53.79 46.72 C 54.26 46.72 56.83 45.62 57.05 45.39 C 57.26 45.15 57.20 44.61 56.95 44.11 C 56.70 43.61 56.31 43.26 56.14 43.07 C 55.97 42.89 54.67 42.82 54.50 42.81 C 54.34 42.80 52.81 43.75 52.37 43.97 C 51.93 44.19 50.96 44.81 51.22 45.30 C 51.48 45.80 53.32 46.71 53.79 46.72 Z" fill="#81908f" fill-rule="evenodd" group-id="1,2" id="路径-712" node-id="27" stroke="none" target-height="3.9284058" target-width="6.3031616" target-x="50.957092" target-y="42.79541"></path><path d="M 53.80 46.54 C 54.28 46.55 56.84 45.44 57.06 45.21 C 57.27 44.97 57.21 44.43 56.96 43.93 C 56.72 43.43 56.32 43.08 56.15 42.89 C 55.98 42.71 54.68 42.64 54.52 42.63 C 54.35 42.62 52.82 43.57 52.38 43.79 C 51.95 44.02 50.97 44.63 51.23 45.13 C 51.50 45.62 53.33 46.53 53.80 46.54 Z" fill="#d8dfdf" fill-rule="evenodd" group-id="1,2" id="路径-712" node-id="28" stroke="none" target-height="3.9284096" target-width="6.3031616" target-x="50.969666" target-y="42.617676"></path><path d="M 55.35 43.40 C 55.53 43.40 55.95 44.34 55.97 44.47 C 55.98 44.61 55.56 44.83 55.49 44.73 C 55.42 44.64 54.95 43.87 54.93 43.71 C 54.91 43.56 55.17 43.40 55.35 43.40 Z" fill="#474d4f" fill-rule="evenodd" group-id="1,2" id="路径-717" node-id="29" stroke="none" target-height="1.4243088" target-width="1.0725975" target-x="54.912285" target-y="43.40131"></path><path d="M 53.50 44.13 C 53.68 44.13 53.94 45.22 53.96 45.36 C 53.98 45.50 53.55 45.71 53.48 45.62 C 53.41 45.53 53.11 44.60 53.09 44.44 C 53.07 44.29 53.32 44.13 53.50 44.13 Z" fill="#474d4f" fill-rule="evenodd" group-id="1,2" id="路径-717" node-id="30" stroke="none" target-height="1.5813599" target-width="0.9080391" target-x="53.06799" target-y="44.132233"></path><path d="M 32.45 54.51 C 32.37 54.48 31.63 54.26 32.14 53.82 C 32.66 53.38 41.24 48.94 41.49 48.90 C 41.68 48.87 43.10 49.47 43.57 49.90 C 43.73 50.05 43.59 50.27 43.52 50.32 C 43.24 50.50 40.00 52.11 39.79 52.18 C 39.58 52.25 38.08 52.02 37.98 52.09 C 37.87 52.16 37.66 52.70 37.54 52.82 C 37.41 52.94 34.33 54.44 34.23 54.51 C 34.13 54.57 32.53 54.53 32.45 54.51 Z" fill="#8b9395" fill-rule="evenodd" group-id="1,2" id="路径-707" node-id="31" stroke="none" target-height="5.7029724" target-width="12.104759" target-x="31.628052" target-y="48.869843"></path><path d="M 32.39 54.34 C 32.30 54.32 31.57 54.10 32.08 53.66 C 32.60 53.21 41.17 48.78 41.43 48.74 C 41.62 48.71 43.04 49.31 43.51 49.74 C 43.67 49.88 43.53 50.11 43.46 50.16 C 43.18 50.34 39.94 51.95 39.73 52.02 C 39.52 52.09 38.02 51.86 37.91 51.93 C 37.81 52.00 37.60 52.54 37.48 52.66 C 37.35 52.78 34.27 54.28 34.17 54.34 C 34.07 54.41 32.47 54.37 32.39 54.34 Z" fill="#dadfe0" fill-rule="evenodd" group-id="1,2" id="路径-707" node-id="32" stroke="none" target-height="5.7029724" target-width="12.104759" target-x="31.565857" target-y="48.707794"></path><path d="M 33.72 53.46 C 33.72 53.49 33.86 53.82 34.13 53.78 C 34.40 53.73 34.69 53.65 34.74 53.55 C 34.79 53.45 34.88 53.27 34.68 53.26 C 34.48 53.25 33.72 53.42 33.72 53.46 Z" fill="#474d4f" fill-rule="evenodd" group-id="1,2" id="路径-742" node-id="33" stroke="none" target-height="0.5632591" target-width="1.164093" target-x="33.71747" target-y="53.25461"></path><path d="M 35.91 52.42 C 35.87 52.51 35.98 52.74 36.25 52.70 C 36.52 52.66 36.75 52.54 36.80 52.44 C 36.85 52.35 36.84 52.19 36.64 52.18 C 36.44 52.18 35.96 52.33 35.91 52.42 Z" fill="#474d4f" fill-rule="evenodd" group-id="1,2" id="路径-742" node-id="34" stroke="none" target-height="0.56869125" target-width="0.98155975" target-x="35.865356" target-y="52.175354"></path><path d="M 39.23 51.05 C 39.18 51.14 39.29 51.37 39.57 51.33 C 39.84 51.28 40.07 51.17 40.12 51.07 C 40.16 50.98 40.16 50.81 39.96 50.81 C 39.75 50.80 39.28 50.95 39.23 51.05 Z" fill="#474d4f" fill-rule="evenodd" group-id="1,2" id="路径-742" node-id="35" stroke="none" target-height="0.56869125" target-width="0.98155975" target-x="39.180603" target-y="50.801056"></path><path d="M 41.42 50.23 C 41.37 50.32 41.49 50.55 41.76 50.51 C 42.03 50.46 42.26 50.35 42.31 50.25 C 42.36 50.16 42.35 49.99 42.15 49.99 C 41.95 49.98 41.47 50.13 41.42 50.23 Z" fill="#474d4f" fill-rule="evenodd" group-id="1,2" id="路径-742" node-id="36" stroke="none" target-height="0.56869125" target-width="0.98155975" target-x="41.37381" target-y="49.980927"></path><path d="M 34.26 51.96 L 34.42 52.29 C 34.53 52.55 34.67 52.90 34.71 53.01 C 34.76 53.17 34.51 53.61 34.50 53.68 C 34.49 53.75 34.14 53.63 34.03 53.57 C 33.93 53.50 33.68 53.60 33.48 53.48 C 33.34 53.40 33.08 53.11 32.93 52.83 L 32.95 52.83 C 32.97 52.33 33.10 52.08 33.33 52.08 C 33.59 52.08 34.00 52.03 34.26 51.96 Z M 38.30 49.53 L 38.47 49.54 L 38.82 49.74 L 39.34 50.05 C 39.43 50.10 39.52 50.15 39.61 50.18 C 39.90 50.27 39.92 50.57 40.00 50.85 C 40.05 51.03 39.96 51.16 39.74 51.22 C 39.56 51.16 39.32 51.13 39.03 51.13 C 38.60 51.12 38.33 50.89 37.91 50.69 L 37.29 50.40 L 36.70 52.21 L 36.63 52.50 C 36.60 52.60 36.54 52.65 36.37 52.62 C 36.06 52.58 35.92 52.35 35.85 52.21 C 35.79 52.06 35.74 51.63 35.85 51.22 L 35.88 51.14 C 36.02 51.05 36.12 50.98 36.15 50.92 L 36.35 50.57 C 36.47 50.37 36.62 50.16 36.80 50.02 C 37.00 49.87 37.28 49.76 37.66 49.71 C 37.93 49.58 38.14 49.52 38.30 49.53 Z M 43.62 46.78 L 43.71 47.17 C 43.75 47.43 44.74 47.82 45.10 48.00 C 45.47 48.18 46.15 49.05 46.16 49.42 C 46.16 49.62 46.03 49.88 45.75 50.20 L 45.57 50.40 L 45.41 49.99 C 45.07 49.48 44.77 49.13 44.52 48.94 L 44.20 48.71 C 43.77 48.41 43.18 48.03 43.06 48.00 C 42.96 47.97 42.82 47.97 42.64 48.00 L 42.38 48.95 C 42.31 49.19 42.26 49.34 42.23 49.42 C 42.12 49.65 42.16 50.06 42.23 50.18 C 42.30 50.30 42.05 50.41 41.74 50.40 C 41.43 50.39 41.32 50.13 41.28 49.99 C 41.26 49.91 41.29 49.69 41.34 49.46 L 41.45 48.94 C 41.52 48.59 41.65 48.04 42.00 47.64 C 42.29 47.32 42.45 47.24 42.90 47.01 L 43.25 46.94 C 43.36 46.92 43.45 46.89 43.53 46.84 L 43.62 46.78 Z M 45.86 45.00 L 46.02 45.05 C 46.67 45.28 48.11 45.99 48.41 46.45 C 48.71 46.91 48.14 47.61 48.00 47.64 C 47.86 47.68 46.99 46.87 46.25 46.34 C 45.67 45.91 44.96 45.81 44.58 45.82 L 44.43 45.84 C 44.46 45.69 44.51 45.59 44.57 45.54 L 44.83 45.33 C 44.99 45.21 45.19 45.09 45.39 45.07 L 45.74 45.02 L 45.86 45.00 Z M 47.98 42.42 L 48.00 42.42 C 48.24 42.44 48.09 42.58 48.50 42.63 L 49.12 42.69 C 49.27 42.71 49.47 42.75 49.87 42.84 C 50.78 43.03 52.97 43.99 53.34 44.13 C 53.65 44.25 53.63 44.54 53.71 44.82 L 53.76 44.95 C 53.90 45.26 53.81 45.44 53.70 45.52 C 53.58 45.59 53.14 45.15 52.92 45.12 L 52.52 45.04 C 52.20 44.98 51.76 44.86 51.27 44.68 L 50.97 44.57 C 50.08 44.19 48.60 43.67 47.76 43.60 C 47.20 43.55 46.97 43.70 46.77 43.82 L 46.83 43.37 C 46.84 43.35 46.84 43.33 46.85 43.32 L 46.96 43.16 L 47.20 42.87 C 47.36 42.69 47.54 42.50 47.64 42.44 L 47.90 42.42 C 47.93 42.41 47.96 42.41 47.98 42.42 Z M 49.50 40.26 L 49.67 40.36 C 50.15 40.60 51.08 40.91 51.70 41.35 C 52.40 41.84 54.82 42.93 55.11 43.22 C 55.33 43.44 55.33 43.50 55.42 43.66 L 55.50 43.80 C 55.70 44.07 55.79 44.42 55.72 44.58 C 55.65 44.75 55.50 44.59 55.38 44.39 C 55.27 44.19 54.84 44.05 54.19 43.71 C 53.64 43.43 52.91 43.21 52.22 42.86 L 51.81 42.63 C 51.33 42.33 50.67 42.06 50.14 41.86 L 49.03 41.49 C 48.91 41.45 48.77 41.40 48.63 41.37 L 48.63 41.40 C 48.57 41.15 48.57 40.99 48.63 40.90 L 48.89 40.60 L 49.07 40.41 C 49.15 40.32 49.23 40.26 49.26 40.26 C 49.32 40.25 49.40 40.25 49.50 40.26 Z" fill="#e0e6e8" fill-rule="evenodd" group-id="1,2" id="形状结合" node-id="37" stroke="none" target-height="13.500996" target-width="22.858318" target-x="32.926838" target-y="40.24809"></path><path d="M 33.12 52.18 L 33.12 52.40 C 33.13 52.66 33.19 52.84 33.29 52.96 C 33.52 53.23 33.90 53.37 34.12 53.30 C 34.24 53.26 34.43 53.13 34.67 52.91 L 34.71 53.01 L 34.71 53.01 C 34.76 53.17 34.51 53.61 34.50 53.68 C 34.49 53.75 34.14 53.63 34.03 53.57 C 33.93 53.50 33.68 53.60 33.48 53.48 C 33.34 53.40 33.08 53.11 32.93 52.83 L 32.95 52.83 C 32.96 52.51 33.02 52.29 33.12 52.18 Z M 37.53 49.86 C 37.42 50.15 37.38 50.30 37.43 50.32 L 37.78 50.48 C 38.15 50.64 38.71 50.87 38.92 50.89 C 39.23 50.91 39.58 50.75 39.61 50.59 L 39.71 50.23 L 39.71 50.23 L 39.61 50.18 C 39.90 50.27 39.92 50.57 40.00 50.85 C 40.05 51.03 39.96 51.16 39.74 51.22 C 39.56 51.16 39.32 51.13 39.03 51.13 C 38.60 51.12 38.33 50.89 37.91 50.69 L 37.29 50.40 L 36.70 52.21 L 36.63 52.50 C 36.60 52.60 36.54 52.65 36.37 52.62 C 36.06 52.58 35.92 52.35 35.85 52.21 C 35.79 52.06 35.74 51.63 35.85 51.22 L 35.88 51.14 C 36.02 51.05 36.12 50.98 36.15 50.92 L 36.21 50.83 L 36.13 51.16 C 36.12 51.21 36.11 51.25 36.10 51.30 C 36.02 51.75 36.09 52.42 36.30 52.14 C 36.48 51.92 36.68 51.61 36.84 51.25 L 36.95 50.97 C 37.07 50.65 37.26 50.28 37.53 49.86 Z M 43.29 47.12 C 43.01 47.47 42.91 47.69 43.00 47.75 C 43.13 47.85 44.29 48.41 44.62 48.74 L 45.05 49.16 C 45.31 49.40 45.56 49.62 45.66 49.63 C 45.73 49.64 45.89 49.61 46.14 49.53 L 46.16 49.42 C 46.16 49.62 46.03 49.88 45.75 50.20 L 45.57 50.40 L 45.41 49.99 C 45.07 49.48 44.77 49.13 44.52 48.94 L 44.20 48.71 C 43.77 48.41 43.18 48.03 43.06 48.00 C 42.96 47.97 42.82 47.97 42.64 48.00 L 42.38 48.95 L 42.29 49.24 C 42.27 49.32 42.25 49.38 42.23 49.42 C 42.12 49.65 42.16 50.06 42.23 50.18 C 42.30 50.30 42.05 50.41 41.74 50.40 C 41.43 50.39 41.32 50.13 41.28 49.99 C 41.26 49.91 41.29 49.69 41.34 49.46 L 41.45 48.94 C 41.49 48.76 41.54 48.53 41.63 48.29 L 41.56 48.91 C 41.52 49.25 41.51 49.49 41.51 49.63 C 41.52 50.01 41.80 49.78 41.92 49.64 C 42.03 49.50 42.49 48.00 42.72 47.75 L 43.29 47.12 L 43.29 47.12 Z M 45.77 45.91 L 47.61 47.02 C 47.78 47.12 47.90 47.20 47.91 47.21 L 48.21 47.45 L 48.21 47.45 C 48.13 47.56 48.04 47.63 48.00 47.64 C 47.86 47.68 46.99 46.87 46.25 46.34 C 46.04 46.18 45.81 46.07 45.58 45.99 C 45.49 45.83 45.42 45.66 45.45 45.52 C 45.51 45.27 45.70 45.86 45.77 45.91 Z" fill="#a2b0b6" fill-rule="evenodd" group-id="1,2" id="形状" node-id="38" stroke="none" target-height="8.478146" target-width="15.283798" target-x="32.926838" target-y="45.27094"></path><path d="M 47.84 42.89 L 48.16 43.45 C 48.20 43.53 48.34 43.58 48.58 43.59 C 48.94 43.62 50.30 44.12 50.76 44.35 C 51.23 44.57 52.75 44.89 53.10 44.91 C 53.46 44.94 53.32 44.66 53.18 44.25 C 53.15 44.17 52.97 44.03 52.69 43.86 L 53.34 44.13 C 53.65 44.25 53.63 44.54 53.71 44.82 L 53.76 44.95 C 53.90 45.26 53.81 45.44 53.70 45.52 C 53.58 45.59 53.14 45.15 52.92 45.12 L 52.52 45.04 L 52.08 44.94 C 51.84 44.88 51.56 44.79 51.27 44.68 L 50.97 44.57 C 50.20 44.24 48.98 43.81 48.13 43.65 L 48.01 43.37 L 47.84 42.89 Z M 55.42 43.66 L 55.50 43.80 C 55.70 44.07 55.79 44.42 55.72 44.58 C 55.65 44.75 55.50 44.59 55.38 44.39 C 55.32 44.29 55.19 44.21 54.99 44.10 L 54.19 43.71 C 54.04 43.64 53.89 43.57 53.72 43.50 L 54.21 43.68 C 54.77 43.87 55.25 43.99 55.33 43.97 C 55.44 43.93 55.24 43.52 55.06 43.18 L 55.11 43.22 C 55.33 43.44 55.33 43.50 55.42 43.66 Z M 48.59 41.18 C 48.79 41.19 49.10 41.36 49.64 41.57 L 50.46 41.89 C 51.03 42.11 51.71 42.39 52.11 42.65 L 52.31 42.81 C 52.45 42.93 52.73 43.08 53.06 43.23 C 52.79 43.12 52.50 43.00 52.22 42.86 L 51.81 42.63 C 51.33 42.33 50.67 42.06 50.14 41.86 L 49.03 41.49 C 48.91 41.45 48.77 41.40 48.63 41.37 L 48.63 41.40 L 48.59 41.18 Z" fill="#a2b0b6" fill-rule="evenodd" group-id="1,2" id="形状" node-id="39" stroke="none" target-height="4.404751" target-width="7.948704" target-x="47.836452" target-y="41.183388"></path><path d="M 30.98 53.78 C 32.12 54.50 33.13 54.90 34.00 54.97 C 35.46 55.09 40.62 54.56 41.43 54.49 C 41.50 54.48 41.80 54.15 41.82 54.16 C 42.11 54.31 42.42 54.56 42.53 54.65 C 42.65 54.75 41.44 56.30 41.19 56.35 C 41.13 56.36 40.53 56.09 40.35 56.02 C 38.35 56.15 35.01 56.37 32.95 56.06 C 31.27 55.81 30.33 55.03 29.87 54.55 L 29.88 54.55 L 30.64 54.19 C 30.85 54.09 30.92 54.02 30.92 53.88 L 30.95 53.80 L 30.98 53.78 Z" fill="#c1c7c7" fill-rule="evenodd" group-id="1,2" id="路径" node-id="40" stroke="none" target-height="2.5914803" target-width="12.778048" target-x="29.868376" target-y="53.775467"></path><path d="M 79.07 41.00 C 79.23 41.12 79.39 41.24 79.53 41.36 L 79.57 41.47 L 79.45 41.79 C 79.73 41.98 79.95 42.20 80.11 42.43 C 80.36 42.78 80.47 43.42 80.57 43.40 C 80.63 43.38 80.65 43.02 80.70 42.55 C 80.85 42.72 80.96 42.89 81.06 43.06 L 80.94 43.60 C 80.86 43.99 80.81 44.31 80.81 44.48 C 80.85 44.89 81.27 46.79 81.39 47.49 L 81.41 47.72 C 81.41 47.84 81.58 48.32 81.81 48.91 L 81.78 48.98 C 81.34 49.83 72.56 54.03 68.68 54.03 C 66.10 54.03 60.25 52.20 51.14 48.54 C 53.71 46.70 55.94 45.95 57.85 46.28 C 60.71 46.79 64.38 50.64 67.03 50.70 C 69.69 50.76 75.87 48.51 76.95 47.69 C 77.97 46.90 78.75 45.62 77.37 45.10 L 77.15 45.03 C 75.47 44.57 76.30 42.95 77.13 42.12 C 77.69 41.57 78.34 41.20 79.07 41.00 Z" fill="#bfc6c7" fill-rule="evenodd" group-id="1,2" id="路径" node-id="41" stroke="none" target-height="13.03775" target-width="30.67175" target-x="51.137447" target-y="40.995605"></path><path d="M 53.16 46.95 C 55.48 47.15 57.68 47.74 59.77 48.74 C 62.90 50.23 64.94 51.64 66.19 51.79 C 67.03 51.90 68.24 51.78 69.81 51.44 L 70.14 52.34 C 67.13 53.02 65.06 53.29 63.92 53.14 C 62.21 52.92 53.70 48.72 52.30 48.00 C 51.37 47.52 51.66 47.17 53.16 46.95 Z" fill="#8e8e8e" fill-rule="evenodd" group-id="1,2" id="路径-739" node-id="42" stroke="none" target-height="6.347904" target-width="18.76738" target-x="51.37233" target-y="46.9458"></path><path d="M 81.28 46.92 L 81.39 47.49 L 81.42 47.77 L 81.42 47.77 L 81.43 47.85 C 81.46 47.96 81.52 48.13 81.59 48.34 L 81.99 49.38 L 81.99 49.38 L 70.14 52.63 L 70.06 52.43 L 69.32 50.40 L 81.28 46.92 Z" fill="#b3b8b8" fill-rule="evenodd" group-id="1,2" id="路径" node-id="43" stroke="none" target-height="5.7071" target-width="12.669426" target-x="69.31616" target-y="46.923023"></path><path d="M 57.11 48.17 L 59.59 49.28 C 62.78 50.76 65.48 52.17 66.99 52.19 C 68.53 52.21 69.23 51.99 70.12 51.66 L 70.99 51.35 C 73.19 50.59 79.89 48.36 81.17 48.00 L 81.46 47.94 C 81.63 48.50 82.20 49.87 82.55 50.92 C 82.97 52.17 83.30 53.85 83.44 54.55 C 83.58 55.25 83.93 58.82 83.86 59.41 C 83.79 60.00 70.14 63.16 68.45 63.71 C 66.76 64.26 59.81 60.89 58.24 61.13 C 56.66 61.38 43.51 67.04 32.95 67.51 C 31.55 67.57 30.20 67.57 28.91 67.53 L 31.95 64.11 C 34.98 60.74 37.32 58.22 38.99 56.54 L 39.27 56.26 C 42.48 53.08 44.29 50.91 45.14 49.98 L 45.26 49.85 C 46.07 49.01 48.09 46.41 49.39 45.88 C 50.52 45.41 53.83 46.72 57.11 48.17 L 57.11 48.17 Z" fill="#e1e7e2" fill-rule="evenodd" group-id="1,2" id="路径" node-id="44" stroke="none" target-height="22.159733" target-width="55.025887" target-x="28.908989" target-y="45.414425"></path><path d="M 57.11 48.17 L 59.59 49.28 L 62.76 50.76 C 64.54 51.58 66.01 52.17 66.99 52.19 C 68.53 52.21 69.23 51.99 70.12 51.66 L 70.99 51.35 L 75.90 49.70 C 78.20 48.94 80.48 48.20 81.17 48.00 L 81.46 47.94 C 81.63 48.50 82.20 49.87 82.55 50.92 C 82.97 52.17 83.30 53.85 83.44 54.55 C 83.58 55.25 83.93 58.82 83.86 59.41 C 83.79 60.00 70.14 63.16 68.45 63.71 C 66.76 64.26 59.81 60.89 58.24 61.13 C 56.66 61.38 43.51 67.04 32.95 67.51 L 32.10 67.54 L 31.79 67.47 C 30.77 67.18 27.57 67.70 32.83 65.49 L 35.28 64.47 C 39.54 62.72 43.24 61.30 45.54 60.37 C 48.27 59.27 54.01 55.47 59.17 56.25 C 64.33 57.03 64.75 58.21 68.68 58.91 C 72.61 59.62 83.08 57.49 82.77 55.76 C 82.62 54.95 82.56 52.81 81.86 52.10 C 81.11 51.33 79.12 51.65 77.75 52.06 L 76.34 52.49 C 74.25 53.13 72.20 53.62 68.15 54.38 C 63.38 55.28 54.45 49.43 53.41 48.59 C 52.37 47.76 49.72 47.17 48.81 47.51 C 48.40 47.67 47.30 48.39 45.51 49.68 L 45.26 49.85 L 46.69 48.24 C 47.57 47.26 48.61 46.20 49.39 45.88 C 50.52 45.41 53.83 46.72 57.11 48.17 Z" fill="#dce1dd" fill-rule="evenodd" group-id="1,2" id="路径" node-id="45" stroke="none" target-height="22.284382" target-width="56.367493" target-x="27.567385" target-y="45.414425"></path><path d="M 81.17 48.00 L 81.46 47.94 L 81.66 48.51 L 81.66 48.51 L 81.99 49.38 L 81.99 49.38 L 70.14 52.63 L 70.06 52.43 L 69.81 51.77 L 70.99 51.35 L 76.76 49.42 C 78.74 48.76 80.57 48.17 81.17 48.00 Z" fill="#d5dad6" fill-rule="evenodd" group-id="1,2" id="路径" node-id="46" stroke="none" target-height="4.6855965" target-width="12.171051" target-x="69.81454" target-y="47.944527"></path><path d="M 41.75 53.72 L 42.10 53.86 C 43.05 54.25 43.43 54.64 43.25 55.03 C 42.93 55.71 37.23 60.55 31.90 67.01 C 30.66 67.28 29.67 67.45 28.91 67.52 L 31.95 64.11 C 34.77 60.96 37.01 58.56 38.64 56.89 L 40.34 55.18 C 40.85 54.66 41.32 54.17 41.75 53.72 Z" fill="#dee3df" fill-rule="evenodd" group-id="1,2" id="路径" node-id="47" stroke="none" target-height="13.802452" target-width="14.517998" target-x="28.909977" target-y="53.72042"></path><path d="M 41.82 54.16 C 42.11 54.31 42.42 54.56 42.53 54.65 C 42.65 54.75 41.44 56.30 41.19 56.35 C 41.13 56.36 40.53 56.09 40.35 56.02 C 40.07 56.04 39.77 56.06 39.45 56.08 L 40.34 55.18 C 40.56 54.96 40.77 54.74 40.97 54.53 C 41.18 54.51 41.34 54.50 41.43 54.49 C 41.50 54.48 41.80 54.15 41.82 54.16 Z" fill="#d2d9d9" fill-rule="evenodd" group-id="1,2" id="形状结合" node-id="48" stroke="none" target-height="2.2090912" target-width="3.1931534" target-x="39.45327" target-y="54.14797"></path><path d="M 45.26 51.52 C 44.72 52.06 45.37 52.52 45.65 52.68 C 45.94 52.84 46.89 53.34 47.50 53.18 C 48.10 53.01 49.00 52.21 50.56 51.04 C 52.13 49.86 53.06 49.37 53.15 48.89 C 53.24 48.42 53.23 48.31 52.67 47.99 C 52.10 47.67 50.36 46.64 49.88 46.81 C 49.39 46.98 45.81 50.98 45.26 51.52 Z" fill="#a4b1aa" fill-rule="evenodd" group-id="1,2" id="路径-732" node-id="49" stroke="none" target-height="6.704529" target-width="8.528259" target-x="44.715332" target-y="46.639282"></path><path d="M 45.26 51.38 C 44.72 51.92 45.30 52.27 45.58 52.43 C 45.87 52.59 46.82 53.10 47.43 52.93 C 48.03 52.76 48.93 51.97 50.50 50.79 C 52.06 49.61 52.99 49.12 53.08 48.65 C 53.17 48.17 53.16 48.06 52.60 47.74 C 52.03 47.42 50.36 46.50 49.88 46.67 C 49.39 46.84 45.81 50.84 45.26 51.38 Z" fill="#e8ecec" fill-rule="evenodd" group-id="1,2" id="路径-732" node-id="50" stroke="none" target-height="6.5965652" target-width="8.456539" target-x="44.717163" target-y="46.499874"></path><path d="M 45.65 45.03 C 45.61 45.09 45.56 45.17 45.51 45.27 C 45.34 45.63 45.57 45.94 45.79 46.35 L 45.88 46.54 C 46.12 47.05 47.51 49.30 47.68 49.81 C 47.85 50.31 48.12 50.86 48.15 51.32 C 48.18 51.77 47.99 51.79 47.80 51.84 C 47.62 51.89 47.20 51.70 47.06 51.32 C 46.93 50.98 46.38 50.06 46.12 49.45 L 46.02 49.21 C 45.89 48.80 45.57 48.23 45.21 47.68 L 44.55 46.68 C 44.46 46.54 44.40 46.43 44.35 46.32 L 44.35 46.37 C 44.38 45.91 44.46 45.63 44.57 45.54 L 44.83 45.33 C 44.99 45.21 45.19 45.09 45.39 45.07 L 45.65 45.03 Z M 48.00 42.42 L 47.93 42.62 C 47.84 43.01 48.03 43.34 48.15 43.58 L 48.52 44.23 C 49.00 45.06 49.80 46.42 50.11 46.93 L 50.19 47.06 C 50.50 47.55 50.76 48.14 50.76 48.41 C 50.77 48.67 50.52 48.84 50.30 48.83 C 50.08 48.83 49.82 48.71 49.63 48.41 C 49.46 48.13 48.92 47.45 48.48 46.60 L 48.08 45.78 C 47.60 44.84 46.95 43.74 46.91 43.58 L 46.86 43.30 L 46.86 43.30 L 46.96 43.16 C 47.16 42.91 47.54 42.47 47.68 42.42 C 47.80 42.39 47.91 42.39 48.00 42.42 Z" fill="#e0e6e8" fill-rule="evenodd" group-id="1,2" id="形状" node-id="51" stroke="none" target-height="9.501259" target-width="6.4165077" target-x="44.348816" target-y="42.385216"></path><path d="M 44.54 46.16 C 44.63 46.69 46.01 48.40 46.55 49.58 L 46.90 50.33 C 47.19 50.95 47.35 51.17 47.54 51.09 C 47.80 50.98 47.79 50.56 47.70 49.87 L 47.68 49.81 C 47.85 50.31 48.12 50.86 48.15 51.32 C 48.18 51.77 47.99 51.79 47.80 51.84 C 47.62 51.89 47.20 51.70 47.06 51.32 C 46.93 50.98 46.38 50.06 46.12 49.45 L 46.02 49.21 C 45.89 48.80 45.57 48.23 45.21 47.68 L 44.55 46.68 C 44.49 46.59 44.44 46.51 44.40 46.43 L 44.35 46.32 L 44.37 46.15 C 44.41 45.82 44.48 45.62 44.57 45.54 L 44.66 45.47 C 44.55 45.74 44.51 45.97 44.54 46.16 Z M 48.15 43.58 L 48.52 44.23 L 49.84 46.48 L 49.84 46.48 L 50.19 47.06 C 50.50 47.55 50.76 48.14 50.76 48.41 C 50.77 48.67 50.52 48.84 50.30 48.83 C 50.08 48.83 49.82 48.71 49.63 48.41 C 49.46 48.13 48.92 47.45 48.48 46.60 L 48.08 45.78 L 47.83 45.30 C 47.40 44.50 46.94 43.71 46.91 43.58 L 46.86 43.30 L 47.06 43.04 L 47.07 43.17 C 47.11 43.52 47.25 43.91 47.48 44.35 L 47.80 44.95 C 48.45 46.10 49.62 48.08 49.81 48.17 C 50.04 48.28 50.52 48.20 50.31 47.63 C 50.11 47.07 47.90 43.67 47.91 43.23 L 47.92 43.00 L 47.92 43.00 C 47.97 43.23 48.08 43.42 48.15 43.58 Z" fill="#a5b1b6" fill-rule="evenodd" group-id="1,2" id="形状" node-id="52" stroke="none" target-height="8.883755" target-width="6.412506" target-x="44.352818" target-y="43.00272"></path><path d="M 66.50 63.15 C 68.81 58.16 70.07 55.54 70.27 55.28 C 70.56 54.90 71.53 54.43 72.39 54.80 C 72.97 55.05 73.89 57.38 75.17 61.78 L 76.08 61.58 C 74.61 57.07 73.87 54.69 73.86 54.44 C 73.85 54.06 74.18 53.55 74.75 53.87 C 75.33 54.19 77.33 60.85 77.51 61.58 C 77.83 61.46 78.12 61.34 78.39 61.21 C 77.86 59.54 77.60 58.37 77.60 57.70 C 77.61 56.70 78.56 55.79 79.52 55.84 C 80.48 55.89 80.79 55.67 80.76 54.85 C 80.72 54.04 80.14 53.55 79.19 53.66 C 78.23 53.78 76.87 54.41 76.53 54.26 C 76.18 54.12 75.80 53.29 76.50 53.00 C 77.19 52.71 78.67 52.20 79.52 52.26 C 80.38 52.33 81.38 52.98 81.65 54.10 C 81.91 55.23 81.67 56.24 81.51 56.41 C 81.36 56.59 81.41 56.64 81.79 56.87 C 82.17 57.09 82.98 58.93 83.08 59.75 C 82.89 59.81 82.58 59.94 82.17 60.14 C 81.73 58.97 81.34 58.17 81.02 57.73 C 80.54 57.06 79.91 56.95 79.52 57.09 C 79.14 57.22 78.69 57.75 78.87 58.62 C 79.00 59.19 79.27 60.15 79.69 61.48 L 73.99 62.94 C 73.25 60.74 72.79 59.30 72.61 58.62 C 72.35 57.58 72.03 56.40 71.49 56.54 C 70.96 56.68 70.45 58.36 69.99 59.49 C 69.68 60.25 69.20 61.39 68.55 62.94 L 66.50 63.15 Z" fill="#5d6566" fill-rule="evenodd" group-id="1,2" id="路径-734" node-id="53" stroke="none" target-height="10.947388" target-width="16.581787" target-x="66.49707" target-y="52.198242"></path><path d="M 66.83 62.71 C 69.15 57.73 70.41 55.11 70.60 54.85 C 70.89 54.47 71.78 54.03 72.64 54.40 C 73.22 54.65 74.14 56.97 75.42 61.38 L 76.33 61.18 C 74.86 56.67 74.12 54.29 74.11 54.04 C 74.10 53.66 74.42 53.15 75.00 53.47 C 75.58 53.79 77.58 60.45 77.75 61.18 C 78.08 61.06 78.37 60.94 78.64 60.81 C 78.11 59.14 77.85 57.97 77.85 57.30 C 77.85 56.30 78.81 55.39 79.77 55.44 C 80.73 55.49 81.04 55.26 81.01 54.45 C 80.97 53.64 80.39 53.15 79.44 53.26 C 78.48 53.37 77.12 54.01 76.78 53.86 C 76.43 53.72 76.05 52.89 76.75 52.60 C 77.44 52.31 78.92 51.80 79.77 51.86 C 80.62 51.92 81.63 52.57 81.90 53.70 C 82.16 54.83 81.92 55.84 81.76 56.01 C 81.61 56.19 81.66 56.24 82.04 56.46 C 82.42 56.68 83.23 58.53 83.33 59.35 C 83.14 59.41 82.83 59.54 82.42 59.74 C 81.97 58.57 81.59 57.77 81.27 57.32 C 80.79 56.66 80.16 56.55 79.77 56.68 C 79.39 56.82 78.94 57.35 79.12 58.21 C 79.25 58.79 79.52 59.75 79.94 61.08 L 74.24 62.53 C 73.50 60.34 73.04 58.90 72.86 58.21 C 72.60 57.18 72.28 56.00 71.74 56.14 C 71.20 56.28 70.70 57.96 70.24 59.09 C 69.93 59.84 69.45 60.99 68.80 62.53 L 66.83 62.71 Z" fill="#f4f4f4" fill-rule="evenodd" group-id="1,2" id="路径-734" node-id="54" stroke="none" target-height="10.916504" target-width="16.49646" target-x="66.831665" target-y="51.796753"></path><path d="M 66.78 62.92 C 69.10 57.94 70.35 55.32 70.55 55.06 C 70.84 54.68 71.73 54.24 72.59 54.61 C 73.16 54.86 74.09 57.18 75.37 61.59 L 76.27 61.39 C 74.81 56.88 74.07 54.50 74.06 54.25 C 74.04 53.87 74.37 53.35 74.95 53.68 C 75.53 54.00 77.53 60.66 77.70 61.39 C 78.03 61.27 78.32 61.15 78.59 61.02 C 78.06 59.35 77.79 58.18 77.80 57.51 C 77.80 56.51 78.76 55.60 79.71 55.65 C 80.67 55.70 80.99 55.47 80.96 54.66 C 80.92 53.85 80.34 53.36 79.38 53.47 C 78.43 53.58 77.07 54.22 76.72 54.07 C 76.38 53.93 76.00 53.10 76.69 52.81 C 77.39 52.52 78.87 52.01 79.72 52.07 C 80.57 52.13 81.58 52.78 81.84 53.91 C 82.11 55.04 81.87 56.05 81.71 56.22 C 81.56 56.40 81.61 56.45 81.99 56.67 C 82.36 56.89 83.17 58.74 83.28 59.56 C 83.08 59.61 82.78 59.74 82.36 59.94 C 81.92 58.78 81.54 57.98 81.22 57.53 C 80.74 56.87 80.11 56.76 79.72 56.89 C 79.33 57.03 78.89 57.55 79.07 58.42 C 79.19 59.00 79.47 59.96 79.89 61.28 L 74.19 62.74 C 73.45 60.55 72.99 59.11 72.81 58.42 C 72.55 57.39 72.23 56.21 71.69 56.35 C 71.15 56.49 70.65 58.17 70.19 59.30 C 69.88 60.05 69.40 61.20 68.75 62.74 L 66.78 62.92 Z" fill="#b9bfbf" fill-rule="evenodd" group-id="1,2" id="路径-734" node-id="55" stroke="none" target-height="10.9165" target-width="16.49646" target-x="66.77991" target-y="52.00574"></path><path d="M 83.33 53.98 L 83.44 54.55 C 83.58 55.25 83.93 58.82 83.86 59.41 C 83.79 60.00 70.14 63.16 68.45 63.71 C 67.40 64.05 64.32 62.88 61.76 62.00 L 61.19 61.43 L 83.28 53.99 L 83.33 53.98 Z" fill="#d2dad7" fill-rule="evenodd" group-id="1,2" id="路径" node-id="56" stroke="none" target-height="10.074955" target-width="22.74054" target-x="61.194336" target-y="53.976757"></path><path d="M 80.89 35.34 C 82.17 35.53 82.72 36.62 82.26 38.41 L 81.31 42.03 L 81.06 43.08 C 80.91 43.72 80.81 44.24 80.81 44.48 C 80.85 44.89 81.27 46.79 81.39 47.49 L 81.41 47.72 C 81.40 47.97 82.13 49.67 82.55 50.92 C 82.97 52.17 83.30 53.85 83.44 54.55 C 83.58 55.25 83.93 58.82 83.86 59.41 C 83.85 59.48 83.67 59.58 83.34 59.70 L 83.40 58.53 C 83.42 58.08 83.42 57.70 83.42 57.42 L 83.42 57.22 C 83.40 56.41 83.23 54.51 83.20 54.39 C 83.17 54.29 83.02 54.14 82.90 53.69 L 82.85 53.47 C 82.73 52.84 81.97 50.47 81.74 49.88 L 81.53 49.31 C 81.28 48.61 80.93 47.51 80.69 46.22 L 80.62 45.78 C 80.32 43.85 79.76 42.80 79.61 42.43 C 79.45 42.06 78.97 41.55 78.73 41.22 L 78.44 40.84 C 78.40 40.79 78.36 40.74 78.32 40.70 C 77.98 40.75 77.55 40.96 77.05 41.32 C 76.35 41.82 75.82 42.53 75.80 43.65 L 75.81 43.97 C 75.89 45.27 75.26 46.48 74.51 47.45 C 74.02 48.09 73.05 48.51 72.15 48.75 C 73.10 48.24 73.99 47.61 74.26 47.08 C 74.78 46.05 74.60 43.45 74.80 42.69 C 74.99 41.94 75.37 41.10 76.41 40.65 C 77.44 40.20 77.76 40.36 77.94 40.39 C 78.06 40.42 78.15 40.50 78.20 40.65 C 78.52 40.78 78.68 40.75 78.67 40.57 L 78.59 37.44 C 78.57 36.55 79.62 35.15 80.89 35.34 Z M 57.45 31.30 C 57.81 31.38 58.67 33.25 58.74 36.18 L 58.76 37.37 L 58.75 39.54 C 58.76 40.67 58.80 41.58 59.01 42.42 L 59.20 43.15 C 59.40 43.87 59.60 44.46 59.77 44.86 C 59.14 44.16 58.58 43.42 58.33 42.78 C 57.65 41.05 57.71 38.43 57.70 36.29 C 57.68 34.15 57.27 32.63 56.94 32.04 C 56.81 31.82 56.64 31.61 56.41 31.39 C 56.82 31.29 57.23 31.25 57.45 31.30 Z M 79.25 37.49 C 79.06 38.34 79.19 40.40 79.25 40.64 C 79.28 40.78 79.35 40.98 79.48 41.25 L 79.57 41.47 L 79.45 41.79 C 79.73 41.98 79.95 42.20 80.11 42.43 C 80.36 42.78 80.47 43.42 80.57 43.40 C 80.67 43.37 80.65 42.48 80.88 41.63 C 81.10 40.79 81.49 39.85 81.68 38.89 C 81.86 37.92 81.65 36.29 80.98 36.02 C 80.30 35.75 79.43 36.63 79.25 37.49 Z" fill="#dee2e6" fill-rule="evenodd" group-id="1,2" id="形状" node-id="57" stroke="none" target-height="28.45301" target-width="27.526623" target-x="56.408253" target-y="31.251518"></path><path d="M 80.89 35.34 C 82.17 35.53 82.72 36.62 82.26 38.41 L 81.31 42.03 L 81.06 43.08 L 80.94 43.60 C 80.86 43.99 80.81 44.31 80.81 44.48 C 80.85 44.89 81.27 46.79 81.39 47.49 L 81.41 47.72 C 81.40 47.97 82.13 49.67 82.55 50.92 C 82.97 52.17 83.30 53.85 83.44 54.55 C 83.58 55.25 83.93 58.82 83.86 59.41 C 83.85 59.48 83.67 59.58 83.34 59.70 L 83.40 58.53 L 83.42 57.65 C 83.42 57.57 83.42 57.49 83.42 57.42 L 83.42 57.22 C 83.40 56.41 83.23 54.51 83.20 54.39 C 83.17 54.29 83.02 54.14 82.90 53.69 L 82.85 53.47 C 82.73 52.84 81.97 50.47 81.74 49.88 L 81.53 49.31 L 81.33 48.71 C 81.11 48.05 80.87 47.19 80.69 46.22 L 80.62 45.78 C 80.32 43.85 79.76 42.80 79.61 42.43 C 79.45 42.06 78.97 41.55 78.73 41.22 L 78.44 40.84 L 78.32 40.70 L 78.32 40.70 C 77.98 40.75 77.55 40.96 77.05 41.32 C 76.35 41.82 75.82 42.53 75.80 43.65 L 75.81 43.97 C 75.89 45.27 75.26 46.48 74.51 47.45 C 74.04 48.06 73.14 48.47 72.28 48.72 L 72.89 48.42 C 73.45 48.14 73.81 47.91 74.00 47.73 C 74.86 46.93 75.14 45.98 75.14 45.73 C 75.14 44.65 74.80 43.72 74.98 43.05 C 75.39 41.51 76.18 41.01 77.03 40.84 C 77.56 40.73 77.92 40.64 78.13 40.52 C 78.16 40.55 78.18 40.60 78.20 40.65 C 78.52 40.78 78.68 40.75 78.67 40.57 L 78.59 37.44 C 78.57 36.55 79.62 35.15 80.89 35.34 Z M 79.25 37.49 C 79.06 38.34 79.19 40.40 79.25 40.64 C 79.28 40.78 79.35 40.98 79.48 41.25 L 79.57 41.47 L 79.45 41.79 C 79.73 41.98 79.95 42.20 80.11 42.43 C 80.36 42.78 80.47 43.42 80.57 43.40 C 80.67 43.37 80.65 42.48 80.88 41.63 C 81.10 40.79 81.49 39.85 81.68 38.89 C 81.86 37.92 81.65 36.29 80.98 36.02 C 80.30 35.75 79.43 36.63 79.25 37.49 Z" fill="#c1c9cb" fill-rule="evenodd" group-id="1,2" id="形状" node-id="58" stroke="none" target-height="24.55188" target-width="11.65181" target-x="72.283066" target-y="35.15265"></path><path d="M 70.58 58.27 L 70.32 58.97 L 70.32 58.97 L 69.34 61.33 C 69.16 61.76 68.97 62.23 68.75 62.74 L 66.78 62.92 L 68.65 58.92 L 68.65 58.92 L 70.58 58.27 Z M 77.69 61.34 L 77.55 61.37 L 75.19 61.97 C 74.80 62.07 74.41 62.17 74.03 62.27 L 73.24 59.86 C 73.10 59.43 72.99 59.08 72.91 58.79 L 72.81 58.42 C 72.74 58.15 72.67 57.86 72.58 57.59 L 73.94 57.13 C 74.36 58.25 74.83 59.74 75.37 61.59 L 76.27 61.39 L 74.94 57.24 C 74.89 57.10 74.85 56.97 74.81 56.84 L 76.14 56.39 L 76.53 57.54 C 77.08 59.22 77.58 60.90 77.69 61.34 Z M 81.71 56.22 C 81.56 56.40 81.61 56.45 81.99 56.67 C 82.36 56.89 83.17 58.74 83.28 59.56 C 83.08 59.61 82.78 59.74 82.36 59.94 L 82.04 59.14 C 81.74 58.40 81.46 57.86 81.22 57.53 C 80.74 56.87 80.11 56.76 79.72 56.89 C 79.33 57.03 78.89 57.55 79.07 58.42 L 79.17 58.85 C 79.30 59.34 79.48 59.99 79.73 60.79 L 78.14 61.22 L 78.14 61.22 C 78.30 61.15 78.45 61.09 78.59 61.02 C 78.06 59.35 77.79 58.18 77.80 57.51 C 77.80 56.51 78.76 55.60 79.71 55.65 C 80.63 55.70 80.96 55.49 80.96 54.77 L 81.94 54.44 C 82.04 55.34 81.84 56.08 81.71 56.22 Z" fill="#c5cdcb" fill-rule="evenodd" group-id="1,2" id="形状" node-id="59" stroke="none" target-height="8.480148" target-width="16.49646" target-x="66.77991" target-y="54.442093"></path><path d="M 85.27 67.57 C 85.48 68.66 85.44 69.49 85.15 70.08 C 84.71 70.53 66.05 69.99 66.19 69.66 C 66.33 69.32 67.71 68.32 70.08 67.51 C 71.66 66.97 76.73 66.99 85.27 67.57 Z" fill="#8b9494" fill-rule="evenodd" group-id="1,2" id="路径-736" node-id="60" stroke="none" target-height="3.563469" target-width="19.423912" target-x="66.05444" target-y="66.9679"></path><path d="M 81.05 67.31 L 80.98 70.25 L 79.42 70.24 C 78.62 70.23 77.76 70.21 76.90 70.20 L 76.90 67.15 L 78.45 67.20 C 79.26 67.23 80.12 67.27 81.05 67.31 Z" fill="#7c8989" fill-rule="evenodd" group-id="1,2" id="路径" node-id="61" stroke="none" target-height="3.1037445" target-width="4.1525497" target-x="76.89535" target-y="67.146935"></path><path d="M 76.83 67.15 L 76.82 67.12 C 77.38 68.74 77.38 69.73 76.82 70.08 C 76.76 70.12 76.69 70.16 76.61 70.19 C 75.23 70.16 73.82 70.12 72.50 70.07 L 72.39 69.17 C 72.29 68.32 72.26 67.66 72.29 67.18 L 73.22 67.14 C 74.22 67.11 75.42 67.11 76.83 67.15 Z" fill="#636b6b" fill-rule="evenodd" group-id="1,2" id="路径" node-id="62" stroke="none" target-height="3.0824127" target-width="5.118454" target-x="72.259476" target-y="67.10913"></path><path d="M 73.50 67.13 L 73.56 66.87 C 73.20 68.15 73.16 69.23 73.46 70.11 L 70.46 69.99 C 67.95 69.89 66.15 69.76 66.19 69.66 C 66.33 69.32 67.71 68.32 70.08 67.51 C 70.69 67.30 71.83 67.17 73.50 67.13 Z" fill="#474c51" fill-rule="evenodd" group-id="1,2" id="路径" node-id="63" stroke="none" target-height="3.2403336" target-width="7.4141006" target-x="66.150024" target-y="66.86618"></path><path d="M 85.27 67.57 C 85.37 68.11 85.42 68.59 85.40 69.01 L 85.38 69.23 L 84.02 69.23 C 83.50 69.23 83.00 69.23 82.76 69.23 C 82.17 69.23 82.33 68.62 82.34 68.04 C 82.35 67.65 81.66 67.49 80.27 67.56 C 80.34 68.09 80.34 68.46 80.27 68.68 C 80.16 69.02 79.87 69.22 79.65 69.22 C 79.43 69.21 78.92 68.95 78.99 68.49 C 79.03 68.18 79.18 67.91 79.42 67.68 L 75.80 67.36 L 75.80 68.30 L 75.80 68.30 L 75.80 68.50 C 75.80 68.65 75.76 68.77 75.53 68.86 C 75.32 68.93 75.13 68.93 74.96 68.86 C 75.36 68.86 75.55 68.80 75.53 68.68 L 75.53 68.37 C 75.52 68.16 75.53 67.85 75.53 67.44 L 74.84 67.56 C 74.88 67.71 74.88 67.83 74.84 67.92 C 74.79 68.05 74.67 67.97 74.54 68.30 C 74.45 68.51 74.48 68.70 74.62 68.86 C 74.34 68.83 74.19 68.68 74.20 68.38 C 74.20 68.08 74.34 67.81 74.62 67.56 C 74.25 67.45 73.90 67.39 73.56 67.36 C 73.07 67.32 70.41 67.57 70.14 67.68 C 69.98 67.75 69.91 67.88 69.87 68.02 L 69.79 68.29 C 69.71 68.49 69.71 68.86 69.62 68.68 C 69.53 68.51 69.51 68.24 69.54 68.04 C 69.55 67.96 69.56 67.82 69.61 67.67 L 70.08 67.51 L 70.08 67.51 C 71.66 66.97 76.73 66.99 85.27 67.57 Z" fill="#bdc1c1" fill-rule="evenodd" group-id="1,2" id="路径" node-id="64" stroke="none" target-height="2.2642593" target-width="15.905724" target-x="69.510254" target-y="66.9679"></path><path d="M 80.39 67.28 L 80.36 67.29 C 80.30 67.31 80.26 67.36 80.23 67.44 L 80.21 67.54 C 80.15 68.06 79.79 68.82 79.34 69.11 C 79.14 68.99 78.95 68.78 78.99 68.49 C 79.03 68.18 79.18 67.91 79.42 67.68 L 78.57 67.61 L 78.59 67.20 L 78.59 67.20 L 79.77 67.25 C 79.98 67.26 80.18 67.27 80.39 67.28 Z M 80.54 67.29 L 82.43 67.39 C 83.33 67.44 84.28 67.50 85.27 67.57 C 85.36 68.06 85.41 68.49 85.40 68.88 C 85.25 68.81 85.05 68.77 84.83 68.74 L 84.21 68.65 C 83.92 68.61 83.29 68.62 82.32 68.67 C 82.31 68.48 82.34 68.26 82.34 68.04 C 82.35 67.73 81.92 67.57 81.07 67.55 L 80.71 67.35 C 80.65 67.33 80.60 67.30 80.54 67.29 Z" fill="#d7d7d7" fill-rule="evenodd" group-id="1,2" id="形状" node-id="65" stroke="none" target-height="1.9098511" target-width="6.8378067" target-x="78.56862" target-y="67.20486"></path><path d="M 10.79 62.39 C 11.86 62.98 13.12 63.51 14.58 63.99 C 16.77 64.71 18.48 65.34 19.15 65.44 C 19.81 65.53 26.73 66.64 30.28 66.41 C 33.83 66.18 42.02 64.67 46.86 63.42 C 51.70 62.17 57.42 59.75 57.85 59.55 C 58.28 59.35 58.59 59.25 59.84 59.81 C 61.09 60.37 65.26 61.91 69.32 62.27 C 69.86 62.29 71.40 62.06 73.70 61.51 C 75.99 60.97 82.80 59.27 83.28 59.13 C 83.75 58.99 84.05 58.84 84.28 58.87 C 84.50 58.91 84.62 59.43 84.60 59.94 C 84.59 60.29 84.55 60.76 84.49 61.36 C 84.63 61.45 84.70 61.57 84.70 61.74 C 84.71 61.90 84.71 62.29 84.70 62.92 C 84.92 63.01 85.03 63.18 85.03 63.42 C 85.04 63.66 85.04 64.07 85.03 64.63 C 85.30 64.74 85.44 64.90 85.43 65.11 C 85.43 65.32 85.43 65.76 85.43 66.41 C 85.63 66.55 85.73 66.71 85.74 66.87 C 85.76 67.11 85.72 67.78 85.62 67.91 C 85.51 68.04 81.98 67.90 80.54 67.89 C 79.10 67.87 73.14 67.52 71.82 67.68 C 70.51 67.84 67.43 68.75 67.00 69.06 C 66.88 69.17 66.62 69.47 66.05 69.47 C 65.48 69.47 60.30 69.41 58.31 69.50 C 56.33 69.58 50.32 69.78 44.93 70.37 C 39.54 70.96 31.69 70.37 27.95 70.33 C 24.21 70.28 16.86 68.35 14.85 67.29 C 14.01 66.84 12.94 66.29 12.08 65.11 C 11.75 64.65 11.32 63.74 10.79 62.39 Z" fill="#dbe0e3" fill-rule="evenodd" group-id="1,2" id="路径-735" node-id="66" stroke="none" target-height="12.125202" target-width="74.962524" target-x="10.794922" target-y="58.83842"></path><path d="M 85.62 67.91 C 85.58 67.96 85.07 67.97 84.38 67.96 L 80.54 67.89 C 79.10 67.87 73.14 67.52 71.82 67.68 C 70.51 67.84 67.43 68.75 67.00 69.06 L 66.87 69.18 C 66.79 69.25 66.67 69.34 66.51 69.39 L 66.45 69.39 L 66.15 69.42 C 66.32 69.16 66.88 68.83 67.17 68.67 C 67.60 68.43 70.55 67.43 71.88 67.35 C 73.21 67.26 77.88 67.48 80.02 67.55 C 83.24 67.65 85.33 67.71 85.41 67.70 C 85.55 67.69 85.61 67.60 85.73 67.30 C 85.72 67.55 85.68 67.83 85.62 67.91 Z" fill="#f2f4f6" fill-rule="evenodd" group-id="1,2" id="路径" node-id="67" stroke="none" target-height="2.1515503" target-width="19.589691" target-x="66.14502" target-y="67.26471"></path><path d="M 31.69 68.97 L 35.53 69.01 C 41.27 69.10 48.18 69.29 56.29 69.58 L 53.03 69.74 C 51.07 69.85 48.82 70.00 46.59 70.21 L 44.93 70.37 C 40.25 70.89 33.70 70.51 29.61 70.37 L 27.95 70.33 C 24.21 70.28 16.86 68.35 14.85 67.29 L 14.23 66.96 C 14.13 66.90 14.02 66.83 13.91 66.76 C 19.46 68.19 25.39 68.92 31.69 68.97 Z" fill="#e3e6e9" fill-rule="evenodd" group-id="1,2" id="路径" node-id="68" stroke="none" target-height="4.1222763" target-width="42.378513" target-x="13.909242" target-y="66.7644"></path><path d="M 84.28 58.87 C 84.40 58.89 84.50 59.07 84.55 59.31 C 84.34 59.27 84.11 59.27 83.87 59.33 L 83.69 59.38 C 82.64 59.69 78.27 61.12 74.34 61.90 L 72.47 62.26 C 69.58 62.79 67.76 63.05 66.59 63.37 L 65.86 63.60 C 64.54 64.03 62.96 64.62 63.11 64.43 C 63.28 64.22 65.11 63.24 68.34 62.61 C 67.41 62.53 64.15 61.88 62.23 61.24 C 60.31 60.60 59.17 59.85 58.55 59.98 L 58.36 60.03 C 57.31 60.37 53.17 62.13 47.96 63.68 C 42.37 65.34 34.71 66.70 31.36 66.84 C 28.02 66.97 22.19 66.69 18.29 65.59 C 15.80 64.90 13.36 63.96 10.95 62.78 L 10.79 62.39 C 11.86 62.98 13.12 63.51 14.58 63.99 L 17.76 65.06 C 18.28 65.22 18.70 65.35 18.99 65.41 L 20.92 65.70 C 23.37 66.04 27.71 66.58 30.28 66.41 C 33.69 66.19 41.35 64.79 46.24 63.58 L 46.86 63.42 C 51.08 62.33 55.96 60.35 57.43 59.73 L 58.04 59.46 C 58.37 59.34 58.71 59.33 59.57 59.69 L 60.23 59.98 C 61.81 60.63 65.61 61.94 69.32 62.27 C 69.79 62.29 71.01 62.12 72.82 61.71 L 75.29 61.13 C 78.22 60.41 82.89 59.25 83.28 59.13 L 83.87 58.93 C 84.03 58.88 84.16 58.86 84.28 58.87 Z" fill="#eef0f2" fill-rule="evenodd" group-id="1,2" id="路径" node-id="69" stroke="none" target-height="8.113174" target-width="73.75396" target-x="10.794922" target-y="58.85594"></path><path d="M 71.02 66.02 L 74.67 66.00 C 75.33 66.00 75.95 66.01 76.42 66.02 L 84.92 66.42 L 85.28 66.41 C 85.33 66.41 85.38 66.41 85.43 66.41 L 85.43 66.50 C 85.51 66.56 85.57 66.62 85.62 66.68 C 84.42 66.84 79.31 66.43 76.86 66.34 L 75.33 66.31 C 73.14 66.28 71.01 66.33 70.85 66.31 C 70.65 66.29 70.59 66.02 71.02 66.02 Z M 74.58 64.18 L 78.00 64.34 C 79.33 64.39 84.19 64.57 84.58 64.56 C 84.74 64.55 84.90 64.53 85.03 64.51 L 85.03 64.72 C 85.13 64.76 85.21 64.81 85.28 64.87 L 84.45 64.86 C 83.74 64.85 80.04 64.74 78.96 64.69 L 75.00 64.47 C 74.79 64.46 74.64 64.45 74.58 64.44 C 74.29 64.40 74.21 64.17 74.58 64.18 Z M 84.91 63.16 L 82.94 63.16 L 81.04 63.14 C 79.86 63.11 79.01 63.07 78.85 63.07 C 78.63 63.06 78.54 62.81 78.83 62.82 L 81.39 62.87 L 84.70 62.89 L 84.70 63.01 C 84.78 63.05 84.86 63.10 84.91 63.16 Z M 82.26 61.31 C 82.49 61.26 83.92 61.27 84.51 61.29 L 84.48 61.45 C 84.56 61.50 84.61 61.56 84.65 61.62 L 82.26 61.63 C 82.06 61.63 81.97 61.37 82.26 61.31 Z" fill="#e9e9e9" fill-rule="evenodd" group-id="1,2" id="形状" node-id="70" stroke="none" target-height="5.5823936" target-width="15.030243" target-x="70.587" target-y="61.258778"></path><path d="M 71.03 65.93 L 74.68 65.91 C 75.34 65.91 75.96 65.92 76.42 65.93 L 84.93 66.33 L 84.93 66.33 L 85.28 66.32 C 85.34 66.32 85.39 66.32 85.44 66.32 L 85.43 66.41 L 85.43 66.41 C 85.51 66.47 85.58 66.53 85.62 66.59 C 84.42 66.75 79.32 66.34 76.86 66.25 L 75.33 66.22 C 73.14 66.19 71.02 66.24 70.86 66.22 C 70.66 66.20 70.59 65.93 71.03 65.93 Z M 74.59 64.09 L 78.01 64.25 C 79.33 64.30 84.19 64.48 84.59 64.47 C 84.75 64.46 84.90 64.44 85.04 64.42 L 85.03 64.63 L 85.03 64.63 C 85.14 64.67 85.22 64.72 85.28 64.78 L 84.46 64.77 C 83.75 64.76 80.05 64.65 78.97 64.60 L 75.01 64.38 C 74.79 64.37 74.64 64.36 74.59 64.35 C 74.30 64.31 74.22 64.08 74.59 64.09 Z M 84.70 62.92 C 84.79 62.96 84.86 63.01 84.91 63.07 L 82.95 63.07 L 82.95 63.07 L 81.05 63.05 C 79.87 63.02 79.02 62.98 78.86 62.98 C 78.64 62.97 78.55 62.72 78.84 62.73 L 81.39 62.78 L 81.39 62.78 L 84.70 62.80 L 84.70 62.80 L 84.70 62.92 L 84.70 62.92 Z M 82.26 61.22 C 82.49 61.17 83.93 61.18 84.51 61.20 L 84.49 61.36 C 84.56 61.41 84.62 61.47 84.65 61.53 L 82.26 61.54 C 82.06 61.54 81.98 61.28 82.26 61.22 Z" fill="#c4c9cb" fill-rule="evenodd" group-id="1,2" id="形状" node-id="71" stroke="none" target-height="5.5823936" target-width="15.030243" target-x="70.5932" target-y="61.168636"></path><path d="M 85.34 69.47 C 85.78 69.59 86.00 69.77 86.00 70.00 C 86.00 70.35 85.71 71.38 84.05 71.60 C 82.39 71.83 73.92 71.80 72.00 71.80 C 70.08 71.80 60.73 71.45 59.37 71.36 C 58.00 71.27 53.41 71.23 49.64 71.36 C 45.87 71.50 41.94 71.71 39.99 71.84 C 38.70 71.93 37.37 71.98 36.00 72.00 C 34.19 72.00 32.82 72.00 31.90 72.00 C 30.52 72.00 25.57 71.24 22.27 70.54 C 18.97 69.84 15.08 68.62 12.92 67.27 C 10.76 65.93 10.00 64.44 10.00 62.96 C 10.00 61.49 10.34 60.17 10.60 59.75 C 10.86 59.34 11.34 59.06 11.28 59.77 C 11.23 60.48 11.27 62.31 11.37 63.31 C 11.47 64.31 11.72 65.47 13.83 66.64 C 15.94 67.81 20.73 69.25 25.04 69.85 C 29.35 70.44 37.03 70.63 41.89 70.34 C 46.74 70.05 56.16 69.32 60.15 69.41 C 64.14 69.51 66.42 69.28 66.94 69.25 C 67.46 69.21 70.66 69.22 72.52 69.36 C 74.38 69.50 77.98 69.68 79.98 69.74 C 81.98 69.81 85.12 69.85 85.21 69.82 C 85.26 69.81 85.30 69.69 85.34 69.47 Z" fill="#c5c7ca" fill-rule="evenodd" group-id="1,2" id="路径-737" node-id="72" stroke="none" target-height="12.939877" target-width="75.99768" target-x="10.002319" target-y="59.060123"></path><path d="M 67.80 70.74 L 69.29 70.99 C 70.58 71.22 72.00 71.49 73.56 71.80 L 72.00 71.80 C 70.43 71.80 63.84 71.57 60.77 71.43 L 58.91 71.34 C 57.26 71.27 53.47 71.24 50.16 71.35 L 46.98 71.47 C 44.13 71.59 41.48 71.74 39.99 71.84 C 39.13 71.90 38.25 71.94 37.35 71.97 L 35.97 72.00 L 39.15 71.67 C 42.25 71.34 44.37 71.08 45.51 70.89 L 45.72 70.85 C 48.46 70.35 52.40 69.85 56.79 69.81 C 61.18 69.76 64.10 70.14 67.80 70.74 Z" fill="#b4b7b9" fill-rule="evenodd" group-id="1,2" id="路径" node-id="73" stroke="none" target-height="2.2374115" target-width="37.597683" target-x="35.966442" target-y="69.76245"></path><path d="M 63.61 70.60 L 65.33 70.76 C 67.10 70.93 70.38 71.28 75.18 71.80 L 72.00 71.80 C 70.43 71.80 63.84 71.57 60.77 71.43 L 58.91 71.34 C 57.26 71.27 53.47 71.24 50.16 71.35 L 47.01 71.47 C 45.28 71.54 43.62 71.63 42.25 71.71 L 45.40 71.29 C 48.60 70.88 51.05 70.61 52.76 70.50 C 56.91 70.22 61.66 70.45 63.61 70.60 L 63.61 70.60 Z" fill="#818181" fill-rule="evenodd" group-id="1,2" id="路径" node-id="74" stroke="none" target-height="1.5729828" target-width="32.937668" target-x="42.246155" target-y="70.22361"></path><path d="M 61.62 71.20 L 66.42 71.50 C 68.23 71.57 73.21 71.65 81.38 71.73 L 78.77 71.78 C 77.85 71.79 76.91 71.79 76.02 71.79 L 72.00 71.80 C 70.43 71.80 63.84 71.57 60.77 71.43 L 58.91 71.34 C 57.26 71.27 53.47 71.24 50.16 71.35 L 49.64 71.36 C 48.58 71.40 47.50 71.45 46.46 71.49 C 49.00 71.19 51.28 71.02 53.29 70.99 C 56.20 70.95 59.19 71.06 61.62 71.20 L 61.62 71.20 Z" fill="#5e5858" fill-rule="evenodd" group-id="1,2" id="路径" node-id="75" stroke="none" target-height="0.8503647" target-width="34.91711" target-x="46.462673" target-y="70.94541"></path><path d="M 53.58 50.81 L 53.57 50.80 C 53.49 50.71 53.35 50.71 53.26 50.79 C 53.25 50.79 53.25 50.80 53.24 50.80 L 53.24 50.81 C 53.15 50.91 53.15 51.05 53.24 51.15 C 53.33 51.24 53.48 51.24 53.57 51.15 C 53.57 51.15 53.57 51.15 53.57 51.15 L 53.57 51.15 C 53.66 51.05 53.66 50.90 53.58 50.81 Z" fill="#3f4441" fill-rule="evenodd" group-id="1,2" id="路径-738" node-id="76" stroke="none" target-height="0.5328026" target-width="0.5158653" target-x="53.147808" target-y="50.70533"></path><path d="M 55.35 51.63 L 55.35 51.63 C 55.26 51.54 55.12 51.53 55.03 51.62 C 55.03 51.62 55.03 51.62 55.02 51.63 L 55.01 51.64 C 54.92 51.73 54.93 51.88 55.02 51.97 C 55.11 52.06 55.25 52.07 55.34 51.98 C 55.34 51.98 55.34 51.98 55.35 51.97 L 55.35 51.97 C 55.44 51.88 55.44 51.73 55.35 51.63 Z" fill="#3f4441" fill-rule="evenodd" group-id="1,2" id="路径-738" node-id="77" stroke="none" target-height="0.53279877" target-width="0.5158653" target-x="54.924755" target-y="51.533398"></path><path d="M 57.10 52.27 L 57.09 52.27 C 57.01 52.18 56.87 52.17 56.78 52.26 C 56.77 52.26 56.77 52.26 56.76 52.27 L 56.76 52.28 C 56.67 52.37 56.67 52.52 56.76 52.61 C 56.85 52.70 57.00 52.71 57.09 52.62 C 57.09 52.62 57.09 52.62 57.09 52.61 L 57.09 52.61 C 57.18 52.52 57.18 52.37 57.10 52.27 Z" fill="#3f4441" fill-rule="evenodd" group-id="1,2" id="路径-738" node-id="78" stroke="none" target-height="0.53279877" target-width="0.51586914" target-x="56.668343" target-y="52.17323"></path><path d="M 58.92 53.18 L 58.92 53.17 C 58.83 53.08 58.69 53.07 58.60 53.16 C 58.60 53.16 58.59 53.17 58.59 53.17 L 58.58 53.18 C 58.49 53.27 58.50 53.42 58.59 53.52 C 58.68 53.61 58.82 53.61 58.91 53.52 C 58.91 53.52 58.91 53.52 58.91 53.52 L 58.91 53.52 C 59.01 53.42 59.01 53.27 58.92 53.18 Z" fill="#646c67" fill-rule="evenodd" group-id="1,2" id="路径-738" node-id="79" stroke="none" target-height="0.53279877" target-width="0.51586914" target-x="58.49311" target-y="53.074657"></path><path d="M 60.60 54.13 L 60.59 54.13 C 60.51 54.04 60.37 54.03 60.28 54.12 C 60.27 54.12 60.27 54.12 60.27 54.13 L 60.26 54.14 C 60.17 54.23 60.17 54.38 60.26 54.47 C 60.35 54.56 60.50 54.57 60.59 54.48 C 60.59 54.48 60.59 54.48 60.59 54.47 L 60.59 54.47 C 60.68 54.38 60.69 54.23 60.60 54.13 Z" fill="#646c67" fill-rule="evenodd" group-id="1,2" id="路径-738" node-id="80" stroke="none" target-height="0.53279877" target-width="0.5158653" target-x="60.169323" target-y="54.03285"></path><path d="M 62.37 54.87 L 62.36 54.86 C 62.28 54.77 62.14 54.77 62.05 54.85 C 62.05 54.85 62.04 54.86 62.04 54.86 L 62.03 54.87 C 61.94 54.97 61.94 55.12 62.04 55.21 C 62.12 55.30 62.27 55.30 62.36 55.21 C 62.36 55.21 62.36 55.21 62.36 55.21 L 62.36 55.21 C 62.45 55.11 62.46 54.97 62.37 54.87 Z" fill="#3f4441" fill-rule="evenodd" group-id="1,2" id="路径-738" node-id="81" stroke="none" target-height="0.53279877" target-width="0.5158653" target-x="61.941357" target-y="54.76765"></path><path d="M 52.76 52.14 L 52.76 52.13 C 52.67 52.04 52.53 52.04 52.44 52.12 C 52.44 52.12 52.43 52.13 52.43 52.13 L 52.42 52.14 C 52.33 52.24 52.34 52.38 52.43 52.48 C 52.52 52.57 52.66 52.57 52.75 52.48 C 52.75 52.48 52.75 52.48 52.75 52.48 L 52.75 52.48 C 52.85 52.38 52.85 52.23 52.76 52.14 Z" fill="#3f4441" fill-rule="evenodd" group-id="1,2" id="路径-738" node-id="82" stroke="none" target-height="0.53279877" target-width="0.5158653" target-x="52.333508" target-y="52.03639"></path><path d="M 54.25 52.98 L 54.25 52.98 C 54.16 52.89 54.02 52.88 53.93 52.96 C 53.93 52.97 53.92 52.97 53.92 52.98 L 53.91 52.99 C 53.82 53.08 53.83 53.23 53.92 53.32 C 54.01 53.41 54.15 53.41 54.24 53.33 C 54.24 53.32 54.24 53.32 54.24 53.32 L 54.24 53.32 C 54.34 53.23 54.34 53.08 54.25 52.98 Z" fill="#3f4441" fill-rule="evenodd" group-id="1,2" id="路径-738" node-id="83" stroke="none" target-height="0.53279877" target-width="0.5158653" target-x="53.822765" target-y="52.88142"></path><path d="M 56.27 53.76 L 56.26 53.75 C 56.18 53.66 56.04 53.66 55.95 53.74 C 55.95 53.74 55.94 53.75 55.94 53.75 L 55.93 53.76 C 55.84 53.86 55.84 54.00 55.93 54.10 C 56.02 54.19 56.17 54.19 56.26 54.10 C 56.26 54.10 56.26 54.10 56.26 54.10 L 56.26 54.10 C 56.35 54.00 56.36 53.85 56.27 53.76 Z" fill="#646c67" fill-rule="evenodd" group-id="1,2" id="路径-738" node-id="84" stroke="none" target-height="0.53279877" target-width="0.5158653" target-x="55.841198" target-y="53.655865"></path><path d="M 57.99 54.62 L 57.98 54.62 C 57.90 54.53 57.76 54.52 57.67 54.60 C 57.66 54.61 57.66 54.61 57.66 54.62 L 57.65 54.63 C 57.56 54.72 57.56 54.87 57.65 54.96 C 57.74 55.05 57.89 55.05 57.98 54.97 C 57.98 54.96 57.98 54.96 57.98 54.96 L 57.98 54.96 C 58.07 54.87 58.08 54.72 57.99 54.62 Z" fill="#646c67" fill-rule="evenodd" group-id="1,2" id="路径-738" node-id="85" stroke="none" target-height="0.53279877" target-width="0.5158653" target-x="57.55952" target-y="54.521282"></path><path d="M 59.66 55.58 L 59.66 55.58 C 59.58 55.49 59.44 55.48 59.34 55.56 C 59.34 55.57 59.34 55.57 59.33 55.58 L 59.32 55.58 C 59.24 55.68 59.24 55.83 59.33 55.92 C 59.42 56.01 59.56 56.01 59.65 55.92 C 59.65 55.92 59.66 55.92 59.66 55.92 L 59.66 55.92 C 59.75 55.83 59.75 55.68 59.66 55.58 Z" fill="#646c67" fill-rule="evenodd" group-id="1,2" id="路径-738" node-id="86" stroke="none" target-height="0.53279495" target-width="0.5158653" target-x="59.23573" target-y="55.479477"></path><path d="M 61.36 56.40 L 61.36 56.39 C 61.28 56.30 61.14 56.29 61.05 56.38 C 61.04 56.38 61.04 56.39 61.03 56.39 L 61.02 56.40 C 60.94 56.49 60.94 56.64 61.03 56.74 C 61.12 56.83 61.26 56.83 61.35 56.74 C 61.36 56.74 61.36 56.74 61.36 56.74 L 61.36 56.74 C 61.45 56.64 61.45 56.49 61.36 56.40 Z" fill="#7e807f" fill-rule="evenodd" group-id="1,2" id="路径-738" node-id="87" stroke="none" target-height="0.53279495" target-width="0.5158653" target-x="60.936413" target-y="56.2946"></path><path d="M 49.98 52.63 L 49.98 52.63 C 49.90 52.54 49.76 52.53 49.67 52.61 C 49.66 52.62 49.66 52.62 49.65 52.63 L 49.64 52.64 C 49.56 52.73 49.56 52.88 49.65 52.97 C 49.74 53.06 49.88 53.06 49.97 52.98 C 49.97 52.97 49.98 52.97 49.98 52.97 L 49.98 52.97 C 50.07 52.88 50.07 52.73 49.98 52.63 Z" fill="#3f4441" fill-rule="evenodd" group-id="1,2" id="路径-738" node-id="88" stroke="none" target-height="0.5328026" target-width="0.5158653" target-x="49.556225" target-y="52.530987"></path><path d="M 51.72 53.61 L 51.71 53.60 C 51.63 53.51 51.49 53.51 51.40 53.59 C 51.39 53.59 51.39 53.60 51.38 53.60 L 51.38 53.61 C 51.29 53.71 51.29 53.85 51.38 53.95 C 51.47 54.04 51.62 54.04 51.71 53.95 C 51.71 53.95 51.71 53.95 51.71 53.95 L 51.71 53.95 C 51.80 53.85 51.80 53.70 51.72 53.61 Z" fill="#3f4441" fill-rule="evenodd" group-id="1,2" id="路径-738" node-id="89" stroke="none" target-height="0.53279495" target-width="0.51586914" target-x="51.287975" target-y="53.50523"></path><path d="M 53.35 54.44 L 53.34 54.43 C 53.26 54.34 53.12 54.33 53.03 54.42 C 53.03 54.42 53.02 54.43 53.02 54.43 L 53.01 54.44 C 52.92 54.53 52.92 54.68 53.01 54.78 C 53.10 54.87 53.25 54.87 53.34 54.78 C 53.34 54.78 53.34 54.78 53.34 54.78 L 53.34 54.78 C 53.43 54.68 53.44 54.53 53.35 54.44 Z" fill="#646c67" fill-rule="evenodd" group-id="1,2" id="路径-738" node-id="90" stroke="none" target-height="0.53279877" target-width="0.5158653" target-x="52.92036" target-y="54.334698"></path><path d="M 55.13 55.28 L 55.13 55.27 C 55.05 55.18 54.90 55.18 54.81 55.26 C 54.81 55.26 54.81 55.27 54.80 55.27 L 54.79 55.28 C 54.71 55.38 54.71 55.52 54.80 55.62 C 54.89 55.71 55.03 55.71 55.12 55.62 C 55.12 55.62 55.12 55.62 55.13 55.62 L 55.13 55.62 C 55.22 55.52 55.22 55.37 55.13 55.28 Z" fill="#646c67" fill-rule="evenodd" group-id="1,2" id="路径-738" node-id="91" stroke="none" target-height="0.53279495" target-width="0.5158653" target-x="54.705276" target-y="55.1754"></path><path d="M 56.91 56.21 L 56.91 56.20 C 56.83 56.11 56.69 56.10 56.60 56.19 C 56.59 56.19 56.59 56.20 56.58 56.20 L 56.58 56.21 C 56.49 56.30 56.49 56.45 56.58 56.55 C 56.67 56.64 56.82 56.64 56.91 56.55 C 56.91 56.55 56.91 56.55 56.91 56.55 L 56.91 56.55 C 57.00 56.45 57.00 56.30 56.91 56.21 Z" fill="#7e807f" fill-rule="evenodd" group-id="1,2" id="路径-738" node-id="92" stroke="none" target-height="0.53279877" target-width="0.5158653" target-x="56.487564" target-y="56.104534"></path><path d="M 49.12 54.04 L 49.12 54.03 C 49.03 53.94 48.89 53.94 48.80 54.02 C 48.80 54.02 48.79 54.03 48.79 54.03 L 48.78 54.04 C 48.69 54.14 48.70 54.29 48.79 54.38 C 48.88 54.47 49.02 54.47 49.11 54.38 C 49.11 54.38 49.11 54.38 49.11 54.38 L 49.12 54.38 C 49.21 54.29 49.21 54.14 49.12 54.04 Z" fill="#3f4441" fill-rule="evenodd" group-id="1,2" id="路径-738" node-id="93" stroke="none" target-height="0.5328026" target-width="0.5158653" target-x="48.69398" target-y="53.938087"></path><path d="M 50.75 54.87 L 50.75 54.86 C 50.67 54.77 50.53 54.77 50.44 54.85 C 50.43 54.85 50.43 54.86 50.42 54.86 L 50.41 54.87 C 50.33 54.97 50.33 55.12 50.42 55.21 C 50.51 55.30 50.65 55.30 50.74 55.21 C 50.75 55.21 50.75 55.21 50.75 55.21 L 50.75 55.21 C 50.84 55.11 50.84 54.97 50.75 54.87 Z" fill="#646c67" fill-rule="evenodd" group-id="1,2" id="路径-738" node-id="94" stroke="none" target-height="0.53279877" target-width="0.5158653" target-x="50.326363" target-y="54.76756"></path><path d="M 52.47 55.75 L 52.47 55.74 C 52.39 55.65 52.25 55.65 52.15 55.73 C 52.15 55.74 52.15 55.74 52.14 55.74 L 52.13 55.75 C 52.05 55.85 52.05 56.00 52.14 56.09 C 52.23 56.18 52.37 56.18 52.46 56.09 C 52.46 56.09 52.47 56.09 52.47 56.09 L 52.47 56.09 C 52.56 56.00 52.56 55.85 52.47 55.75 Z" fill="#646c67" fill-rule="evenodd" group-id="1,2" id="路径-738" node-id="95" stroke="none" target-height="0.53279877" target-width="0.5158653" target-x="52.045605" target-y="55.64848"></path><path d="M 54.26 56.68 L 54.25 56.67 C 54.17 56.58 54.03 56.58 53.94 56.66 C 53.93 56.66 53.93 56.67 53.92 56.67 L 53.92 56.68 C 53.83 56.78 53.83 56.93 53.92 57.02 C 54.01 57.11 54.16 57.11 54.25 57.02 C 54.25 57.02 54.25 57.02 54.25 57.02 L 54.25 57.02 C 54.34 56.92 54.34 56.78 54.26 56.68 Z" fill="#7e807f" fill-rule="evenodd" group-id="1,2" id="路径-738" node-id="96" stroke="none" target-height="0.53279877" target-width="0.5158653" target-x="53.827892" target-y="56.577618"></path><path d="M 48.08 55.41 L 48.08 55.40 C 47.99 55.31 47.85 55.31 47.76 55.39 C 47.76 55.39 47.75 55.40 47.75 55.40 L 47.74 55.41 C 47.65 55.51 47.66 55.66 47.75 55.75 C 47.84 55.84 47.98 55.84 48.07 55.75 C 48.07 55.75 48.07 55.75 48.07 55.75 L 48.08 55.75 C 48.17 55.65 48.17 55.51 48.08 55.41 Z" fill="#646c67" fill-rule="evenodd" group-id="1,2" id="路径-738" node-id="97" stroke="none" target-height="0.53279877" target-width="0.5158653" target-x="47.65449" target-y="55.307293"></path><path d="M 49.73 56.09 L 49.73 56.09 C 49.65 56.00 49.50 55.99 49.41 56.07 C 49.41 56.08 49.41 56.08 49.40 56.09 L 49.39 56.09 C 49.31 56.19 49.31 56.34 49.40 56.43 C 49.49 56.52 49.63 56.52 49.72 56.43 C 49.72 56.43 49.72 56.43 49.73 56.43 L 49.73 56.43 C 49.82 56.34 49.82 56.19 49.73 56.09 Z" fill="#646c67" fill-rule="evenodd" group-id="1,2" id="路径-738" node-id="98" stroke="none" target-height="0.5328026" target-width="0.5158653" target-x="49.30531" target-y="55.989845"></path><path d="M 51.32 56.85 L 51.32 56.85 C 51.24 56.76 51.10 56.75 51.01 56.84 C 51.00 56.84 51.00 56.84 50.99 56.85 L 50.99 56.86 C 50.90 56.95 50.90 57.10 50.99 57.19 C 51.08 57.28 51.22 57.29 51.32 57.20 C 51.32 57.20 51.32 57.19 51.32 57.19 L 51.32 57.19 C 51.41 57.10 51.41 56.95 51.32 56.85 Z" fill="#7e807f" fill-rule="evenodd" group-id="1,2" id="路径-738" node-id="99" stroke="none" target-height="0.5328026" target-width="0.5158653" target-x="50.89735" target-y="56.75242"></path><path d="M 47.14 56.94 L 47.14 56.93 C 47.05 56.84 46.91 56.84 46.82 56.92 C 46.82 56.92 46.81 56.93 46.81 56.93 L 46.80 56.94 C 46.71 57.04 46.72 57.18 46.81 57.28 C 46.90 57.37 47.04 57.37 47.13 57.28 C 47.13 57.28 47.13 57.28 47.13 57.28 L 47.13 57.28 C 47.23 57.18 47.23 57.03 47.14 56.94 Z" fill="#646c67" fill-rule="evenodd" group-id="1,2" id="路径-738" node-id="100" stroke="none" target-height="0.53279877" target-width="0.5158653" target-x="46.71327" target-y="56.835644"></path><path d="M 48.64 57.69 L 48.64 57.69 C 48.56 57.60 48.42 57.59 48.33 57.68 C 48.32 57.68 48.32 57.68 48.31 57.69 L 48.31 57.70 C 48.22 57.79 48.22 57.94 48.31 58.03 C 48.40 58.12 48.54 58.13 48.64 58.04 C 48.64 58.04 48.64 58.03 48.64 58.03 L 48.64 58.03 C 48.73 57.94 48.73 57.79 48.64 57.69 Z" fill="#7e807f" fill-rule="evenodd" group-id="1,2" id="路径-738" node-id="101" stroke="none" target-height="0.53279877" target-width="0.5158653" target-x="48.217422" target-y="57.59257"></path><path d="M 50.24 58.46 L 50.23 58.45 C 50.15 58.36 50.01 58.36 49.92 58.44 C 49.91 58.44 49.91 58.45 49.91 58.45 L 49.90 58.46 C 49.81 58.55 49.81 58.70 49.90 58.80 C 49.99 58.89 50.14 58.89 50.23 58.80 C 50.23 58.80 50.23 58.80 50.23 58.80 L 50.23 58.80 C 50.32 58.70 50.33 58.55 50.24 58.46 Z" fill="#7e807f" fill-rule="evenodd" group-id="1,2" id="路径-738" node-id="102" stroke="none" target-height="0.53279495" target-width="0.5158653" target-x="49.80946" target-y="58.355145"></path><path d="M 45.94 58.34 L 45.94 58.34 C 45.86 58.25 45.72 58.24 45.63 58.32 C 45.62 58.33 45.62 58.33 45.61 58.34 L 45.61 58.35 C 45.52 58.44 45.52 58.59 45.61 58.68 C 45.70 58.77 45.84 58.77 45.93 58.69 C 45.94 58.69 45.94 58.68 45.94 58.68 L 45.94 58.68 C 46.03 58.59 46.03 58.44 45.94 58.34 Z" fill="#7e807f" fill-rule="evenodd" group-id="1,2" id="路径-738" node-id="103" stroke="none" target-height="0.53279495" target-width="0.51586914" target-x="45.51667" target-y="58.242172"></path><path d="M 47.49 59.17 L 47.49 59.16 C 47.40 59.07 47.26 59.07 47.17 59.15 C 47.17 59.15 47.16 59.16 47.16 59.16 L 47.15 59.17 C 47.06 59.27 47.07 59.42 47.16 59.51 C 47.25 59.60 47.39 59.60 47.48 59.51 C 47.48 59.51 47.48 59.51 47.48 59.51 L 47.48 59.51 C 47.58 59.42 47.58 59.27 47.49 59.17 Z" fill="#7e807f" fill-rule="evenodd" group-id="1,2" id="路径-738" node-id="104" stroke="none" target-height="0.53279877" target-width="0.5158653" target-x="47.06275" target-y="59.067852"></path><path d="M 44.79 59.75 L 44.79 59.75 C 44.70 59.66 44.56 59.65 44.47 59.73 C 44.47 59.74 44.46 59.74 44.46 59.75 L 44.45 59.75 C 44.36 59.85 44.37 60.00 44.46 60.09 C 44.55 60.18 44.69 60.18 44.78 60.09 C 44.78 60.09 44.78 60.09 44.79 60.09 L 44.79 60.09 C 44.88 60.00 44.88 59.85 44.79 59.75 Z" fill="#7e807f" fill-rule="evenodd" group-id="1,2" id="路径-738" node-id="105" stroke="none" target-height="0.53279495" target-width="0.5158653" target-x="44.364635" target-y="59.650402"></path><path d="M 48.15 51.29 C 48.00 51.32 47.88 51.33 47.79 51.32 C 47.65 51.31 47.58 51.58 47.45 51.61 C 47.33 51.63 47.32 51.70 47.38 51.72 C 47.43 51.74 47.62 51.83 47.73 51.85 C 47.85 51.86 48.12 51.78 48.13 51.66 C 48.13 51.58 48.14 51.45 48.15 51.29 Z" fill="#474d4f" fill-rule="evenodd" group-id="1,2" id="路径-740" node-id="106" stroke="none" target-height="0.5695152" target-width="0.8299866" target-x="47.319702" target-y="51.287083"></path><path d="M 50.00 48.76 C 50.06 48.62 50.18 48.53 50.36 48.47 C 50.54 48.42 50.67 48.40 50.76 48.41 C 50.75 48.59 50.65 48.72 50.48 48.79 C 50.32 48.86 50.16 48.85 50.00 48.76 Z" fill="#474d4f" fill-rule="evenodd" group-id="1,2" id="路径-741" node-id="107" stroke="none" target-height="0.46170044" target-width="0.76015854" target-x="50.00287" target-y="48.398865"></path></g></g></svg>